M48
; DRILL file {KiCad 9.0.0} date 2026-03-23T08:05:11-0400
; FORMAT={-:-/ absolute / metric / decimal}
; #@! TF.CreationDate,2026-03-23T08:05:11-04:00
; #@! TF.GenerationSoftware,Kicad,Pcbnew,9.0.0
; #@! TF.FileFunction,Plated,1,2,PTH
FMAT,2
METRIC
; #@! TA.AperFunction,Plated,PTH,ViaDrill
T1C0.300
; #@! TA.AperFunction,Plated,PTH,ComponentDrill
T2C0.500
; #@! TA.AperFunction,Plated,PTH,ComponentDrill
T3C0.800
; #@! TA.AperFunction,Plated,PTH,ComponentDrill
T4C0.950
; #@! TA.AperFunction,Plated,PTH,ComponentDrill
T5C1.000
; #@! TA.AperFunction,Plated,PTH,ComponentDrill
T6C1.100
; #@! TA.AperFunction,Plated,PTH,ComponentDrill
T7C1.110
; #@! TA.AperFunction,Plated,PTH,ComponentDrill
T8C1.143
; #@! TA.AperFunction,Plated,PTH,ComponentDrill
T9C1.200
; #@! TA.AperFunction,Plated,PTH,ComponentDrill
T10C2.700
; #@! TA.AperFunction,Plated,PTH,ComponentDrill
T11C3.200
%
G90
G05
T1
X94.386Y-82.459
X101.854Y-98.146
X103.581Y-96.368
X108.509Y-127.254
X109.271Y-126.644
X114.706Y-98.857
X123.444Y-113.69
X128.88Y-113.538
X140.208Y-75.641
X148.5Y-87.4
X151.282Y-97.333
X152.0Y-89.9
X158.14Y-104.14
X168.3Y-86.7
X169.164Y-139.518
X169.545Y-132.385
X169.545Y-133.935
X170.75Y-132.385
X170.75Y-133.935
X171.6Y-86.0
X172.927Y-133.795
X174.274Y-139.623
X175.033Y-87.067
X175.81Y-134.375
X176.53Y-94.082
X176.53Y-97.18
X177.433Y-89.467
X179.629Y-90.063
X179.7Y-99.8
X180.797Y-93.116
X181.019Y-123.444
X182.22Y-96.215
X182.728Y-99.314
X182.88Y-93.523
X183.896Y-90.063
X184.607Y-106.934
X184.658Y-110.642
X185.013Y-113.284
X185.064Y-96.418
X185.064Y-103.886
X185.064Y-107.312
X185.064Y-110.112
X185.471Y-110.642
X185.522Y-106.934
X187.452Y-99.06
X187.554Y-96.469
X187.604Y-93.828
T2
X92.139Y-45.669
X92.139Y-137.109
X92.842Y-43.972
X92.842Y-47.366
X92.842Y-135.412
X92.842Y-138.806
X94.539Y-43.269
X94.539Y-48.069
X94.539Y-134.709
X94.539Y-139.509
X96.236Y-43.972
X96.236Y-47.366
X96.236Y-135.412
X96.236Y-138.806
X96.939Y-45.669
X96.939Y-137.109
X181.75Y-45.72
X181.89Y-137.16
X182.453Y-44.023
X182.453Y-47.417
X182.593Y-135.463
X182.593Y-138.857
X184.15Y-43.32
X184.15Y-48.12
X184.29Y-134.76
X184.29Y-139.56
X185.847Y-44.023
X185.847Y-47.417
X185.987Y-135.463
X185.987Y-138.857
X186.55Y-45.72
X186.69Y-137.16
T3
X163.068Y-135.973
X163.068Y-137.973
X178.992Y-129.692
X182.492Y-129.692
T4
X106.372Y-132.08
X108.872Y-132.08
X111.372Y-132.08
X113.872Y-132.08
X116.372Y-132.08
X118.872Y-132.08
T5
X129.357Y-132.034
X131.857Y-132.034
X142.311Y-132.034
X144.811Y-132.034
X153.995Y-132.034
X156.495Y-132.034
T6
X165.76Y-88.945
X168.3Y-88.945
X170.84Y-88.945
X178.542Y-90.576
X178.542Y-95.656
X185.013Y-114.345
X185.013Y-117.845
X185.064Y-90.063
X185.064Y-93.563
X185.114Y-99.461
X185.114Y-102.961
T7
X94.793Y-94.031
X94.793Y-109.271
X97.333Y-94.031
X97.333Y-109.271
X99.873Y-94.031
X99.873Y-109.271
X102.413Y-94.031
X102.413Y-109.271
X104.953Y-94.031
X104.953Y-109.271
X107.493Y-94.031
X107.493Y-109.271
X110.033Y-94.031
X110.033Y-109.271
X112.573Y-94.031
X112.573Y-109.271
X115.113Y-94.031
X115.113Y-109.271
X117.653Y-94.031
X117.653Y-109.271
X120.193Y-94.031
X120.193Y-109.271
X122.733Y-94.031
X122.733Y-109.271
X125.273Y-94.031
X125.273Y-109.271
X127.813Y-94.031
X127.813Y-109.271
X130.353Y-94.031
X130.353Y-109.271
X132.893Y-94.031
X132.893Y-109.271
X135.433Y-94.031
X135.433Y-109.271
X137.973Y-94.031
X137.973Y-109.271
X140.513Y-94.031
X140.513Y-109.271
X143.053Y-94.031
X143.053Y-109.271
X145.593Y-94.031
X145.593Y-109.271
X148.133Y-94.031
X148.133Y-109.271
X150.673Y-94.031
X150.673Y-109.271
X153.213Y-94.031
X153.213Y-109.271
T8
X165.71Y-108.0
X168.25Y-108.0
X170.79Y-108.0
T9
X135.839Y-50.802
X135.839Y-82.802
X138.379Y-50.802
X138.379Y-82.802
X140.919Y-50.802
X140.919Y-82.802
X143.459Y-50.802
X143.459Y-82.802
X145.999Y-50.802
X145.999Y-82.802
X148.539Y-50.802
X148.539Y-82.802
X151.079Y-50.802
X151.079Y-82.802
X153.619Y-50.802
X153.619Y-82.802
X156.159Y-50.802
X156.159Y-82.802
X158.699Y-50.802
X158.699Y-82.802
X161.239Y-50.802
X161.239Y-82.802
X163.779Y-50.802
X163.779Y-82.802
X166.319Y-50.802
X166.319Y-82.802
X168.859Y-50.802
X168.859Y-82.802
X171.399Y-50.802
X171.399Y-82.802
X173.939Y-50.802
X173.939Y-82.802
T10
X104.439Y-51.302
X104.439Y-82.302
X179.439Y-51.302
X179.439Y-82.302
T11
X94.539Y-45.669
X94.539Y-137.109
X184.15Y-45.72
X184.29Y-137.16
M30
