%TF.GenerationSoftware,KiCad,Pcbnew,9.0.6*%
%TF.CreationDate,2026-03-06T14:42:09-05:00*%
%TF.ProjectId,CapstoneMk2,43617073-746f-46e6-954d-6b322e6b6963,rev?*%
%TF.SameCoordinates,Original*%
%TF.FileFunction,Soldermask,Top*%
%TF.FilePolarity,Negative*%
%FSLAX46Y46*%
G04 Gerber Fmt 4.6, Leading zero omitted, Abs format (unit mm)*
G04 Created by KiCad (PCBNEW 9.0.6) date 2026-03-06 14:42:09*
%MOMM*%
%LPD*%
G01*
G04 APERTURE LIST*
G04 Aperture macros list*
%AMRoundRect*
0 Rectangle with rounded corners*
0 $1 Rounding radius*
0 $2 $3 $4 $5 $6 $7 $8 $9 X,Y pos of 4 corners*
0 Add a 4 corners polygon primitive as box body*
4,1,4,$2,$3,$4,$5,$6,$7,$8,$9,$2,$3,0*
0 Add four circle primitives for the rounded corners*
1,1,$1+$1,$2,$3*
1,1,$1+$1,$4,$5*
1,1,$1+$1,$6,$7*
1,1,$1+$1,$8,$9*
0 Add four rect primitives between the rounded corners*
20,1,$1+$1,$2,$3,$4,$5,0*
20,1,$1+$1,$4,$5,$6,$7,0*
20,1,$1+$1,$6,$7,$8,$9,0*
20,1,$1+$1,$8,$9,$2,$3,0*%
G04 Aperture macros list end*
%ADD10C,0.800000*%
%ADD11C,6.400000*%
%ADD12RoundRect,0.250000X-0.475000X0.337500X-0.475000X-0.337500X0.475000X-0.337500X0.475000X0.337500X0*%
%ADD13R,1.600000X1.600000*%
%ADD14C,1.600000*%
%ADD15RoundRect,0.250000X-0.600000X-0.750000X0.600000X-0.750000X0.600000X0.750000X-0.600000X0.750000X0*%
%ADD16O,1.700000X2.000000*%
%ADD17RoundRect,0.250000X-1.000000X-0.650000X1.000000X-0.650000X1.000000X0.650000X-1.000000X0.650000X0*%
%ADD18RoundRect,0.200000X-0.275000X0.200000X-0.275000X-0.200000X0.275000X-0.200000X0.275000X0.200000X0*%
%ADD19RoundRect,0.250000X-0.600000X-0.725000X0.600000X-0.725000X0.600000X0.725000X-0.600000X0.725000X0*%
%ADD20O,1.700000X1.950000*%
%ADD21RoundRect,0.160000X0.160000X-0.197500X0.160000X0.197500X-0.160000X0.197500X-0.160000X-0.197500X0*%
%ADD22RoundRect,0.102000X0.825000X-0.825000X0.825000X0.825000X-0.825000X0.825000X-0.825000X-0.825000X0*%
%ADD23C,1.854000*%
%ADD24R,1.910000X0.610000*%
%ADD25R,1.205000X1.550000*%
%ADD26R,2.700000X2.500000*%
%ADD27C,1.651000*%
%ADD28C,1.869000*%
%ADD29RoundRect,0.155000X0.212500X0.155000X-0.212500X0.155000X-0.212500X-0.155000X0.212500X-0.155000X0*%
%ADD30RoundRect,0.250000X0.625000X-0.375000X0.625000X0.375000X-0.625000X0.375000X-0.625000X-0.375000X0*%
%ADD31R,1.905000X2.000000*%
%ADD32O,1.905000X2.000000*%
%ADD33R,2.000000X2.000000*%
%ADD34C,2.000000*%
%ADD35C,2.004000*%
%ADD36C,4.254000*%
G04 APERTURE END LIST*
D10*
%TO.C,H2*%
X92138800Y-137109200D03*
X92841744Y-135412144D03*
X92841744Y-138806256D03*
X94538800Y-134709200D03*
D11*
X94538800Y-137109200D03*
D10*
X94538800Y-139509200D03*
X96235856Y-135412144D03*
X96235856Y-138806256D03*
X96938800Y-137109200D03*
%TD*%
D12*
%TO.C,C3*%
X175895000Y-132384800D03*
X175895000Y-134459800D03*
%TD*%
D13*
%TO.C,C4*%
X178992149Y-129692400D03*
D14*
X182492149Y-129692400D03*
%TD*%
D10*
%TO.C,H3*%
X181750000Y-45720000D03*
X182452944Y-44022944D03*
X182452944Y-47417056D03*
X184150000Y-43320000D03*
D11*
X184150000Y-45720000D03*
D10*
X184150000Y-48120000D03*
X185847056Y-44022944D03*
X185847056Y-47417056D03*
X186550000Y-45720000D03*
%TD*%
D15*
%TO.C,J2*%
X129356800Y-132033600D03*
D16*
X131856800Y-132033600D03*
%TD*%
D17*
%TO.C,D1*%
X177019200Y-123444000D03*
X181019200Y-123444000D03*
%TD*%
D18*
%TO.C,R3*%
X176784000Y-137972800D03*
X176784000Y-139622800D03*
%TD*%
D12*
%TO.C,C5*%
X169164000Y-137443300D03*
X169164000Y-139518300D03*
%TD*%
D19*
%TO.C,JP1*%
X106372000Y-132080000D03*
D20*
X108872000Y-132080000D03*
X111372000Y-132080000D03*
X113872000Y-132080000D03*
X116372000Y-132080000D03*
X118872000Y-132080000D03*
%TD*%
D21*
%TO.C,R6*%
X149500000Y-89597500D03*
X149500000Y-88402500D03*
%TD*%
D22*
%TO.C,J6*%
X185012800Y-117845300D03*
D23*
X185012800Y-114345300D03*
%TD*%
D24*
%TO.C,U1*%
X167367500Y-131254800D03*
X167367500Y-132524800D03*
X167367500Y-133794800D03*
X167367500Y-135064800D03*
X172927500Y-135064800D03*
X172927500Y-133794800D03*
X172927500Y-132524800D03*
X172927500Y-131254800D03*
D25*
X169545000Y-132384800D03*
X169545000Y-133934800D03*
X170750000Y-132384800D03*
X170750000Y-133934800D03*
%TD*%
D26*
%TO.C,L1*%
X173330000Y-124764800D03*
X167030000Y-124764800D03*
%TD*%
D10*
%TO.C,H4*%
X181890000Y-137160000D03*
X182592944Y-135462944D03*
X182592944Y-138857056D03*
X184290000Y-134760000D03*
D11*
X184290000Y-137160000D03*
D10*
X184290000Y-139560000D03*
X185987056Y-135462944D03*
X185987056Y-138857056D03*
X186690000Y-137160000D03*
%TD*%
D22*
%TO.C,J1*%
X185063600Y-93562900D03*
D23*
X185063600Y-90062900D03*
%TD*%
D27*
%TO.C,U2*%
X170790000Y-108000000D03*
X168250000Y-108000000D03*
X165710000Y-108000000D03*
%TD*%
D28*
%TO.C,IC1*%
X99872800Y-109270800D03*
X102412800Y-109270800D03*
X104952800Y-109270800D03*
X107492800Y-109270800D03*
X110032800Y-109270800D03*
X112572800Y-109270800D03*
X115112800Y-109270800D03*
X117652800Y-109270800D03*
X120192800Y-109270800D03*
X122732800Y-109270800D03*
X125272800Y-109270800D03*
X127812800Y-109270800D03*
X127812800Y-94030800D03*
X125272800Y-94030800D03*
X122732800Y-94030800D03*
X120192800Y-94030800D03*
X117652800Y-94030800D03*
X115112800Y-94030800D03*
X112572800Y-94030800D03*
X110032800Y-94030800D03*
X107492800Y-94030800D03*
X104952800Y-94030800D03*
X102412800Y-94030800D03*
X132892800Y-109270800D03*
X135432800Y-109270800D03*
X137972800Y-109270800D03*
X140512800Y-109270800D03*
X143052800Y-109270800D03*
X145592800Y-109270800D03*
X148132800Y-109270800D03*
X150672800Y-109270800D03*
X153212800Y-109270800D03*
X153212800Y-94030800D03*
X150672800Y-94030800D03*
X148132800Y-94030800D03*
X145592800Y-94030800D03*
X143052800Y-94030800D03*
X140512800Y-94030800D03*
X137972800Y-94030800D03*
X135432800Y-94030800D03*
X132892800Y-94030800D03*
X130352800Y-109270800D03*
X99872800Y-94030800D03*
X94792800Y-94030800D03*
X97332800Y-109270800D03*
X130352800Y-94030800D03*
X97332800Y-94030800D03*
X94792800Y-109270800D03*
%TD*%
D29*
%TO.C,C1*%
X170747500Y-129336800D03*
X169612500Y-129336800D03*
%TD*%
D22*
%TO.C,J5*%
X185114400Y-102960900D03*
D23*
X185114400Y-99460900D03*
%TD*%
D30*
%TO.C,F1*%
X185064400Y-110112000D03*
X185064400Y-107312000D03*
%TD*%
D10*
%TO.C,H1*%
X92138800Y-45669200D03*
X92841744Y-43972144D03*
X92841744Y-47366256D03*
X94538800Y-43269200D03*
D11*
X94538800Y-45669200D03*
D10*
X94538800Y-48069200D03*
X96235856Y-43972144D03*
X96235856Y-47366256D03*
X96938800Y-45669200D03*
%TD*%
D31*
%TO.C,Q1*%
X165760000Y-88945000D03*
D32*
X168300000Y-88945000D03*
X170840000Y-88945000D03*
%TD*%
D15*
%TO.C,J4*%
X153994800Y-132033600D03*
D16*
X156494800Y-132033600D03*
%TD*%
D15*
%TO.C,J3*%
X142310800Y-132033600D03*
D16*
X144810800Y-132033600D03*
%TD*%
D18*
%TO.C,R5*%
X174274000Y-137972800D03*
X174274000Y-139622800D03*
%TD*%
D21*
%TO.C,R7*%
X151300000Y-91097500D03*
X151300000Y-89902500D03*
%TD*%
D13*
%TO.C,C2*%
X163068000Y-135972800D03*
D14*
X163068000Y-137972800D03*
%TD*%
D33*
%TO.C,D2*%
X178541800Y-95656400D03*
D34*
X178541800Y-90576400D03*
%TD*%
D35*
%TO.C,DS1*%
X173939200Y-50802000D03*
X173939200Y-82802000D03*
X171399200Y-50802000D03*
X171399200Y-82802000D03*
X168859200Y-50802000D03*
X168859200Y-82802000D03*
X166319200Y-50802000D03*
X166319200Y-82802000D03*
X163779200Y-50802000D03*
X163779200Y-82802000D03*
X161239200Y-50802000D03*
X161239200Y-82802000D03*
X158699200Y-50802000D03*
X158699200Y-82802000D03*
X156159200Y-50802000D03*
X156159200Y-82802000D03*
X153619200Y-50802000D03*
X153619200Y-82802000D03*
X151079200Y-50802000D03*
X151079200Y-82802000D03*
X148539200Y-50802000D03*
X148539200Y-82802000D03*
X145999200Y-50802000D03*
X145999200Y-82802000D03*
X143459200Y-50802000D03*
X143459200Y-82802000D03*
X140919200Y-50802000D03*
X140919200Y-82802000D03*
X138379200Y-50802000D03*
X138379200Y-82802000D03*
X135839200Y-50802000D03*
X135839200Y-82802000D03*
D36*
X179439200Y-82302000D03*
X104439200Y-82302000D03*
X179439200Y-51302000D03*
X104439200Y-51302000D03*
%TD*%
M02*
