%TF.GenerationSoftware,KiCad,Pcbnew,9.0.6*%
%TF.CreationDate,2026-03-06T14:42:09-05:00*%
%TF.ProjectId,CapstoneMk2,43617073-746f-46e6-954d-6b322e6b6963,rev?*%
%TF.SameCoordinates,Original*%
%TF.FileFunction,Copper,L1,Top*%
%TF.FilePolarity,Positive*%
%FSLAX46Y46*%
G04 Gerber Fmt 4.6, Leading zero omitted, Abs format (unit mm)*
G04 Created by KiCad (PCBNEW 9.0.6) date 2026-03-06 14:42:09*
%MOMM*%
%LPD*%
G01*
G04 APERTURE LIST*
G04 Aperture macros list*
%AMRoundRect*
0 Rectangle with rounded corners*
0 $1 Rounding radius*
0 $2 $3 $4 $5 $6 $7 $8 $9 X,Y pos of 4 corners*
0 Add a 4 corners polygon primitive as box body*
4,1,4,$2,$3,$4,$5,$6,$7,$8,$9,$2,$3,0*
0 Add four circle primitives for the rounded corners*
1,1,$1+$1,$2,$3*
1,1,$1+$1,$4,$5*
1,1,$1+$1,$6,$7*
1,1,$1+$1,$8,$9*
0 Add four rect primitives between the rounded corners*
20,1,$1+$1,$2,$3,$4,$5,0*
20,1,$1+$1,$4,$5,$6,$7,0*
20,1,$1+$1,$6,$7,$8,$9,0*
20,1,$1+$1,$8,$9,$2,$3,0*%
G04 Aperture macros list end*
%TA.AperFunction,ComponentPad*%
%ADD10C,0.800000*%
%TD*%
%TA.AperFunction,ComponentPad*%
%ADD11C,6.400000*%
%TD*%
%TA.AperFunction,SMDPad,CuDef*%
%ADD12RoundRect,0.250000X-0.475000X0.337500X-0.475000X-0.337500X0.475000X-0.337500X0.475000X0.337500X0*%
%TD*%
%TA.AperFunction,ComponentPad*%
%ADD13R,1.600000X1.600000*%
%TD*%
%TA.AperFunction,ComponentPad*%
%ADD14C,1.600000*%
%TD*%
%TA.AperFunction,ComponentPad*%
%ADD15RoundRect,0.250000X-0.600000X-0.750000X0.600000X-0.750000X0.600000X0.750000X-0.600000X0.750000X0*%
%TD*%
%TA.AperFunction,ComponentPad*%
%ADD16O,1.700000X2.000000*%
%TD*%
%TA.AperFunction,SMDPad,CuDef*%
%ADD17RoundRect,0.250000X-1.000000X-0.650000X1.000000X-0.650000X1.000000X0.650000X-1.000000X0.650000X0*%
%TD*%
%TA.AperFunction,SMDPad,CuDef*%
%ADD18RoundRect,0.200000X-0.275000X0.200000X-0.275000X-0.200000X0.275000X-0.200000X0.275000X0.200000X0*%
%TD*%
%TA.AperFunction,ComponentPad*%
%ADD19RoundRect,0.250000X-0.600000X-0.725000X0.600000X-0.725000X0.600000X0.725000X-0.600000X0.725000X0*%
%TD*%
%TA.AperFunction,ComponentPad*%
%ADD20O,1.700000X1.950000*%
%TD*%
%TA.AperFunction,SMDPad,CuDef*%
%ADD21RoundRect,0.160000X0.160000X-0.197500X0.160000X0.197500X-0.160000X0.197500X-0.160000X-0.197500X0*%
%TD*%
%TA.AperFunction,ComponentPad*%
%ADD22R,1.650000X1.650000*%
%TD*%
%TA.AperFunction,ComponentPad*%
%ADD23C,1.650000*%
%TD*%
%TA.AperFunction,SMDPad,CuDef*%
%ADD24R,1.910000X0.610000*%
%TD*%
%TA.AperFunction,SMDPad,CuDef*%
%ADD25R,1.205000X1.550000*%
%TD*%
%TA.AperFunction,SMDPad,CuDef*%
%ADD26R,2.700000X2.500000*%
%TD*%
%TA.AperFunction,ComponentPad*%
%ADD27C,1.651000*%
%TD*%
%TA.AperFunction,ComponentPad*%
%ADD28C,1.665000*%
%TD*%
%TA.AperFunction,SMDPad,CuDef*%
%ADD29RoundRect,0.155000X0.212500X0.155000X-0.212500X0.155000X-0.212500X-0.155000X0.212500X-0.155000X0*%
%TD*%
%TA.AperFunction,SMDPad,CuDef*%
%ADD30RoundRect,0.250000X0.625000X-0.375000X0.625000X0.375000X-0.625000X0.375000X-0.625000X-0.375000X0*%
%TD*%
%TA.AperFunction,ComponentPad*%
%ADD31R,1.905000X2.000000*%
%TD*%
%TA.AperFunction,ComponentPad*%
%ADD32O,1.905000X2.000000*%
%TD*%
%TA.AperFunction,ComponentPad*%
%ADD33R,2.000000X2.000000*%
%TD*%
%TA.AperFunction,ComponentPad*%
%ADD34C,2.000000*%
%TD*%
%TA.AperFunction,ComponentPad*%
%ADD35C,1.800000*%
%TD*%
%TA.AperFunction,ComponentPad*%
%ADD36C,4.050000*%
%TD*%
%TA.AperFunction,ViaPad*%
%ADD37C,0.600000*%
%TD*%
%TA.AperFunction,ViaPad*%
%ADD38C,0.300000*%
%TD*%
%TA.AperFunction,Conductor*%
%ADD39C,0.500000*%
%TD*%
%TA.AperFunction,Conductor*%
%ADD40C,2.000000*%
%TD*%
%TA.AperFunction,Conductor*%
%ADD41C,0.330000*%
%TD*%
G04 APERTURE END LIST*
D10*
%TO.P,H2,1,1*%
%TO.N,GND*%
X92138800Y-137109200D03*
X92841744Y-135412144D03*
X92841744Y-138806256D03*
X94538800Y-134709200D03*
D11*
X94538800Y-137109200D03*
D10*
X94538800Y-139509200D03*
X96235856Y-135412144D03*
X96235856Y-138806256D03*
X96938800Y-137109200D03*
%TD*%
D12*
%TO.P,C3,1*%
%TO.N,18V*%
X175895000Y-132384800D03*
%TO.P,C3,2*%
%TO.N,GND*%
X175895000Y-134459800D03*
%TD*%
D13*
%TO.P,C4,1*%
%TO.N,18V*%
X178992149Y-129692400D03*
D14*
%TO.P,C4,2*%
%TO.N,GND*%
X182492149Y-129692400D03*
%TD*%
D10*
%TO.P,H3,1,1*%
%TO.N,GND*%
X181750000Y-45720000D03*
X182452944Y-44022944D03*
X182452944Y-47417056D03*
X184150000Y-43320000D03*
D11*
X184150000Y-45720000D03*
D10*
X184150000Y-48120000D03*
X185847056Y-44022944D03*
X185847056Y-47417056D03*
X186550000Y-45720000D03*
%TD*%
D15*
%TO.P,J2,1,Pin_1*%
%TO.N,GND*%
X129356800Y-132033600D03*
D16*
%TO.P,J2,2,Pin_2*%
%TO.N,Net-(IC1-A10)*%
X131856800Y-132033600D03*
%TD*%
D17*
%TO.P,D1,1,K*%
%TO.N,Net-(D1-K)*%
X177019200Y-123444000D03*
%TO.P,D1,2,A*%
%TO.N,GND*%
X181019200Y-123444000D03*
%TD*%
D18*
%TO.P,R3,1*%
%TO.N,18V*%
X176784000Y-137972800D03*
%TO.P,R3,2*%
%TO.N,Net-(U1-EN)*%
X176784000Y-139622800D03*
%TD*%
D12*
%TO.P,C5,1*%
%TO.N,5V*%
X169164000Y-137443300D03*
%TO.P,C5,2*%
%TO.N,GND*%
X169164000Y-139518300D03*
%TD*%
D19*
%TO.P,JP1,1,Vin*%
%TO.N,/3.3V*%
X106372000Y-132080000D03*
D20*
%TO.P,JP1,2,GND*%
%TO.N,GND*%
X108872000Y-132080000D03*
%TO.P,JP1,3,SCL*%
%TO.N,/SCL*%
X111372000Y-132080000D03*
%TO.P,JP1,4,SDA*%
%TO.N,/SDA*%
X113872000Y-132080000D03*
%TO.P,JP1,5,GPIO*%
%TO.N,/GPIO*%
X116372000Y-132080000D03*
%TO.P,JP1,6,XSHUT*%
%TO.N,/XSHUT*%
X118872000Y-132080000D03*
%TD*%
D21*
%TO.P,R6,1*%
%TO.N,Net-(Q1-G)*%
X149500000Y-89597500D03*
%TO.P,R6,2*%
%TO.N,GND*%
X149500000Y-88402500D03*
%TD*%
D22*
%TO.P,J6,01,01*%
%TO.N,GND*%
X185012800Y-117845300D03*
D23*
%TO.P,J6,02,02*%
%TO.N,Net-(F1-Pad1)*%
X185012800Y-114345300D03*
%TD*%
D24*
%TO.P,U1,1,BOOT*%
%TO.N,Net-(U1-BOOT)*%
X167367500Y-131254800D03*
%TO.P,U1,2,NC*%
%TO.N,unconnected-(U1-NC-Pad2)*%
X167367500Y-132524800D03*
%TO.P,U1,3,NC*%
%TO.N,unconnected-(U1-NC-Pad3)*%
X167367500Y-133794800D03*
%TO.P,U1,4,FB*%
%TO.N,5V*%
X167367500Y-135064800D03*
%TO.P,U1,5,EN*%
%TO.N,Net-(U1-EN)*%
X172927500Y-135064800D03*
%TO.P,U1,6,GND*%
%TO.N,GND*%
X172927500Y-133794800D03*
%TO.P,U1,7,VIN*%
%TO.N,18V*%
X172927500Y-132524800D03*
%TO.P,U1,8,SW*%
%TO.N,Net-(D1-K)*%
X172927500Y-131254800D03*
D25*
%TO.P,U1,9,EP*%
%TO.N,GND*%
X169545000Y-132384800D03*
X169545000Y-133934800D03*
X170750000Y-132384800D03*
X170750000Y-133934800D03*
%TD*%
D26*
%TO.P,L1,1,1*%
%TO.N,Net-(D1-K)*%
X173330000Y-124764800D03*
%TO.P,L1,2,2*%
%TO.N,5V*%
X167030000Y-124764800D03*
%TD*%
D10*
%TO.P,H4,1,1*%
%TO.N,GND*%
X181890000Y-137160000D03*
X182592944Y-135462944D03*
X182592944Y-138857056D03*
X184290000Y-134760000D03*
D11*
X184290000Y-137160000D03*
D10*
X184290000Y-139560000D03*
X185987056Y-135462944D03*
X185987056Y-138857056D03*
X186690000Y-137160000D03*
%TD*%
D22*
%TO.P,J1,01,01*%
%TO.N,18V*%
X185063600Y-93562900D03*
D23*
%TO.P,J1,02,02*%
%TO.N,Net-(D2-A)*%
X185063600Y-90062900D03*
%TD*%
D27*
%TO.P,U2,1,INPUT*%
%TO.N,18V*%
X170790000Y-108000000D03*
%TO.P,U2,2,GROUND*%
%TO.N,GND*%
X168250000Y-108000000D03*
%TO.P,U2,3,OUTPUT*%
%TO.N,5V*%
X165710000Y-108000000D03*
%TD*%
D28*
%TO.P,IC1,1,TX1*%
%TO.N,unconnected-(IC1-TX1-Pad1)*%
X99872800Y-109270800D03*
%TO.P,IC1,2,OUT2*%
%TO.N,Net-(IC1-OUT2)*%
X102412800Y-109270800D03*
%TO.P,IC1,3,LRCLK2*%
%TO.N,Net-(IC1-LRCLK2)*%
X104952800Y-109270800D03*
%TO.P,IC1,4,BCLK2*%
%TO.N,Net-(IC1-BCLK2)*%
X107492800Y-109270800D03*
%TO.P,IC1,5,IN2*%
%TO.N,Net-(IC1-IN2)*%
X110032800Y-109270800D03*
%TO.P,IC1,6,OUT1D*%
%TO.N,Net-(IC1-OUT1D)*%
X112572800Y-109270800D03*
%TO.P,IC1,7,RX2*%
%TO.N,Net-(IC1-RX2)*%
X115112800Y-109270800D03*
%TO.P,IC1,8,TX2*%
%TO.N,Net-(IC1-TX2)*%
X117652800Y-109270800D03*
%TO.P,IC1,9,OUT1C*%
%TO.N,unconnected-(IC1-OUT1C-Pad9)*%
X120192800Y-109270800D03*
%TO.P,IC1,10,CS_1*%
%TO.N,Net-(IC1-CS_1)*%
X122732800Y-109270800D03*
%TO.P,IC1,11,MOSI*%
%TO.N,/GPIO*%
X125272800Y-109270800D03*
%TO.P,IC1,12,MISO*%
%TO.N,/XSHUT*%
X127812800Y-109270800D03*
%TO.P,IC1,13,SCK*%
%TO.N,unconnected-(IC1-SCK-Pad13)*%
X127812800Y-94030800D03*
%TO.P,IC1,14,A0*%
%TO.N,unconnected-(IC1-A0-Pad14)*%
X125272800Y-94030800D03*
%TO.P,IC1,15,A1*%
%TO.N,unconnected-(IC1-A1-Pad15)*%
X122732800Y-94030800D03*
%TO.P,IC1,16,A2*%
%TO.N,unconnected-(IC1-A2-Pad16)*%
X120192800Y-94030800D03*
%TO.P,IC1,17,A3*%
%TO.N,unconnected-(IC1-A3-Pad17)*%
X117652800Y-94030800D03*
%TO.P,IC1,18,A4*%
%TO.N,/SDA*%
X115112800Y-94030800D03*
%TO.P,IC1,19,A5*%
%TO.N,/SCL*%
X112572800Y-94030800D03*
%TO.P,IC1,20,A6*%
%TO.N,unconnected-(IC1-A6-Pad20)*%
X110032800Y-94030800D03*
%TO.P,IC1,21,A7*%
%TO.N,unconnected-(IC1-A7-Pad21)*%
X107492800Y-94030800D03*
%TO.P,IC1,22,A8*%
%TO.N,Net-(IC1-A8)*%
X104952800Y-94030800D03*
%TO.P,IC1,23,A9*%
%TO.N,Net-(IC1-A9)*%
X102412800Y-94030800D03*
%TO.P,IC1,24,A10*%
%TO.N,Net-(IC1-A10)*%
X132892800Y-109270800D03*
%TO.P,IC1,25,A11*%
%TO.N,Net-(IC1-A11)*%
X135432800Y-109270800D03*
%TO.P,IC1,26,A12*%
%TO.N,Net-(IC1-A12)*%
X137972800Y-109270800D03*
%TO.P,IC1,27,A13*%
%TO.N,unconnected-(IC1-A13-Pad27)*%
X140512800Y-109270800D03*
%TO.P,IC1,28,RX7*%
%TO.N,unconnected-(IC1-RX7-Pad28)*%
X143052800Y-109270800D03*
%TO.P,IC1,29,TX7*%
%TO.N,unconnected-(IC1-TX7-Pad29)*%
X145592800Y-109270800D03*
%TO.P,IC1,30,CRX3*%
%TO.N,unconnected-(IC1-CRX3-Pad30)*%
X148132800Y-109270800D03*
%TO.P,IC1,31,CTX3*%
%TO.N,unconnected-(IC1-CTX3-Pad31)*%
X150672800Y-109270800D03*
%TO.P,IC1,32,OUT1B*%
%TO.N,unconnected-(IC1-OUT1B-Pad32)*%
X153212800Y-109270800D03*
%TO.P,IC1,33,MCLK2*%
%TO.N,Solenoid Switch*%
X153212800Y-94030800D03*
%TO.P,IC1,34,RX8*%
%TO.N,unconnected-(IC1-RX8-Pad34)*%
X150672800Y-94030800D03*
%TO.P,IC1,35,TX8*%
%TO.N,unconnected-(IC1-TX8-Pad35)*%
X148132800Y-94030800D03*
%TO.P,IC1,36,CS_2*%
%TO.N,unconnected-(IC1-CS_2-Pad36)*%
X145592800Y-94030800D03*
%TO.P,IC1,37,CS_3*%
%TO.N,unconnected-(IC1-CS_3-Pad37)*%
X143052800Y-94030800D03*
%TO.P,IC1,38,A14*%
%TO.N,unconnected-(IC1-A14-Pad38)*%
X140512800Y-94030800D03*
%TO.P,IC1,39,A15*%
%TO.N,unconnected-(IC1-A15-Pad39)*%
X137972800Y-94030800D03*
%TO.P,IC1,40,A16*%
%TO.N,unconnected-(IC1-A16-Pad40)*%
X135432800Y-94030800D03*
%TO.P,IC1,41,A17*%
%TO.N,unconnected-(IC1-A17-Pad41)*%
X132892800Y-94030800D03*
%TO.P,IC1,42,3.3V_1*%
%TO.N,/3.3V*%
X130352800Y-109270800D03*
%TO.P,IC1,53,3.3V_(250_M_A_MAX)*%
%TO.N,unconnected-(IC1-3.3V_(250_M_A_MAX)-Pad53)*%
X99872800Y-94030800D03*
%TO.P,IC1,55,VIN_(3.6_TO_5.5_VOLTS)*%
%TO.N,5V*%
X94792800Y-94030800D03*
%TO.P,IC1,57,RX1*%
%TO.N,unconnected-(IC1-RX1-Pad57)*%
X97332800Y-109270800D03*
%TO.P,IC1,69,GND_4*%
%TO.N,GND*%
X130352800Y-94030800D03*
%TO.P,IC1,70,GND_5*%
X97332800Y-94030800D03*
%TO.P,IC1,71,GND_6*%
X94792800Y-109270800D03*
%TD*%
D29*
%TO.P,C1,1*%
%TO.N,Net-(D1-K)*%
X170747500Y-129336800D03*
%TO.P,C1,2*%
%TO.N,Net-(U1-BOOT)*%
X169612500Y-129336800D03*
%TD*%
D22*
%TO.P,J5,01,01*%
%TO.N,Net-(F1-Pad2)*%
X185114400Y-102960900D03*
D23*
%TO.P,J5,02,02*%
%TO.N,18V*%
X185114400Y-99460900D03*
%TD*%
D30*
%TO.P,F1,1*%
%TO.N,Net-(F1-Pad1)*%
X185064400Y-110112000D03*
%TO.P,F1,2*%
%TO.N,Net-(F1-Pad2)*%
X185064400Y-107312000D03*
%TD*%
D10*
%TO.P,H1,1,1*%
%TO.N,GND*%
X92138800Y-45669200D03*
X92841744Y-43972144D03*
X92841744Y-47366256D03*
X94538800Y-43269200D03*
D11*
X94538800Y-45669200D03*
D10*
X94538800Y-48069200D03*
X96235856Y-43972144D03*
X96235856Y-47366256D03*
X96938800Y-45669200D03*
%TD*%
D31*
%TO.P,Q1,1,G*%
%TO.N,Net-(Q1-G)*%
X165760000Y-88945000D03*
D32*
%TO.P,Q1,2,D*%
%TO.N,Net-(D2-A)*%
X168300000Y-88945000D03*
%TO.P,Q1,3,S*%
%TO.N,GND*%
X170840000Y-88945000D03*
%TD*%
D15*
%TO.P,J4,1,Pin_1*%
%TO.N,GND*%
X153994800Y-132033600D03*
D16*
%TO.P,J4,2,Pin_2*%
%TO.N,Net-(IC1-A12)*%
X156494800Y-132033600D03*
%TD*%
D15*
%TO.P,J3,1,Pin_1*%
%TO.N,GND*%
X142310800Y-132033600D03*
D16*
%TO.P,J3,2,Pin_2*%
%TO.N,Net-(IC1-A11)*%
X144810800Y-132033600D03*
%TD*%
D18*
%TO.P,R5,1*%
%TO.N,Net-(U1-EN)*%
X174274000Y-137972800D03*
%TO.P,R5,2*%
%TO.N,GND*%
X174274000Y-139622800D03*
%TD*%
D21*
%TO.P,R7,1*%
%TO.N,Solenoid Switch*%
X151300000Y-91097500D03*
%TO.P,R7,2*%
%TO.N,Net-(Q1-G)*%
X151300000Y-89902500D03*
%TD*%
D13*
%TO.P,C2,1*%
%TO.N,5V*%
X163068000Y-135972800D03*
D14*
%TO.P,C2,2*%
%TO.N,GND*%
X163068000Y-137972800D03*
%TD*%
D33*
%TO.P,D2,1,K*%
%TO.N,18V*%
X178541800Y-95656400D03*
D34*
%TO.P,D2,2,A*%
%TO.N,Net-(D2-A)*%
X178541800Y-90576400D03*
%TD*%
D35*
%TO.P,DS1,1_1,VSS*%
%TO.N,GND*%
X173939200Y-50802000D03*
%TO.P,DS1,1_2,VSS*%
X173939200Y-82802000D03*
%TO.P,DS1,2_1,VDD*%
%TO.N,VDD*%
X171399200Y-50802000D03*
%TO.P,DS1,2_2,VDD*%
X171399200Y-82802000D03*
%TO.P,DS1,3_1,V0*%
%TO.N,V0*%
X168859200Y-50802000D03*
%TO.P,DS1,3_2,V0*%
X168859200Y-82802000D03*
%TO.P,DS1,4_1,RS*%
%TO.N,Net-(IC1-CS_1)*%
X166319200Y-50802000D03*
%TO.P,DS1,4_2,RS*%
X166319200Y-82802000D03*
%TO.P,DS1,5_1,R/W*%
%TO.N,GND*%
X163779200Y-50802000D03*
%TO.P,DS1,5_2,R/W*%
X163779200Y-82802000D03*
%TO.P,DS1,6_1,E*%
%TO.N,Net-(IC1-TX2)*%
X161239200Y-50802000D03*
%TO.P,DS1,6_2,E*%
X161239200Y-82802000D03*
%TO.P,DS1,7_1,DB0*%
%TO.N,Net-(IC1-RX2)*%
X158699200Y-50802000D03*
%TO.P,DS1,7_2,DB0*%
X158699200Y-82802000D03*
%TO.P,DS1,8_1,DB1*%
%TO.N,Net-(IC1-OUT1D)*%
X156159200Y-50802000D03*
%TO.P,DS1,8_2,DB1*%
X156159200Y-82802000D03*
%TO.P,DS1,9_1,DB2*%
%TO.N,Net-(IC1-IN2)*%
X153619200Y-50802000D03*
%TO.P,DS1,9_2,DB2*%
X153619200Y-82802000D03*
%TO.P,DS1,10_1,DB3*%
%TO.N,Net-(IC1-BCLK2)*%
X151079200Y-50802000D03*
%TO.P,DS1,10_2,DB3*%
X151079200Y-82802000D03*
%TO.P,DS1,11_1,DB4*%
%TO.N,Net-(IC1-LRCLK2)*%
X148539200Y-50802000D03*
%TO.P,DS1,11_2,DB4*%
X148539200Y-82802000D03*
%TO.P,DS1,12_1,DB5*%
%TO.N,Net-(IC1-OUT2)*%
X145999200Y-50802000D03*
%TO.P,DS1,12_2,DB5*%
X145999200Y-82802000D03*
%TO.P,DS1,13_1,DB6*%
%TO.N,Net-(IC1-A8)*%
X143459200Y-50802000D03*
%TO.P,DS1,13_2,DB6*%
X143459200Y-82802000D03*
%TO.P,DS1,14_1,DB7*%
%TO.N,Net-(IC1-A9)*%
X140919200Y-50802000D03*
%TO.P,DS1,14_2,DB7*%
X140919200Y-82802000D03*
%TO.P,DS1,15_1*%
%TO.N,GND*%
X138379200Y-50802000D03*
%TO.P,DS1,15_2*%
X138379200Y-82802000D03*
%TO.P,DS1,16_1*%
X135839200Y-50802000D03*
%TO.P,DS1,16_2*%
X135839200Y-82802000D03*
D36*
%TO.P,DS1,S1,SHIELD*%
%TO.N,Net-(DS1-SHIELD-PadS1)*%
X179439200Y-82302000D03*
%TO.P,DS1,S2,SHIELD*%
X104439200Y-82302000D03*
%TO.P,DS1,S3,SHIELD*%
X179439200Y-51302000D03*
%TO.P,DS1,S4,SHIELD*%
X104439200Y-51302000D03*
%TD*%
D37*
%TO.N,18V*%
X179700000Y-99800000D03*
D38*
%TO.N,5V*%
X158100000Y-104100000D03*
D37*
%TO.N,Net-(D2-A)*%
X168300000Y-86700000D03*
X171600000Y-86000000D03*
X175032700Y-87067300D03*
X177432700Y-89467300D03*
D38*
%TO.N,Net-(Q1-G)*%
X152000000Y-89900000D03*
D37*
%TO.N,GND*%
X148500000Y-87400000D03*
X181019200Y-123444000D03*
X170750000Y-133934800D03*
X169164000Y-139518300D03*
X169545000Y-132384800D03*
X172927500Y-133794800D03*
X175810000Y-134374800D03*
X169545000Y-133934800D03*
X174274000Y-139622800D03*
X170750000Y-132384800D03*
%TO.N,18V*%
X182880000Y-93522800D03*
X187604400Y-93827600D03*
X176530000Y-97180400D03*
X185064400Y-96418400D03*
X187553600Y-96469200D03*
X180797200Y-93116400D03*
X182727600Y-99314000D03*
X182219600Y-96215200D03*
X176530000Y-94081600D03*
X187452000Y-99060000D03*
%TO.N,/SCL*%
X103581200Y-96367600D03*
X108508800Y-127254000D03*
X101854000Y-98145600D03*
%TO.N,/SDA*%
X114706400Y-98856800D03*
X109270800Y-126644400D03*
%TO.N,/3.3V*%
X123444000Y-113690400D03*
X128879600Y-113538000D03*
%TO.N,5V*%
X151282400Y-97332800D03*
%TO.N,Net-(D2-A)*%
X179628800Y-90062900D03*
X183896000Y-90062900D03*
%TO.N,Net-(F1-Pad1)*%
X185470800Y-110642400D03*
X185012800Y-113284000D03*
X185064400Y-110112000D03*
X184658000Y-110642400D03*
%TO.N,Net-(F1-Pad2)*%
X185064400Y-103886000D03*
X185064400Y-107312000D03*
X184607200Y-106934000D03*
X185521600Y-106934000D03*
%TD*%
D39*
%TO.N,18V*%
X187452000Y-121232549D02*
X187452000Y-99060000D01*
X178992149Y-129692400D02*
X187452000Y-121232549D01*
X170790000Y-108000000D02*
X178990000Y-99800000D01*
X178990000Y-99800000D02*
X179700000Y-99800000D01*
%TO.N,5V*%
X165710000Y-108000000D02*
X163950000Y-109760000D01*
X163950000Y-109950000D02*
X167030000Y-113030000D01*
X163950000Y-109760000D02*
X163950000Y-109950000D01*
X158100000Y-104100000D02*
X163950000Y-109950000D01*
X167030000Y-113030000D02*
X167030000Y-124764800D01*
D40*
%TO.N,Net-(D2-A)*%
X169000000Y-86000000D02*
X173965400Y-86000000D01*
X168300000Y-86700000D02*
X169000000Y-86000000D01*
X173965400Y-86000000D02*
X178541800Y-90576400D01*
X168300000Y-88945000D02*
X168300000Y-86700000D01*
D41*
%TO.N,Net-(Q1-G)*%
X151997500Y-89902500D02*
X152000000Y-89900000D01*
X151300000Y-89902500D02*
X151997500Y-89902500D01*
X150995000Y-89597500D02*
X151300000Y-89902500D01*
X149500000Y-89597500D02*
X150995000Y-89597500D01*
%TO.N,GND*%
X149500000Y-88400000D02*
X148500000Y-87400000D01*
X149500000Y-88402500D02*
X149500000Y-88400000D01*
%TO.N,Solenoid Switch*%
X153212800Y-93010300D02*
X151300000Y-91097500D01*
X153212800Y-94030800D02*
X153212800Y-93010300D01*
%TO.N,Net-(IC1-A9)*%
X133754400Y-89966800D02*
X140919200Y-82802000D01*
X106476800Y-89966800D02*
X133754400Y-89966800D01*
X140919200Y-50802000D02*
X140919200Y-82802000D01*
X102412800Y-94030800D02*
X106476800Y-89966800D01*
D39*
%TO.N,GND*%
X175810000Y-134374800D02*
X175895000Y-134459800D01*
X175230000Y-133794800D02*
X175810000Y-134374800D01*
X176360000Y-134924800D02*
X175895000Y-134459800D01*
X172927500Y-133794800D02*
X175230000Y-133794800D01*
D41*
%TO.N,Net-(IC1-RX2)*%
X115112800Y-109270800D02*
X119329200Y-105054400D01*
X119329200Y-105054400D02*
X153416000Y-105054400D01*
X153416000Y-105054400D02*
X161340800Y-97129600D01*
X161340800Y-97129600D02*
X161340800Y-85443600D01*
X161340800Y-85443600D02*
X158699200Y-82802000D01*
X158699200Y-50802000D02*
X158699200Y-82802000D01*
%TO.N,Net-(IC1-A8)*%
X135329200Y-90932000D02*
X143459200Y-82802000D01*
X143459200Y-50802000D02*
X143459200Y-82802000D01*
X108051600Y-90932000D02*
X135329200Y-90932000D01*
X104952800Y-94030800D02*
X108051600Y-90932000D01*
%TO.N,Net-(IC1-OUT2)*%
X156210000Y-93012800D02*
X145999200Y-82802000D01*
X111861600Y-99822000D02*
X151333200Y-99822000D01*
X145999200Y-50802000D02*
X145999200Y-82802000D01*
X102412800Y-109270800D02*
X111861600Y-99822000D01*
X156210000Y-94945200D02*
X156210000Y-93012800D01*
X151333200Y-99822000D02*
X156210000Y-94945200D01*
%TO.N,VDD*%
X171399200Y-50802000D02*
X171399200Y-82802000D01*
%TO.N,Net-(IC1-OUT1D)*%
X160528000Y-96520000D02*
X160528000Y-87170800D01*
X112572800Y-109270800D02*
X117805200Y-104038400D01*
X156159200Y-50802000D02*
X156159200Y-82802000D01*
X117805200Y-104038400D02*
X153009600Y-104038400D01*
X160528000Y-87170800D02*
X156159200Y-82802000D01*
X153009600Y-104038400D02*
X160528000Y-96520000D01*
%TO.N,Net-(IC1-LRCLK2)*%
X151638000Y-101142800D02*
X157073600Y-95707200D01*
X157073600Y-95707200D02*
X157073600Y-91287600D01*
X149758400Y-83972400D02*
X149709600Y-83972400D01*
X113080800Y-101142800D02*
X151638000Y-101142800D01*
X148539200Y-50802000D02*
X148539200Y-82802000D01*
X104952800Y-109270800D02*
X113080800Y-101142800D01*
X149709600Y-83972400D02*
X148539200Y-82802000D01*
X157073600Y-91287600D02*
X149758400Y-83972400D01*
%TO.N,Net-(IC1-IN2)*%
X159613600Y-96113600D02*
X159613600Y-88796400D01*
X159613600Y-88796400D02*
X153619200Y-82802000D01*
X110032800Y-109270800D02*
X116230400Y-103073200D01*
X152654000Y-103073200D02*
X159613600Y-96113600D01*
X116230400Y-103073200D02*
X152654000Y-103073200D01*
X153619200Y-50802000D02*
X153619200Y-82802000D01*
%TO.N,Net-(IC1-BCLK2)*%
X114554000Y-102209600D02*
X107492800Y-109270800D01*
X158394400Y-90830400D02*
X158394400Y-95859600D01*
X152044400Y-102209600D02*
X114554000Y-102209600D01*
X158394400Y-95859600D02*
X152044400Y-102209600D01*
X151079200Y-50802000D02*
X151079200Y-82802000D01*
X151079200Y-82802000D02*
X151079200Y-83515200D01*
X151079200Y-83515200D02*
X158394400Y-90830400D01*
%TO.N,Net-(IC1-TX2)*%
X153771600Y-106019600D02*
X162153600Y-97637600D01*
X162153600Y-83716400D02*
X161239200Y-82802000D01*
X117652800Y-109270800D02*
X120904000Y-106019600D01*
X162153600Y-97637600D02*
X162153600Y-83716400D01*
X120904000Y-106019600D02*
X153771600Y-106019600D01*
X161239200Y-50802000D02*
X161239200Y-82802000D01*
%TO.N,Net-(IC1-CS_1)*%
X166319200Y-50802000D02*
X166319200Y-82802000D01*
X163220400Y-97942400D02*
X163220400Y-85900800D01*
X122732800Y-109270800D02*
X124917200Y-107086400D01*
X124917200Y-107086400D02*
X154076400Y-107086400D01*
X163220400Y-85900800D02*
X166319200Y-82802000D01*
X154076400Y-107086400D02*
X163220400Y-97942400D01*
%TO.N,V0*%
X168859200Y-50802000D02*
X168859200Y-82802000D01*
D39*
%TO.N,18V*%
X177444400Y-137972800D02*
X177698400Y-137718800D01*
X178587400Y-129692400D02*
X175895000Y-132384800D01*
X177698400Y-137718800D02*
X177698400Y-134188200D01*
D41*
X178992149Y-129692400D02*
X178587400Y-129692400D01*
D39*
X176784000Y-137972800D02*
X177444400Y-137972800D01*
D40*
X185114400Y-93613700D02*
X185063600Y-93562900D01*
D39*
X173067500Y-132384800D02*
X172927500Y-132524800D01*
X175895000Y-132384800D02*
X173067500Y-132384800D01*
X177698400Y-134188200D02*
X175895000Y-132384800D01*
D41*
%TO.N,/SCL*%
X105613200Y-124358400D02*
X104597200Y-124358400D01*
X91287600Y-111658400D02*
X91287600Y-108712000D01*
X103987600Y-124358400D02*
X91440000Y-111810800D01*
X112572800Y-95300800D02*
X112572800Y-94030800D01*
X103581200Y-96367600D02*
X111506000Y-96367600D01*
X91287600Y-108712000D02*
X101854000Y-98145600D01*
X108508800Y-127254000D02*
X105613200Y-124358400D01*
X91440000Y-111810800D02*
X91287600Y-111658400D01*
X104597200Y-124358400D02*
X103987600Y-124358400D01*
X111506000Y-96367600D02*
X112572800Y-95300800D01*
%TO.N,Net-(U1-BOOT)*%
X167694500Y-131254800D02*
X169612500Y-129336800D01*
X167367500Y-131254800D02*
X167694500Y-131254800D01*
%TO.N,/SDA*%
X92405200Y-111556800D02*
X92405200Y-109016800D01*
X104394000Y-123545600D02*
X92405200Y-111556800D01*
X109270800Y-126644400D02*
X106172000Y-123545600D01*
X106172000Y-123545600D02*
X104394000Y-123545600D01*
X114706400Y-98856800D02*
X102565200Y-98856800D01*
X92405200Y-109016800D02*
X95123000Y-106299000D01*
X102565200Y-98856800D02*
X95123000Y-106299000D01*
X95250000Y-106172000D02*
X95300800Y-106172000D01*
X95123000Y-106299000D02*
X95250000Y-106172000D01*
%TO.N,Net-(IC1-A12)*%
X156494800Y-127792800D02*
X156494800Y-132033600D01*
X137972800Y-109270800D02*
X156494800Y-127792800D01*
%TO.N,/GPIO*%
X116372000Y-124013600D02*
X125272800Y-115112800D01*
X125272800Y-115112800D02*
X125272800Y-109270800D01*
X116372000Y-132080000D02*
X116372000Y-124013600D01*
%TO.N,/XSHUT*%
X118872000Y-124256800D02*
X127812800Y-115316000D01*
X118872000Y-132080000D02*
X118872000Y-124256800D01*
X127812800Y-115316000D02*
X127812800Y-109270800D01*
%TO.N,/3.3V*%
X106372000Y-130762400D02*
X123444000Y-113690400D01*
X128879600Y-113436400D02*
X130352800Y-111963200D01*
X130352800Y-111963200D02*
X130352800Y-109270800D01*
X106372000Y-132080000D02*
X106372000Y-130762400D01*
X128879600Y-113538000D02*
X128879600Y-113436400D01*
%TO.N,Net-(D1-K)*%
X174650800Y-123444000D02*
X173330000Y-124764800D01*
D39*
X170747500Y-129336800D02*
X171009500Y-129336800D01*
X170747500Y-129336800D02*
X170747500Y-127347300D01*
X170747500Y-127347300D02*
X173330000Y-124764800D01*
D41*
X177019200Y-123444000D02*
X174650800Y-123444000D01*
D39*
X171009500Y-129336800D02*
X172927500Y-131254800D01*
%TO.N,5V*%
X165608000Y-126186800D02*
X165608000Y-135064800D01*
X165608000Y-135064800D02*
X163976000Y-135064800D01*
X169164000Y-137443300D02*
X169164000Y-136861300D01*
X98094800Y-97332800D02*
X151282400Y-97332800D01*
X167030000Y-124764800D02*
X165608000Y-126186800D01*
X163976000Y-135064800D02*
X163068000Y-135972800D01*
X94792800Y-94030800D02*
X98094800Y-97332800D01*
X167367500Y-135064800D02*
X165608000Y-135064800D01*
X169164000Y-136861300D02*
X167367500Y-135064800D01*
D41*
%TO.N,Net-(IC1-A10)*%
X132892800Y-109270800D02*
X132892800Y-130997600D01*
X132892800Y-130997600D02*
X131856800Y-132033600D01*
D39*
%TO.N,Net-(U1-EN)*%
X174274000Y-137972800D02*
X174274000Y-136411300D01*
X176402000Y-139622800D02*
X174752000Y-137972800D01*
X174274000Y-136411300D02*
X172927500Y-135064800D01*
X176784000Y-139622800D02*
X176402000Y-139622800D01*
X174752000Y-137972800D02*
X174274000Y-137972800D01*
D41*
%TO.N,Net-(IC1-A11)*%
X144810800Y-132033600D02*
X144810800Y-118648800D01*
X144810800Y-118648800D02*
X135432800Y-109270800D01*
D40*
%TO.N,Net-(D2-A)*%
X179055300Y-90062900D02*
X185063600Y-90062900D01*
X178541800Y-90576400D02*
X179055300Y-90062900D01*
%TO.N,Net-(F1-Pad1)*%
X185012800Y-113284000D02*
X185012800Y-110163600D01*
X185012800Y-110163600D02*
X185064400Y-110112000D01*
X185012800Y-114345300D02*
X185012800Y-113284000D01*
%TO.N,Net-(F1-Pad2)*%
X185064400Y-103886000D02*
X185064400Y-103010900D01*
X185064400Y-103010900D02*
X185114400Y-102960900D01*
X185064400Y-107312000D02*
X185064400Y-103886000D01*
%TD*%
%TA.AperFunction,Conductor*%
%TO.N,18V*%
G36*
X186197677Y-91459685D02*
G01*
X186218319Y-91476319D01*
X188279281Y-93537281D01*
X188312766Y-93598604D01*
X188315600Y-93624962D01*
X188315600Y-99313438D01*
X188295915Y-99380477D01*
X188279281Y-99401119D01*
X186523119Y-101157281D01*
X186461796Y-101190766D01*
X186435438Y-101193600D01*
X179680162Y-101193600D01*
X179613123Y-101173915D01*
X179592481Y-101157281D01*
X177791820Y-99356620D01*
X183789400Y-99356620D01*
X183789400Y-99565179D01*
X183822026Y-99771172D01*
X183886475Y-99969527D01*
X183981159Y-100155351D01*
X184017027Y-100204718D01*
X184017027Y-100204719D01*
X184590612Y-99631134D01*
X184601882Y-99673192D01*
X184674290Y-99798608D01*
X184776692Y-99901010D01*
X184902108Y-99973418D01*
X184944165Y-99984687D01*
X184370579Y-100558271D01*
X184370580Y-100558272D01*
X184419943Y-100594136D01*
X184419956Y-100594144D01*
X184605772Y-100688824D01*
X184804127Y-100753273D01*
X185010121Y-100785900D01*
X185218679Y-100785900D01*
X185424672Y-100753273D01*
X185623027Y-100688824D01*
X185808851Y-100594140D01*
X185858218Y-100558272D01*
X185858218Y-100558271D01*
X185284634Y-99984687D01*
X185326692Y-99973418D01*
X185452108Y-99901010D01*
X185554510Y-99798608D01*
X185626918Y-99673192D01*
X185638187Y-99631134D01*
X186211771Y-100204718D01*
X186211772Y-100204718D01*
X186247640Y-100155351D01*
X186342324Y-99969527D01*
X186406773Y-99771172D01*
X186439400Y-99565179D01*
X186439400Y-99356620D01*
X186406773Y-99150627D01*
X186342324Y-98952272D01*
X186247644Y-98766456D01*
X186247636Y-98766443D01*
X186211772Y-98717080D01*
X186211771Y-98717079D01*
X185638187Y-99290664D01*
X185626918Y-99248608D01*
X185554510Y-99123192D01*
X185452108Y-99020790D01*
X185326692Y-98948382D01*
X185284633Y-98937112D01*
X185858219Y-98363527D01*
X185808851Y-98327659D01*
X185623027Y-98232975D01*
X185424672Y-98168526D01*
X185218679Y-98135900D01*
X185010121Y-98135900D01*
X184804127Y-98168526D01*
X184605772Y-98232975D01*
X184419952Y-98327657D01*
X184370580Y-98363527D01*
X184944166Y-98937112D01*
X184902108Y-98948382D01*
X184776692Y-99020790D01*
X184674290Y-99123192D01*
X184601882Y-99248608D01*
X184590612Y-99290665D01*
X184017027Y-98717080D01*
X183981157Y-98766452D01*
X183886475Y-98952272D01*
X183822026Y-99150627D01*
X183789400Y-99356620D01*
X177791820Y-99356620D01*
X175956719Y-97521519D01*
X175923234Y-97460196D01*
X175920400Y-97433838D01*
X175920400Y-94608555D01*
X177041800Y-94608555D01*
X177041800Y-95406400D01*
X178051052Y-95406400D01*
X178029282Y-95444108D01*
X177991800Y-95583991D01*
X177991800Y-95728809D01*
X178029282Y-95868692D01*
X178051052Y-95906400D01*
X177041800Y-95906400D01*
X177041800Y-96704244D01*
X177048201Y-96763772D01*
X177048203Y-96763779D01*
X177098445Y-96898486D01*
X177098449Y-96898493D01*
X177184609Y-97013587D01*
X177184612Y-97013590D01*
X177299706Y-97099750D01*
X177299713Y-97099754D01*
X177434420Y-97149996D01*
X177434427Y-97149998D01*
X177493955Y-97156399D01*
X177493972Y-97156400D01*
X178291800Y-97156400D01*
X178291800Y-96147147D01*
X178329508Y-96168918D01*
X178469391Y-96206400D01*
X178614209Y-96206400D01*
X178754092Y-96168918D01*
X178791800Y-96147147D01*
X178791800Y-97156400D01*
X179589628Y-97156400D01*
X179589644Y-97156399D01*
X179649172Y-97149998D01*
X179649179Y-97149996D01*
X179783886Y-97099754D01*
X179783893Y-97099750D01*
X179898987Y-97013590D01*
X179898990Y-97013587D01*
X179985150Y-96898493D01*
X179985154Y-96898486D01*
X180035396Y-96763779D01*
X180035398Y-96763772D01*
X180041799Y-96704244D01*
X180041800Y-96704227D01*
X180041800Y-95906400D01*
X179032548Y-95906400D01*
X179054318Y-95868692D01*
X179091800Y-95728809D01*
X179091800Y-95583991D01*
X179054318Y-95444108D01*
X179032548Y-95406400D01*
X180041800Y-95406400D01*
X180041800Y-94608572D01*
X180041799Y-94608555D01*
X180035398Y-94549027D01*
X180035396Y-94549020D01*
X179985154Y-94414313D01*
X179985150Y-94414306D01*
X179898990Y-94299212D01*
X179898987Y-94299209D01*
X179783893Y-94213049D01*
X179783886Y-94213045D01*
X179649179Y-94162803D01*
X179649172Y-94162801D01*
X179589644Y-94156400D01*
X178791800Y-94156400D01*
X178791800Y-95165652D01*
X178754092Y-95143882D01*
X178614209Y-95106400D01*
X178469391Y-95106400D01*
X178329508Y-95143882D01*
X178291800Y-95165652D01*
X178291800Y-94156400D01*
X177493955Y-94156400D01*
X177434427Y-94162801D01*
X177434420Y-94162803D01*
X177299713Y-94213045D01*
X177299706Y-94213049D01*
X177184612Y-94299209D01*
X177184609Y-94299212D01*
X177098449Y-94414306D01*
X177098445Y-94414313D01*
X177048203Y-94549020D01*
X177048201Y-94549027D01*
X177041800Y-94608555D01*
X175920400Y-94608555D01*
X175920400Y-94082162D01*
X175940085Y-94015123D01*
X175956719Y-93994481D01*
X176442881Y-93508319D01*
X176504204Y-93474834D01*
X176530562Y-93472000D01*
X179781200Y-93472000D01*
X180563145Y-92690055D01*
X183738600Y-92690055D01*
X183738600Y-93312900D01*
X184572852Y-93312900D01*
X184551082Y-93350608D01*
X184513600Y-93490491D01*
X184513600Y-93635309D01*
X184551082Y-93775192D01*
X184572852Y-93812900D01*
X183738600Y-93812900D01*
X183738600Y-94435744D01*
X183745001Y-94495272D01*
X183745003Y-94495279D01*
X183795245Y-94629986D01*
X183795249Y-94629993D01*
X183881409Y-94745087D01*
X183881412Y-94745090D01*
X183996506Y-94831250D01*
X183996513Y-94831254D01*
X184131220Y-94881496D01*
X184131227Y-94881498D01*
X184190755Y-94887899D01*
X184190772Y-94887900D01*
X184813600Y-94887900D01*
X184813600Y-94053647D01*
X184851308Y-94075418D01*
X184991191Y-94112900D01*
X185136009Y-94112900D01*
X185275892Y-94075418D01*
X185313600Y-94053647D01*
X185313600Y-94887900D01*
X185936428Y-94887900D01*
X185936444Y-94887899D01*
X185995972Y-94881498D01*
X185995979Y-94881496D01*
X186130686Y-94831254D01*
X186130693Y-94831250D01*
X186245787Y-94745090D01*
X186245790Y-94745087D01*
X186331950Y-94629993D01*
X186331954Y-94629986D01*
X186382196Y-94495279D01*
X186382198Y-94495272D01*
X186388599Y-94435744D01*
X186388600Y-94435727D01*
X186388600Y-93812900D01*
X185554348Y-93812900D01*
X185576118Y-93775192D01*
X185613600Y-93635309D01*
X185613600Y-93490491D01*
X185576118Y-93350608D01*
X185554348Y-93312900D01*
X186388600Y-93312900D01*
X186388600Y-92690072D01*
X186388599Y-92690055D01*
X186382198Y-92630527D01*
X186382196Y-92630520D01*
X186331954Y-92495813D01*
X186331950Y-92495806D01*
X186245790Y-92380712D01*
X186245787Y-92380709D01*
X186130693Y-92294549D01*
X186130686Y-92294545D01*
X185995979Y-92244303D01*
X185995972Y-92244301D01*
X185936444Y-92237900D01*
X185313600Y-92237900D01*
X185313600Y-93072152D01*
X185275892Y-93050382D01*
X185136009Y-93012900D01*
X184991191Y-93012900D01*
X184851308Y-93050382D01*
X184813600Y-93072152D01*
X184813600Y-92237900D01*
X184190755Y-92237900D01*
X184131227Y-92244301D01*
X184131220Y-92244303D01*
X183996513Y-92294545D01*
X183996506Y-92294549D01*
X183881412Y-92380709D01*
X183881409Y-92380712D01*
X183795249Y-92495806D01*
X183795245Y-92495813D01*
X183745003Y-92630520D01*
X183745001Y-92630527D01*
X183738600Y-92690055D01*
X180563145Y-92690055D01*
X181653481Y-91599719D01*
X181714804Y-91566234D01*
X181741162Y-91563400D01*
X185181697Y-91563400D01*
X185414968Y-91526453D01*
X185639592Y-91453468D01*
X185639599Y-91453463D01*
X185644091Y-91451604D01*
X185644395Y-91452339D01*
X185695793Y-91440000D01*
X186130638Y-91440000D01*
X186197677Y-91459685D01*
G37*
%TD.AperFunction*%
%TD*%
M02*
