%TF.GenerationSoftware,KiCad,Pcbnew,9.0.0*%
%TF.CreationDate,2026-02-26T13:37:48-05:00*%
%TF.ProjectId,CapstoneMk2,43617073-746f-46e6-954d-6b322e6b6963,rev?*%
%TF.SameCoordinates,Original*%
%TF.FileFunction,Legend,Top*%
%TF.FilePolarity,Positive*%
%FSLAX46Y46*%
G04 Gerber Fmt 4.6, Leading zero omitted, Abs format (unit mm)*
G04 Created by KiCad (PCBNEW 9.0.0) date 2026-02-26 13:37:48*
%MOMM*%
%LPD*%
G01*
G04 APERTURE LIST*
%ADD10C,0.150000*%
%ADD11C,0.254000*%
%ADD12C,0.000000*%
%ADD13C,0.120000*%
%ADD14C,0.200000*%
%ADD15C,0.127000*%
G04 APERTURE END LIST*
D10*
X103919819Y-123963333D02*
X104634104Y-123963333D01*
X104634104Y-123963333D02*
X104776961Y-124010952D01*
X104776961Y-124010952D02*
X104872200Y-124106190D01*
X104872200Y-124106190D02*
X104919819Y-124249047D01*
X104919819Y-124249047D02*
X104919819Y-124344285D01*
X104919819Y-123487142D02*
X103919819Y-123487142D01*
X103919819Y-123487142D02*
X103919819Y-123106190D01*
X103919819Y-123106190D02*
X103967438Y-123010952D01*
X103967438Y-123010952D02*
X104015057Y-122963333D01*
X104015057Y-122963333D02*
X104110295Y-122915714D01*
X104110295Y-122915714D02*
X104253152Y-122915714D01*
X104253152Y-122915714D02*
X104348390Y-122963333D01*
X104348390Y-122963333D02*
X104396009Y-123010952D01*
X104396009Y-123010952D02*
X104443628Y-123106190D01*
X104443628Y-123106190D02*
X104443628Y-123487142D01*
X104919819Y-121963333D02*
X104919819Y-122534761D01*
X104919819Y-122249047D02*
X103919819Y-122249047D01*
X103919819Y-122249047D02*
X104062676Y-122344285D01*
X104062676Y-122344285D02*
X104157914Y-122439523D01*
X104157914Y-122439523D02*
X104205533Y-122534761D01*
X162139333Y-107490419D02*
X161806000Y-107014228D01*
X161567905Y-107490419D02*
X161567905Y-106490419D01*
X161567905Y-106490419D02*
X161948857Y-106490419D01*
X161948857Y-106490419D02*
X162044095Y-106538038D01*
X162044095Y-106538038D02*
X162091714Y-106585657D01*
X162091714Y-106585657D02*
X162139333Y-106680895D01*
X162139333Y-106680895D02*
X162139333Y-106823752D01*
X162139333Y-106823752D02*
X162091714Y-106918990D01*
X162091714Y-106918990D02*
X162044095Y-106966609D01*
X162044095Y-106966609D02*
X161948857Y-107014228D01*
X161948857Y-107014228D02*
X161567905Y-107014228D01*
X162996476Y-106490419D02*
X162806000Y-106490419D01*
X162806000Y-106490419D02*
X162710762Y-106538038D01*
X162710762Y-106538038D02*
X162663143Y-106585657D01*
X162663143Y-106585657D02*
X162567905Y-106728514D01*
X162567905Y-106728514D02*
X162520286Y-106918990D01*
X162520286Y-106918990D02*
X162520286Y-107299942D01*
X162520286Y-107299942D02*
X162567905Y-107395180D01*
X162567905Y-107395180D02*
X162615524Y-107442800D01*
X162615524Y-107442800D02*
X162710762Y-107490419D01*
X162710762Y-107490419D02*
X162901238Y-107490419D01*
X162901238Y-107490419D02*
X162996476Y-107442800D01*
X162996476Y-107442800D02*
X163044095Y-107395180D01*
X163044095Y-107395180D02*
X163091714Y-107299942D01*
X163091714Y-107299942D02*
X163091714Y-107061847D01*
X163091714Y-107061847D02*
X163044095Y-106966609D01*
X163044095Y-106966609D02*
X162996476Y-106918990D01*
X162996476Y-106918990D02*
X162901238Y-106871371D01*
X162901238Y-106871371D02*
X162710762Y-106871371D01*
X162710762Y-106871371D02*
X162615524Y-106918990D01*
X162615524Y-106918990D02*
X162567905Y-106966609D01*
X162567905Y-106966609D02*
X162520286Y-107061847D01*
X166812933Y-104086819D02*
X166479600Y-103610628D01*
X166241505Y-104086819D02*
X166241505Y-103086819D01*
X166241505Y-103086819D02*
X166622457Y-103086819D01*
X166622457Y-103086819D02*
X166717695Y-103134438D01*
X166717695Y-103134438D02*
X166765314Y-103182057D01*
X166765314Y-103182057D02*
X166812933Y-103277295D01*
X166812933Y-103277295D02*
X166812933Y-103420152D01*
X166812933Y-103420152D02*
X166765314Y-103515390D01*
X166765314Y-103515390D02*
X166717695Y-103563009D01*
X166717695Y-103563009D02*
X166622457Y-103610628D01*
X166622457Y-103610628D02*
X166241505Y-103610628D01*
X167146267Y-103086819D02*
X167812933Y-103086819D01*
X167812933Y-103086819D02*
X167384362Y-104086819D01*
X170965905Y-101823819D02*
X170965905Y-100823819D01*
X170965905Y-100823819D02*
X171204000Y-100823819D01*
X171204000Y-100823819D02*
X171346857Y-100871438D01*
X171346857Y-100871438D02*
X171442095Y-100966676D01*
X171442095Y-100966676D02*
X171489714Y-101061914D01*
X171489714Y-101061914D02*
X171537333Y-101252390D01*
X171537333Y-101252390D02*
X171537333Y-101395247D01*
X171537333Y-101395247D02*
X171489714Y-101585723D01*
X171489714Y-101585723D02*
X171442095Y-101680961D01*
X171442095Y-101680961D02*
X171346857Y-101776200D01*
X171346857Y-101776200D02*
X171204000Y-101823819D01*
X171204000Y-101823819D02*
X170965905Y-101823819D01*
X171918286Y-100919057D02*
X171965905Y-100871438D01*
X171965905Y-100871438D02*
X172061143Y-100823819D01*
X172061143Y-100823819D02*
X172299238Y-100823819D01*
X172299238Y-100823819D02*
X172394476Y-100871438D01*
X172394476Y-100871438D02*
X172442095Y-100919057D01*
X172442095Y-100919057D02*
X172489714Y-101014295D01*
X172489714Y-101014295D02*
X172489714Y-101109533D01*
X172489714Y-101109533D02*
X172442095Y-101252390D01*
X172442095Y-101252390D02*
X171870667Y-101823819D01*
X171870667Y-101823819D02*
X172489714Y-101823819D01*
X133016666Y-128394819D02*
X133016666Y-129109104D01*
X133016666Y-129109104D02*
X132969047Y-129251961D01*
X132969047Y-129251961D02*
X132873809Y-129347200D01*
X132873809Y-129347200D02*
X132730952Y-129394819D01*
X132730952Y-129394819D02*
X132635714Y-129394819D01*
X133397619Y-128394819D02*
X134016666Y-128394819D01*
X134016666Y-128394819D02*
X133683333Y-128775771D01*
X133683333Y-128775771D02*
X133826190Y-128775771D01*
X133826190Y-128775771D02*
X133921428Y-128823390D01*
X133921428Y-128823390D02*
X133969047Y-128871009D01*
X133969047Y-128871009D02*
X134016666Y-128966247D01*
X134016666Y-128966247D02*
X134016666Y-129204342D01*
X134016666Y-129204342D02*
X133969047Y-129299580D01*
X133969047Y-129299580D02*
X133921428Y-129347200D01*
X133921428Y-129347200D02*
X133826190Y-129394819D01*
X133826190Y-129394819D02*
X133540476Y-129394819D01*
X133540476Y-129394819D02*
X133445238Y-129347200D01*
X133445238Y-129347200D02*
X133397619Y-129299580D01*
X112442666Y-128394819D02*
X112442666Y-129109104D01*
X112442666Y-129109104D02*
X112395047Y-129251961D01*
X112395047Y-129251961D02*
X112299809Y-129347200D01*
X112299809Y-129347200D02*
X112156952Y-129394819D01*
X112156952Y-129394819D02*
X112061714Y-129394819D01*
X112871238Y-128490057D02*
X112918857Y-128442438D01*
X112918857Y-128442438D02*
X113014095Y-128394819D01*
X113014095Y-128394819D02*
X113252190Y-128394819D01*
X113252190Y-128394819D02*
X113347428Y-128442438D01*
X113347428Y-128442438D02*
X113395047Y-128490057D01*
X113395047Y-128490057D02*
X113442666Y-128585295D01*
X113442666Y-128585295D02*
X113442666Y-128680533D01*
X113442666Y-128680533D02*
X113395047Y-128823390D01*
X113395047Y-128823390D02*
X112823619Y-129394819D01*
X112823619Y-129394819D02*
X113442666Y-129394819D01*
X153336666Y-128394819D02*
X153336666Y-129109104D01*
X153336666Y-129109104D02*
X153289047Y-129251961D01*
X153289047Y-129251961D02*
X153193809Y-129347200D01*
X153193809Y-129347200D02*
X153050952Y-129394819D01*
X153050952Y-129394819D02*
X152955714Y-129394819D01*
X154241428Y-128728152D02*
X154241428Y-129394819D01*
X154003333Y-128347200D02*
X153765238Y-129061485D01*
X153765238Y-129061485D02*
X154384285Y-129061485D01*
X181329105Y-118209219D02*
X181329105Y-117209219D01*
X181329105Y-117209219D02*
X181567200Y-117209219D01*
X181567200Y-117209219D02*
X181710057Y-117256838D01*
X181710057Y-117256838D02*
X181805295Y-117352076D01*
X181805295Y-117352076D02*
X181852914Y-117447314D01*
X181852914Y-117447314D02*
X181900533Y-117637790D01*
X181900533Y-117637790D02*
X181900533Y-117780647D01*
X181900533Y-117780647D02*
X181852914Y-117971123D01*
X181852914Y-117971123D02*
X181805295Y-118066361D01*
X181805295Y-118066361D02*
X181710057Y-118161600D01*
X181710057Y-118161600D02*
X181567200Y-118209219D01*
X181567200Y-118209219D02*
X181329105Y-118209219D01*
X182852914Y-118209219D02*
X182281486Y-118209219D01*
X182567200Y-118209219D02*
X182567200Y-117209219D01*
X182567200Y-117209219D02*
X182471962Y-117352076D01*
X182471962Y-117352076D02*
X182376724Y-117447314D01*
X182376724Y-117447314D02*
X182281486Y-117494933D01*
X167513095Y-120739819D02*
X167513095Y-121549342D01*
X167513095Y-121549342D02*
X167560714Y-121644580D01*
X167560714Y-121644580D02*
X167608333Y-121692200D01*
X167608333Y-121692200D02*
X167703571Y-121739819D01*
X167703571Y-121739819D02*
X167894047Y-121739819D01*
X167894047Y-121739819D02*
X167989285Y-121692200D01*
X167989285Y-121692200D02*
X168036904Y-121644580D01*
X168036904Y-121644580D02*
X168084523Y-121549342D01*
X168084523Y-121549342D02*
X168084523Y-120739819D01*
X169084523Y-121739819D02*
X168513095Y-121739819D01*
X168798809Y-121739819D02*
X168798809Y-120739819D01*
X168798809Y-120739819D02*
X168703571Y-120882676D01*
X168703571Y-120882676D02*
X168608333Y-120977914D01*
X168608333Y-120977914D02*
X168513095Y-121025533D01*
X172858133Y-132280819D02*
X172524800Y-131804628D01*
X172286705Y-132280819D02*
X172286705Y-131280819D01*
X172286705Y-131280819D02*
X172667657Y-131280819D01*
X172667657Y-131280819D02*
X172762895Y-131328438D01*
X172762895Y-131328438D02*
X172810514Y-131376057D01*
X172810514Y-131376057D02*
X172858133Y-131471295D01*
X172858133Y-131471295D02*
X172858133Y-131614152D01*
X172858133Y-131614152D02*
X172810514Y-131709390D01*
X172810514Y-131709390D02*
X172762895Y-131757009D01*
X172762895Y-131757009D02*
X172667657Y-131804628D01*
X172667657Y-131804628D02*
X172286705Y-131804628D01*
X173762895Y-131280819D02*
X173286705Y-131280819D01*
X173286705Y-131280819D02*
X173239086Y-131757009D01*
X173239086Y-131757009D02*
X173286705Y-131709390D01*
X173286705Y-131709390D02*
X173381943Y-131661771D01*
X173381943Y-131661771D02*
X173620038Y-131661771D01*
X173620038Y-131661771D02*
X173715276Y-131709390D01*
X173715276Y-131709390D02*
X173762895Y-131757009D01*
X173762895Y-131757009D02*
X173810514Y-131852247D01*
X173810514Y-131852247D02*
X173810514Y-132090342D01*
X173810514Y-132090342D02*
X173762895Y-132185580D01*
X173762895Y-132185580D02*
X173715276Y-132233200D01*
X173715276Y-132233200D02*
X173620038Y-132280819D01*
X173620038Y-132280819D02*
X173381943Y-132280819D01*
X173381943Y-132280819D02*
X173286705Y-132233200D01*
X173286705Y-132233200D02*
X173239086Y-132185580D01*
X179208133Y-131874419D02*
X178874800Y-131398228D01*
X178636705Y-131874419D02*
X178636705Y-130874419D01*
X178636705Y-130874419D02*
X179017657Y-130874419D01*
X179017657Y-130874419D02*
X179112895Y-130922038D01*
X179112895Y-130922038D02*
X179160514Y-130969657D01*
X179160514Y-130969657D02*
X179208133Y-131064895D01*
X179208133Y-131064895D02*
X179208133Y-131207752D01*
X179208133Y-131207752D02*
X179160514Y-131302990D01*
X179160514Y-131302990D02*
X179112895Y-131350609D01*
X179112895Y-131350609D02*
X179017657Y-131398228D01*
X179017657Y-131398228D02*
X178636705Y-131398228D01*
X179541467Y-130874419D02*
X180160514Y-130874419D01*
X180160514Y-130874419D02*
X179827181Y-131255371D01*
X179827181Y-131255371D02*
X179970038Y-131255371D01*
X179970038Y-131255371D02*
X180065276Y-131302990D01*
X180065276Y-131302990D02*
X180112895Y-131350609D01*
X180112895Y-131350609D02*
X180160514Y-131445847D01*
X180160514Y-131445847D02*
X180160514Y-131683942D01*
X180160514Y-131683942D02*
X180112895Y-131779180D01*
X180112895Y-131779180D02*
X180065276Y-131826800D01*
X180065276Y-131826800D02*
X179970038Y-131874419D01*
X179970038Y-131874419D02*
X179684324Y-131874419D01*
X179684324Y-131874419D02*
X179589086Y-131826800D01*
X179589086Y-131826800D02*
X179541467Y-131779180D01*
X170927733Y-90432319D02*
X170594400Y-89956128D01*
X170356305Y-90432319D02*
X170356305Y-89432319D01*
X170356305Y-89432319D02*
X170737257Y-89432319D01*
X170737257Y-89432319D02*
X170832495Y-89479938D01*
X170832495Y-89479938D02*
X170880114Y-89527557D01*
X170880114Y-89527557D02*
X170927733Y-89622795D01*
X170927733Y-89622795D02*
X170927733Y-89765652D01*
X170927733Y-89765652D02*
X170880114Y-89860890D01*
X170880114Y-89860890D02*
X170832495Y-89908509D01*
X170832495Y-89908509D02*
X170737257Y-89956128D01*
X170737257Y-89956128D02*
X170356305Y-89956128D01*
X171308686Y-89527557D02*
X171356305Y-89479938D01*
X171356305Y-89479938D02*
X171451543Y-89432319D01*
X171451543Y-89432319D02*
X171689638Y-89432319D01*
X171689638Y-89432319D02*
X171784876Y-89479938D01*
X171784876Y-89479938D02*
X171832495Y-89527557D01*
X171832495Y-89527557D02*
X171880114Y-89622795D01*
X171880114Y-89622795D02*
X171880114Y-89718033D01*
X171880114Y-89718033D02*
X171832495Y-89860890D01*
X171832495Y-89860890D02*
X171261067Y-90432319D01*
X171261067Y-90432319D02*
X171880114Y-90432319D01*
X162850533Y-90421619D02*
X162517200Y-89945428D01*
X162279105Y-90421619D02*
X162279105Y-89421619D01*
X162279105Y-89421619D02*
X162660057Y-89421619D01*
X162660057Y-89421619D02*
X162755295Y-89469238D01*
X162755295Y-89469238D02*
X162802914Y-89516857D01*
X162802914Y-89516857D02*
X162850533Y-89612095D01*
X162850533Y-89612095D02*
X162850533Y-89754952D01*
X162850533Y-89754952D02*
X162802914Y-89850190D01*
X162802914Y-89850190D02*
X162755295Y-89897809D01*
X162755295Y-89897809D02*
X162660057Y-89945428D01*
X162660057Y-89945428D02*
X162279105Y-89945428D01*
X163802914Y-90421619D02*
X163231486Y-90421619D01*
X163517200Y-90421619D02*
X163517200Y-89421619D01*
X163517200Y-89421619D02*
X163421962Y-89564476D01*
X163421962Y-89564476D02*
X163326724Y-89659714D01*
X163326724Y-89659714D02*
X163231486Y-89707333D01*
X170033961Y-107026857D02*
X169938723Y-106979238D01*
X169938723Y-106979238D02*
X169843485Y-106884000D01*
X169843485Y-106884000D02*
X169700628Y-106741142D01*
X169700628Y-106741142D02*
X169605390Y-106693523D01*
X169605390Y-106693523D02*
X169510152Y-106693523D01*
X169557771Y-106931619D02*
X169462533Y-106884000D01*
X169462533Y-106884000D02*
X169367295Y-106788761D01*
X169367295Y-106788761D02*
X169319676Y-106598285D01*
X169319676Y-106598285D02*
X169319676Y-106264952D01*
X169319676Y-106264952D02*
X169367295Y-106074476D01*
X169367295Y-106074476D02*
X169462533Y-105979238D01*
X169462533Y-105979238D02*
X169557771Y-105931619D01*
X169557771Y-105931619D02*
X169748247Y-105931619D01*
X169748247Y-105931619D02*
X169843485Y-105979238D01*
X169843485Y-105979238D02*
X169938723Y-106074476D01*
X169938723Y-106074476D02*
X169986342Y-106264952D01*
X169986342Y-106264952D02*
X169986342Y-106598285D01*
X169986342Y-106598285D02*
X169938723Y-106788761D01*
X169938723Y-106788761D02*
X169843485Y-106884000D01*
X169843485Y-106884000D02*
X169748247Y-106931619D01*
X169748247Y-106931619D02*
X169557771Y-106931619D01*
X170938723Y-106931619D02*
X170367295Y-106931619D01*
X170653009Y-106931619D02*
X170653009Y-105931619D01*
X170653009Y-105931619D02*
X170557771Y-106074476D01*
X170557771Y-106074476D02*
X170462533Y-106169714D01*
X170462533Y-106169714D02*
X170367295Y-106217333D01*
D11*
X162957933Y-117414318D02*
X162353171Y-117414318D01*
X162353171Y-117414318D02*
X162353171Y-116144318D01*
X164046505Y-117414318D02*
X163320790Y-117414318D01*
X163683647Y-117414318D02*
X163683647Y-116144318D01*
X163683647Y-116144318D02*
X163562695Y-116325746D01*
X163562695Y-116325746D02*
X163441743Y-116446699D01*
X163441743Y-116446699D02*
X163320790Y-116507175D01*
D10*
X183562666Y-111824419D02*
X183562666Y-112538704D01*
X183562666Y-112538704D02*
X183515047Y-112681561D01*
X183515047Y-112681561D02*
X183419809Y-112776800D01*
X183419809Y-112776800D02*
X183276952Y-112824419D01*
X183276952Y-112824419D02*
X183181714Y-112824419D01*
X184515047Y-111824419D02*
X184038857Y-111824419D01*
X184038857Y-111824419D02*
X183991238Y-112300609D01*
X183991238Y-112300609D02*
X184038857Y-112252990D01*
X184038857Y-112252990D02*
X184134095Y-112205371D01*
X184134095Y-112205371D02*
X184372190Y-112205371D01*
X184372190Y-112205371D02*
X184467428Y-112252990D01*
X184467428Y-112252990D02*
X184515047Y-112300609D01*
X184515047Y-112300609D02*
X184562666Y-112395847D01*
X184562666Y-112395847D02*
X184562666Y-112633942D01*
X184562666Y-112633942D02*
X184515047Y-112729180D01*
X184515047Y-112729180D02*
X184467428Y-112776800D01*
X184467428Y-112776800D02*
X184372190Y-112824419D01*
X184372190Y-112824419D02*
X184134095Y-112824419D01*
X184134095Y-112824419D02*
X184038857Y-112776800D01*
X184038857Y-112776800D02*
X183991238Y-112729180D01*
X183054666Y-92774419D02*
X183054666Y-93488704D01*
X183054666Y-93488704D02*
X183007047Y-93631561D01*
X183007047Y-93631561D02*
X182911809Y-93726800D01*
X182911809Y-93726800D02*
X182768952Y-93774419D01*
X182768952Y-93774419D02*
X182673714Y-93774419D01*
X184054666Y-93774419D02*
X183483238Y-93774419D01*
X183768952Y-93774419D02*
X183768952Y-92774419D01*
X183768952Y-92774419D02*
X183673714Y-92917276D01*
X183673714Y-92917276D02*
X183578476Y-93012514D01*
X183578476Y-93012514D02*
X183483238Y-93060133D01*
X183528095Y-133414819D02*
X183528095Y-132414819D01*
X183528095Y-132891009D02*
X184099523Y-132891009D01*
X184099523Y-133414819D02*
X184099523Y-132414819D01*
X185004285Y-132748152D02*
X185004285Y-133414819D01*
X184766190Y-132367200D02*
X184528095Y-133081485D01*
X184528095Y-133081485D02*
X185147142Y-133081485D01*
X183388095Y-41974819D02*
X183388095Y-40974819D01*
X183388095Y-41451009D02*
X183959523Y-41451009D01*
X183959523Y-41974819D02*
X183959523Y-40974819D01*
X184340476Y-40974819D02*
X184959523Y-40974819D01*
X184959523Y-40974819D02*
X184626190Y-41355771D01*
X184626190Y-41355771D02*
X184769047Y-41355771D01*
X184769047Y-41355771D02*
X184864285Y-41403390D01*
X184864285Y-41403390D02*
X184911904Y-41451009D01*
X184911904Y-41451009D02*
X184959523Y-41546247D01*
X184959523Y-41546247D02*
X184959523Y-41784342D01*
X184959523Y-41784342D02*
X184911904Y-41879580D01*
X184911904Y-41879580D02*
X184864285Y-41927200D01*
X184864285Y-41927200D02*
X184769047Y-41974819D01*
X184769047Y-41974819D02*
X184483333Y-41974819D01*
X184483333Y-41974819D02*
X184388095Y-41927200D01*
X184388095Y-41927200D02*
X184340476Y-41879580D01*
X95758095Y-133414819D02*
X95758095Y-132414819D01*
X95758095Y-132891009D02*
X96329523Y-132891009D01*
X96329523Y-133414819D02*
X96329523Y-132414819D01*
X96758095Y-132510057D02*
X96805714Y-132462438D01*
X96805714Y-132462438D02*
X96900952Y-132414819D01*
X96900952Y-132414819D02*
X97139047Y-132414819D01*
X97139047Y-132414819D02*
X97234285Y-132462438D01*
X97234285Y-132462438D02*
X97281904Y-132510057D01*
X97281904Y-132510057D02*
X97329523Y-132605295D01*
X97329523Y-132605295D02*
X97329523Y-132700533D01*
X97329523Y-132700533D02*
X97281904Y-132843390D01*
X97281904Y-132843390D02*
X96710476Y-133414819D01*
X96710476Y-133414819D02*
X97329523Y-133414819D01*
X95758095Y-41974819D02*
X95758095Y-40974819D01*
X95758095Y-41451009D02*
X96329523Y-41451009D01*
X96329523Y-41974819D02*
X96329523Y-40974819D01*
X97329523Y-41974819D02*
X96758095Y-41974819D01*
X97043809Y-41974819D02*
X97043809Y-40974819D01*
X97043809Y-40974819D02*
X96948571Y-41117676D01*
X96948571Y-41117676D02*
X96853333Y-41212914D01*
X96853333Y-41212914D02*
X96758095Y-41260533D01*
X173758266Y-103207409D02*
X173424933Y-103207409D01*
X173424933Y-103731219D02*
X173424933Y-102731219D01*
X173424933Y-102731219D02*
X173901123Y-102731219D01*
X174805885Y-103731219D02*
X174234457Y-103731219D01*
X174520171Y-103731219D02*
X174520171Y-102731219D01*
X174520171Y-102731219D02*
X174424933Y-102874076D01*
X174424933Y-102874076D02*
X174329695Y-102969314D01*
X174329695Y-102969314D02*
X174234457Y-103016933D01*
X171486533Y-130204380D02*
X171438914Y-130252000D01*
X171438914Y-130252000D02*
X171296057Y-130299619D01*
X171296057Y-130299619D02*
X171200819Y-130299619D01*
X171200819Y-130299619D02*
X171057962Y-130252000D01*
X171057962Y-130252000D02*
X170962724Y-130156761D01*
X170962724Y-130156761D02*
X170915105Y-130061523D01*
X170915105Y-130061523D02*
X170867486Y-129871047D01*
X170867486Y-129871047D02*
X170867486Y-129728190D01*
X170867486Y-129728190D02*
X170915105Y-129537714D01*
X170915105Y-129537714D02*
X170962724Y-129442476D01*
X170962724Y-129442476D02*
X171057962Y-129347238D01*
X171057962Y-129347238D02*
X171200819Y-129299619D01*
X171200819Y-129299619D02*
X171296057Y-129299619D01*
X171296057Y-129299619D02*
X171438914Y-129347238D01*
X171438914Y-129347238D02*
X171486533Y-129394857D01*
X172391295Y-129299619D02*
X171915105Y-129299619D01*
X171915105Y-129299619D02*
X171867486Y-129775809D01*
X171867486Y-129775809D02*
X171915105Y-129728190D01*
X171915105Y-129728190D02*
X172010343Y-129680571D01*
X172010343Y-129680571D02*
X172248438Y-129680571D01*
X172248438Y-129680571D02*
X172343676Y-129728190D01*
X172343676Y-129728190D02*
X172391295Y-129775809D01*
X172391295Y-129775809D02*
X172438914Y-129871047D01*
X172438914Y-129871047D02*
X172438914Y-130109142D01*
X172438914Y-130109142D02*
X172391295Y-130204380D01*
X172391295Y-130204380D02*
X172343676Y-130252000D01*
X172343676Y-130252000D02*
X172248438Y-130299619D01*
X172248438Y-130299619D02*
X172010343Y-130299619D01*
X172010343Y-130299619D02*
X171915105Y-130252000D01*
X171915105Y-130252000D02*
X171867486Y-130204380D01*
X185456533Y-130864780D02*
X185408914Y-130912400D01*
X185408914Y-130912400D02*
X185266057Y-130960019D01*
X185266057Y-130960019D02*
X185170819Y-130960019D01*
X185170819Y-130960019D02*
X185027962Y-130912400D01*
X185027962Y-130912400D02*
X184932724Y-130817161D01*
X184932724Y-130817161D02*
X184885105Y-130721923D01*
X184885105Y-130721923D02*
X184837486Y-130531447D01*
X184837486Y-130531447D02*
X184837486Y-130388590D01*
X184837486Y-130388590D02*
X184885105Y-130198114D01*
X184885105Y-130198114D02*
X184932724Y-130102876D01*
X184932724Y-130102876D02*
X185027962Y-130007638D01*
X185027962Y-130007638D02*
X185170819Y-129960019D01*
X185170819Y-129960019D02*
X185266057Y-129960019D01*
X185266057Y-129960019D02*
X185408914Y-130007638D01*
X185408914Y-130007638D02*
X185456533Y-130055257D01*
X186313676Y-130293352D02*
X186313676Y-130960019D01*
X186075581Y-129912400D02*
X185837486Y-130626685D01*
X185837486Y-130626685D02*
X186456533Y-130626685D01*
X176160133Y-123041580D02*
X176112514Y-123089200D01*
X176112514Y-123089200D02*
X175969657Y-123136819D01*
X175969657Y-123136819D02*
X175874419Y-123136819D01*
X175874419Y-123136819D02*
X175731562Y-123089200D01*
X175731562Y-123089200D02*
X175636324Y-122993961D01*
X175636324Y-122993961D02*
X175588705Y-122898723D01*
X175588705Y-122898723D02*
X175541086Y-122708247D01*
X175541086Y-122708247D02*
X175541086Y-122565390D01*
X175541086Y-122565390D02*
X175588705Y-122374914D01*
X175588705Y-122374914D02*
X175636324Y-122279676D01*
X175636324Y-122279676D02*
X175731562Y-122184438D01*
X175731562Y-122184438D02*
X175874419Y-122136819D01*
X175874419Y-122136819D02*
X175969657Y-122136819D01*
X175969657Y-122136819D02*
X176112514Y-122184438D01*
X176112514Y-122184438D02*
X176160133Y-122232057D01*
X176493467Y-122136819D02*
X177112514Y-122136819D01*
X177112514Y-122136819D02*
X176779181Y-122517771D01*
X176779181Y-122517771D02*
X176922038Y-122517771D01*
X176922038Y-122517771D02*
X177017276Y-122565390D01*
X177017276Y-122565390D02*
X177064895Y-122613009D01*
X177064895Y-122613009D02*
X177112514Y-122708247D01*
X177112514Y-122708247D02*
X177112514Y-122946342D01*
X177112514Y-122946342D02*
X177064895Y-123041580D01*
X177064895Y-123041580D02*
X177017276Y-123089200D01*
X177017276Y-123089200D02*
X176922038Y-123136819D01*
X176922038Y-123136819D02*
X176636324Y-123136819D01*
X176636324Y-123136819D02*
X176541086Y-123089200D01*
X176541086Y-123089200D02*
X176493467Y-123041580D01*
X163409333Y-125886380D02*
X163361714Y-125934000D01*
X163361714Y-125934000D02*
X163218857Y-125981619D01*
X163218857Y-125981619D02*
X163123619Y-125981619D01*
X163123619Y-125981619D02*
X162980762Y-125934000D01*
X162980762Y-125934000D02*
X162885524Y-125838761D01*
X162885524Y-125838761D02*
X162837905Y-125743523D01*
X162837905Y-125743523D02*
X162790286Y-125553047D01*
X162790286Y-125553047D02*
X162790286Y-125410190D01*
X162790286Y-125410190D02*
X162837905Y-125219714D01*
X162837905Y-125219714D02*
X162885524Y-125124476D01*
X162885524Y-125124476D02*
X162980762Y-125029238D01*
X162980762Y-125029238D02*
X163123619Y-124981619D01*
X163123619Y-124981619D02*
X163218857Y-124981619D01*
X163218857Y-124981619D02*
X163361714Y-125029238D01*
X163361714Y-125029238D02*
X163409333Y-125076857D01*
X163790286Y-125076857D02*
X163837905Y-125029238D01*
X163837905Y-125029238D02*
X163933143Y-124981619D01*
X163933143Y-124981619D02*
X164171238Y-124981619D01*
X164171238Y-124981619D02*
X164266476Y-125029238D01*
X164266476Y-125029238D02*
X164314095Y-125076857D01*
X164314095Y-125076857D02*
X164361714Y-125172095D01*
X164361714Y-125172095D02*
X164361714Y-125267333D01*
X164361714Y-125267333D02*
X164314095Y-125410190D01*
X164314095Y-125410190D02*
X163742667Y-125981619D01*
X163742667Y-125981619D02*
X164361714Y-125981619D01*
X173188333Y-121771580D02*
X173140714Y-121819200D01*
X173140714Y-121819200D02*
X172997857Y-121866819D01*
X172997857Y-121866819D02*
X172902619Y-121866819D01*
X172902619Y-121866819D02*
X172759762Y-121819200D01*
X172759762Y-121819200D02*
X172664524Y-121723961D01*
X172664524Y-121723961D02*
X172616905Y-121628723D01*
X172616905Y-121628723D02*
X172569286Y-121438247D01*
X172569286Y-121438247D02*
X172569286Y-121295390D01*
X172569286Y-121295390D02*
X172616905Y-121104914D01*
X172616905Y-121104914D02*
X172664524Y-121009676D01*
X172664524Y-121009676D02*
X172759762Y-120914438D01*
X172759762Y-120914438D02*
X172902619Y-120866819D01*
X172902619Y-120866819D02*
X172997857Y-120866819D01*
X172997857Y-120866819D02*
X173140714Y-120914438D01*
X173140714Y-120914438D02*
X173188333Y-120962057D01*
X174140714Y-121866819D02*
X173569286Y-121866819D01*
X173855000Y-121866819D02*
X173855000Y-120866819D01*
X173855000Y-120866819D02*
X173759762Y-121009676D01*
X173759762Y-121009676D02*
X173664524Y-121104914D01*
X173664524Y-121104914D02*
X173569286Y-121152533D01*
X118454610Y-110843219D02*
X118454610Y-109843219D01*
X119502228Y-110747980D02*
X119454609Y-110795600D01*
X119454609Y-110795600D02*
X119311752Y-110843219D01*
X119311752Y-110843219D02*
X119216514Y-110843219D01*
X119216514Y-110843219D02*
X119073657Y-110795600D01*
X119073657Y-110795600D02*
X118978419Y-110700361D01*
X118978419Y-110700361D02*
X118930800Y-110605123D01*
X118930800Y-110605123D02*
X118883181Y-110414647D01*
X118883181Y-110414647D02*
X118883181Y-110271790D01*
X118883181Y-110271790D02*
X118930800Y-110081314D01*
X118930800Y-110081314D02*
X118978419Y-109986076D01*
X118978419Y-109986076D02*
X119073657Y-109890838D01*
X119073657Y-109890838D02*
X119216514Y-109843219D01*
X119216514Y-109843219D02*
X119311752Y-109843219D01*
X119311752Y-109843219D02*
X119454609Y-109890838D01*
X119454609Y-109890838D02*
X119502228Y-109938457D01*
X120454609Y-110843219D02*
X119883181Y-110843219D01*
X120168895Y-110843219D02*
X120168895Y-109843219D01*
X120168895Y-109843219D02*
X120073657Y-109986076D01*
X120073657Y-109986076D02*
X119978419Y-110081314D01*
X119978419Y-110081314D02*
X119883181Y-110128933D01*
D12*
%TO.C,G\u002A\u002A\u002A*%
G36*
X119345351Y-114715535D02*
G01*
X119342532Y-115141197D01*
X119339683Y-115547235D01*
X119336851Y-115928754D01*
X119334076Y-116280862D01*
X119331405Y-116598665D01*
X119328880Y-116877270D01*
X119326544Y-117111784D01*
X119324443Y-117297314D01*
X119322618Y-117428966D01*
X119321115Y-117501847D01*
X119320351Y-117515385D01*
X119286523Y-117521872D01*
X119202519Y-117535231D01*
X119084173Y-117552977D01*
X119038333Y-117559654D01*
X118652954Y-117624155D01*
X118223799Y-117711341D01*
X117768077Y-117816930D01*
X117302995Y-117936639D01*
X116845762Y-118066184D01*
X116413586Y-118201284D01*
X116279877Y-118246192D01*
X115342779Y-118595927D01*
X114452090Y-118987257D01*
X113609171Y-119419247D01*
X112815381Y-119890960D01*
X112072078Y-120401463D01*
X111380623Y-120949820D01*
X110742375Y-121535095D01*
X110158693Y-122156354D01*
X109630937Y-122812661D01*
X109618689Y-122829214D01*
X109535051Y-122946979D01*
X109471186Y-123045608D01*
X109434746Y-123112722D01*
X109429847Y-123134681D01*
X109467542Y-123168941D01*
X109551502Y-123231242D01*
X109671219Y-123314628D01*
X109816189Y-123412142D01*
X109975905Y-123516828D01*
X110139862Y-123621731D01*
X110297552Y-123719893D01*
X110438471Y-123804358D01*
X110461001Y-123817431D01*
X111225374Y-124226982D01*
X112046046Y-124607159D01*
X112918730Y-124956441D01*
X113839140Y-125273307D01*
X114802989Y-125556237D01*
X115805989Y-125803708D01*
X116433858Y-125936336D01*
X116695294Y-125985961D01*
X116992797Y-126038754D01*
X117311434Y-126092367D01*
X117636271Y-126144452D01*
X117952377Y-126192660D01*
X118244817Y-126234643D01*
X118498658Y-126268052D01*
X118663333Y-126286968D01*
X118799562Y-126301514D01*
X118932069Y-126316330D01*
X118996666Y-126323924D01*
X119008680Y-126318684D01*
X118964667Y-126294636D01*
X118871623Y-126254742D01*
X118736543Y-126201968D01*
X118566420Y-126139275D01*
X118530000Y-126126232D01*
X117983886Y-125927727D01*
X117486987Y-125738498D01*
X117023747Y-125552018D01*
X116578608Y-125361758D01*
X116136015Y-125161193D01*
X115680410Y-124943793D01*
X115496666Y-124853445D01*
X115053528Y-124627166D01*
X114601793Y-124383847D01*
X114153062Y-124130364D01*
X113718934Y-123873589D01*
X113311010Y-123620395D01*
X112940889Y-123377657D01*
X112620170Y-123152249D01*
X112597331Y-123135420D01*
X112412977Y-122999050D01*
X112551765Y-122808316D01*
X112621495Y-122712604D01*
X112674234Y-122640433D01*
X112699227Y-122606520D01*
X112699649Y-122605971D01*
X112728794Y-122619020D01*
X112800247Y-122663443D01*
X112902188Y-122731649D01*
X112986040Y-122789957D01*
X113904736Y-123399963D01*
X114876542Y-123971680D01*
X115899153Y-124503929D01*
X116970262Y-124995531D01*
X118087565Y-125445309D01*
X118419965Y-125567778D01*
X118646575Y-125649400D01*
X118818089Y-125710588D01*
X118942042Y-125753789D01*
X119025964Y-125781446D01*
X119077392Y-125796006D01*
X119103856Y-125799914D01*
X119112892Y-125795615D01*
X119113333Y-125792841D01*
X119086484Y-125770485D01*
X119012386Y-125719733D01*
X118900711Y-125646938D01*
X118761133Y-125558455D01*
X118671666Y-125502736D01*
X117700084Y-124870633D01*
X116787201Y-124212866D01*
X115928959Y-123526289D01*
X115121297Y-122807758D01*
X114818949Y-122518002D01*
X114640870Y-122342425D01*
X114464166Y-122165840D01*
X114299304Y-121998880D01*
X114156750Y-121852181D01*
X114046971Y-121736377D01*
X114010853Y-121696956D01*
X113782009Y-121442771D01*
X113995534Y-121253893D01*
X114209058Y-121065016D01*
X114383686Y-121257199D01*
X114528406Y-121411838D01*
X114711323Y-121600177D01*
X114921154Y-121811182D01*
X115146615Y-122033817D01*
X115376423Y-122257046D01*
X115599292Y-122469836D01*
X115803940Y-122661150D01*
X115979084Y-122819953D01*
X116005281Y-122843071D01*
X116796723Y-123507724D01*
X117644231Y-124162315D01*
X118537261Y-124799487D01*
X119465269Y-125411883D01*
X120417710Y-125992147D01*
X120972928Y-126308724D01*
X121415857Y-126554960D01*
X121406262Y-126805851D01*
X121396666Y-127056741D01*
X121278808Y-127066674D01*
X121196494Y-127069784D01*
X121148185Y-127064463D01*
X121145475Y-127062886D01*
X121108527Y-127056856D01*
X121016737Y-127049213D01*
X120881885Y-127040735D01*
X120715752Y-127032203D01*
X120613333Y-127027687D01*
X119676414Y-126970969D01*
X118722732Y-126879073D01*
X117763309Y-126754040D01*
X116809166Y-126597911D01*
X115871325Y-126412728D01*
X114960807Y-126200531D01*
X114088635Y-125963361D01*
X113265831Y-125703260D01*
X113043672Y-125625845D01*
X112462403Y-125407948D01*
X111892194Y-125173042D01*
X111340002Y-124924811D01*
X110812785Y-124666933D01*
X110317499Y-124403089D01*
X109861104Y-124136961D01*
X109450554Y-123872228D01*
X109092809Y-123612571D01*
X108838097Y-123400984D01*
X108646195Y-123229299D01*
X108931798Y-122810424D01*
X109145874Y-122507518D01*
X109375910Y-122201558D01*
X109608096Y-121910142D01*
X109828619Y-121650862D01*
X109928825Y-121540241D01*
X110105143Y-121350565D01*
X109821437Y-121049514D01*
X109662985Y-120876677D01*
X109493552Y-120683610D01*
X109318629Y-120477365D01*
X109143708Y-120264991D01*
X108974277Y-120053540D01*
X108815829Y-119850061D01*
X108673853Y-119661604D01*
X108553840Y-119495221D01*
X108461281Y-119357962D01*
X108401666Y-119256876D01*
X108380487Y-119199185D01*
X108391383Y-119155638D01*
X109012469Y-119155638D01*
X109284300Y-119518148D01*
X109403332Y-119674812D01*
X109526338Y-119833201D01*
X109638795Y-119974812D01*
X109725995Y-120080920D01*
X109814302Y-120183205D01*
X109921877Y-120305039D01*
X110040229Y-120437135D01*
X110160865Y-120570205D01*
X110275293Y-120694960D01*
X110375020Y-120802112D01*
X110451555Y-120882373D01*
X110496405Y-120926455D01*
X110504185Y-120932037D01*
X110532607Y-120911232D01*
X110599993Y-120854847D01*
X110695725Y-120771925D01*
X110790040Y-120688589D01*
X111486668Y-120110623D01*
X112234433Y-119570858D01*
X113028137Y-119071800D01*
X113862581Y-118615952D01*
X114732568Y-118205821D01*
X115632900Y-117843910D01*
X116558380Y-117532725D01*
X117503809Y-117274771D01*
X118183913Y-117125392D01*
X118737826Y-117015899D01*
X118754386Y-116061813D01*
X118758477Y-115816835D01*
X118761879Y-115594691D01*
X118764488Y-115403814D01*
X118766198Y-115252632D01*
X118766906Y-115149579D01*
X118766506Y-115103084D01*
X118766275Y-115101298D01*
X118731501Y-115102932D01*
X118643002Y-115117827D01*
X118511853Y-115143540D01*
X118349123Y-115177627D01*
X118165886Y-115217648D01*
X117973213Y-115261157D01*
X117782177Y-115305713D01*
X117603848Y-115348873D01*
X117449301Y-115388195D01*
X117375060Y-115408241D01*
X116510300Y-115681074D01*
X115649010Y-116015834D01*
X114799847Y-116407895D01*
X113971466Y-116852632D01*
X113172524Y-117345419D01*
X112411678Y-117881631D01*
X111743241Y-118417469D01*
X111626125Y-118515279D01*
X111526297Y-118594521D01*
X111455185Y-118646387D01*
X111425435Y-118662391D01*
X111388869Y-118640077D01*
X111320003Y-118580960D01*
X111232302Y-118496780D01*
X111212194Y-118476448D01*
X111030000Y-118290505D01*
X111217427Y-118114699D01*
X111594182Y-117783564D01*
X112025401Y-117443649D01*
X112500646Y-117101432D01*
X113009478Y-116763390D01*
X113541460Y-116436002D01*
X114086154Y-116125745D01*
X114633122Y-115839096D01*
X115171924Y-115582533D01*
X115580000Y-115407389D01*
X115899534Y-115283876D01*
X116260461Y-115155208D01*
X116639904Y-115028884D01*
X117014986Y-114912408D01*
X117362832Y-114813281D01*
X117504454Y-114776314D01*
X117667758Y-114736902D01*
X117854918Y-114694505D01*
X118053030Y-114651735D01*
X118249190Y-114611204D01*
X118430495Y-114575526D01*
X118584041Y-114547312D01*
X118696925Y-114529176D01*
X118752496Y-114523627D01*
X118759496Y-114491633D01*
X118765840Y-114401181D01*
X118771292Y-114260566D01*
X118775615Y-114078083D01*
X118778575Y-113862026D01*
X118779937Y-113620692D01*
X118780000Y-113555054D01*
X118780000Y-112586481D01*
X118705000Y-112603834D01*
X118635210Y-112619780D01*
X118524380Y-112644897D01*
X118396666Y-112673711D01*
X118058966Y-112756869D01*
X117676631Y-112863309D01*
X117265362Y-112987923D01*
X116840864Y-113125605D01*
X116418839Y-113271249D01*
X116014989Y-113419748D01*
X115645017Y-113565995D01*
X115616238Y-113577908D01*
X114711865Y-113982728D01*
X113859110Y-114423913D01*
X113059372Y-114900574D01*
X112314052Y-115411818D01*
X111624552Y-115956754D01*
X111034765Y-116492878D01*
X110546638Y-116992961D01*
X110116972Y-117486466D01*
X109739211Y-117981569D01*
X109406800Y-118486447D01*
X109321927Y-118629014D01*
X109239375Y-118770587D01*
X109162795Y-118901520D01*
X109102364Y-119004434D01*
X109074899Y-119050868D01*
X109012469Y-119155638D01*
X108391383Y-119155638D01*
X108398591Y-119126833D01*
X108450632Y-119008024D01*
X108531760Y-118850598D01*
X108637131Y-118662396D01*
X108761895Y-118451256D01*
X108901206Y-118225019D01*
X109050217Y-117991524D01*
X109204081Y-117758611D01*
X109357949Y-117534120D01*
X109506976Y-117325890D01*
X109646314Y-117141761D01*
X109674943Y-117105571D01*
X110208646Y-116487792D01*
X110800893Y-115896550D01*
X111448155Y-115334039D01*
X112146902Y-114802453D01*
X112893602Y-114303985D01*
X113684724Y-113840831D01*
X114516739Y-113415183D01*
X115386115Y-113029236D01*
X116289322Y-112685183D01*
X117222830Y-112385219D01*
X117313333Y-112358989D01*
X117618824Y-112273990D01*
X117926167Y-112193476D01*
X118226046Y-112119514D01*
X118509146Y-112054166D01*
X118766152Y-111999499D01*
X118987750Y-111957578D01*
X119164623Y-111930467D01*
X119287456Y-111920232D01*
X119292699Y-111920200D01*
X119363333Y-111920189D01*
X119345351Y-114715535D01*
G37*
G36*
X132946666Y-120064231D02*
G01*
X132946666Y-121232431D01*
X129163333Y-121232431D01*
X125380000Y-121232431D01*
X125380000Y-123118239D01*
X125380000Y-125004047D01*
X124246666Y-125004047D01*
X123113333Y-125004047D01*
X123113333Y-121950039D01*
X123113333Y-118896031D01*
X128030000Y-118896031D01*
X132946666Y-118896031D01*
X132946666Y-120064231D01*
G37*
G36*
X140226055Y-115124456D02*
G01*
X140875051Y-115124599D01*
X141463264Y-115124871D01*
X141993635Y-115125300D01*
X142469106Y-115125916D01*
X142892617Y-115126745D01*
X143267111Y-115127817D01*
X143595529Y-115129158D01*
X143880812Y-115130798D01*
X144125902Y-115132765D01*
X144333740Y-115135087D01*
X144507268Y-115137791D01*
X144649428Y-115140907D01*
X144763161Y-115144462D01*
X144851408Y-115148485D01*
X144917112Y-115153003D01*
X144963212Y-115158045D01*
X144992652Y-115163639D01*
X145008372Y-115169813D01*
X145013314Y-115176595D01*
X145013333Y-115177086D01*
X144990210Y-115220335D01*
X144927623Y-115296538D01*
X144835747Y-115394088D01*
X144748610Y-115479117D01*
X144433661Y-115811760D01*
X144171745Y-116169091D01*
X143957798Y-116559929D01*
X143786756Y-116993089D01*
X143691381Y-117320181D01*
X143663333Y-117429875D01*
X142163333Y-117437001D01*
X140663333Y-117444126D01*
X140654857Y-121224087D01*
X140646381Y-125004047D01*
X139513333Y-125004047D01*
X138380284Y-125004047D01*
X138371809Y-121224087D01*
X138363333Y-117444126D01*
X136188333Y-117435540D01*
X134013333Y-117426954D01*
X134013333Y-116275685D01*
X134013333Y-115124415D01*
X139513333Y-115124415D01*
X140226055Y-115124456D01*
G37*
G36*
X155180000Y-116274721D02*
G01*
X155180000Y-117426443D01*
X150915770Y-117435285D01*
X150295484Y-117436582D01*
X149738385Y-117437807D01*
X149240997Y-117439021D01*
X148799839Y-117440287D01*
X148411434Y-117441668D01*
X148072303Y-117443224D01*
X147778968Y-117445017D01*
X147527950Y-117447111D01*
X147315771Y-117449567D01*
X147138953Y-117452447D01*
X146994015Y-117455813D01*
X146877482Y-117459728D01*
X146785873Y-117464252D01*
X146715710Y-117469449D01*
X146663516Y-117475380D01*
X146625810Y-117482108D01*
X146599116Y-117489694D01*
X146579954Y-117498201D01*
X146564847Y-117507690D01*
X146557437Y-117513034D01*
X146456249Y-117610218D01*
X146387580Y-117735329D01*
X146347535Y-117899562D01*
X146332220Y-118114112D01*
X146331784Y-118161734D01*
X146339505Y-118385430D01*
X146365405Y-118555802D01*
X146412578Y-118684549D01*
X146484115Y-118783369D01*
X146500301Y-118799336D01*
X146585333Y-118879343D01*
X149957666Y-118896749D01*
X150506069Y-118899602D01*
X150991926Y-118902231D01*
X151419360Y-118904737D01*
X151792492Y-118907224D01*
X152115442Y-118909791D01*
X152392332Y-118912542D01*
X152627284Y-118915578D01*
X152824417Y-118919000D01*
X152987854Y-118922911D01*
X153121716Y-118927413D01*
X153230124Y-118932606D01*
X153317198Y-118938593D01*
X153387061Y-118945477D01*
X153443833Y-118953357D01*
X153491635Y-118962337D01*
X153534589Y-118972518D01*
X153576815Y-118984003D01*
X153585137Y-118986352D01*
X153969242Y-119128919D01*
X154323098Y-119328667D01*
X154642946Y-119581520D01*
X154925026Y-119883400D01*
X155165580Y-120230232D01*
X155360848Y-120617937D01*
X155507071Y-121042440D01*
X155517677Y-121082234D01*
X155547944Y-121207535D01*
X155569395Y-121323956D01*
X155583467Y-121447464D01*
X155591599Y-121594030D01*
X155595230Y-121779623D01*
X155595866Y-121950039D01*
X155594612Y-122174749D01*
X155589892Y-122348720D01*
X155580272Y-122487937D01*
X155564315Y-122608385D01*
X155540585Y-122726049D01*
X155517926Y-122817845D01*
X155374711Y-123251168D01*
X155181423Y-123645898D01*
X154941165Y-123998631D01*
X154657045Y-124305963D01*
X154332167Y-124564493D01*
X153969638Y-124770815D01*
X153607954Y-124910849D01*
X153363333Y-124986410D01*
X148938333Y-124996053D01*
X144513333Y-125005696D01*
X144513333Y-123836672D01*
X144513333Y-122667648D01*
X148783333Y-122667648D01*
X153053333Y-122667648D01*
X153162810Y-122558026D01*
X153250410Y-122429179D01*
X153308452Y-122258636D01*
X153337384Y-122062404D01*
X153337659Y-121856487D01*
X153309726Y-121656893D01*
X153254035Y-121479627D01*
X153171037Y-121340695D01*
X153127336Y-121296952D01*
X153109873Y-121288967D01*
X153075268Y-121281790D01*
X153019845Y-121275348D01*
X152939924Y-121269573D01*
X152831829Y-121264392D01*
X152691882Y-121259737D01*
X152516404Y-121255535D01*
X152301719Y-121251717D01*
X152044148Y-121248212D01*
X151740013Y-121244949D01*
X151385638Y-121241857D01*
X150977344Y-121238867D01*
X150511453Y-121235907D01*
X149984288Y-121232907D01*
X149716567Y-121231474D01*
X149169904Y-121228577D01*
X148685769Y-121225914D01*
X148260023Y-121223379D01*
X147888527Y-121220870D01*
X147567143Y-121218283D01*
X147291731Y-121215513D01*
X147058155Y-121212457D01*
X146862274Y-121209011D01*
X146699952Y-121205070D01*
X146567048Y-121200532D01*
X146459424Y-121195291D01*
X146372943Y-121189244D01*
X146303465Y-121182287D01*
X146246852Y-121174316D01*
X146198966Y-121165227D01*
X146155667Y-121154917D01*
X146112817Y-121143280D01*
X146103776Y-121140739D01*
X145729462Y-121001407D01*
X145378771Y-120803849D01*
X145057203Y-120554079D01*
X144770257Y-120258113D01*
X144523434Y-119921965D01*
X144322231Y-119551648D01*
X144172150Y-119153178D01*
X144125236Y-118976962D01*
X144094848Y-118797867D01*
X144074190Y-118573767D01*
X144063281Y-118322645D01*
X144062140Y-118062483D01*
X144070788Y-117811263D01*
X144089245Y-117586968D01*
X144117531Y-117407580D01*
X144123463Y-117382264D01*
X144262076Y-116948295D01*
X144450359Y-116549500D01*
X144684514Y-116190150D01*
X144960744Y-115874516D01*
X145275250Y-115606868D01*
X145624235Y-115391479D01*
X146003901Y-115232619D01*
X146047211Y-115218830D01*
X146296666Y-115141802D01*
X150738333Y-115132400D01*
X155180000Y-115122999D01*
X155180000Y-116274721D01*
G37*
G36*
X128855715Y-115124503D02*
G01*
X129418743Y-115124761D01*
X129959928Y-115125179D01*
X130475671Y-115125747D01*
X130962373Y-115126456D01*
X131416434Y-115127296D01*
X131834254Y-115128258D01*
X132212235Y-115129331D01*
X132546777Y-115130506D01*
X132834281Y-115131774D01*
X133071148Y-115133125D01*
X133253778Y-115134549D01*
X133378571Y-115136036D01*
X133441929Y-115137578D01*
X133449444Y-115138292D01*
X133452460Y-115173750D01*
X133454723Y-115268181D01*
X133456199Y-115413806D01*
X133456858Y-115602845D01*
X133456668Y-115827522D01*
X133455596Y-116080058D01*
X133454141Y-116289803D01*
X133444950Y-117427437D01*
X128279141Y-117427437D01*
X123113333Y-117427437D01*
X123113333Y-116275926D01*
X123113333Y-115124415D01*
X128274444Y-115124415D01*
X128855715Y-115124503D01*
G37*
D13*
%TO.C,JP1*%
X103375000Y-114320000D02*
X103375000Y-115740000D01*
X91655000Y-114320000D02*
X103375000Y-114320000D01*
X103375000Y-115740000D02*
X98875000Y-115740000D01*
X98875000Y-115740000D02*
X98875000Y-123130000D01*
X103065000Y-116580000D02*
X103065000Y-117180000D01*
X97765000Y-116630000D02*
X92265000Y-116630000D01*
X92265000Y-116630000D02*
X92265000Y-117130000D01*
X102465000Y-116880000D02*
X103065000Y-116580000D01*
X97765000Y-117130000D02*
X97765000Y-116630000D01*
X92265000Y-117130000D02*
X97765000Y-117130000D01*
X103065000Y-117180000D02*
X102465000Y-116880000D01*
X97765000Y-119130000D02*
X92265000Y-119130000D01*
X92265000Y-119130000D02*
X92265000Y-119630000D01*
X97765000Y-119630000D02*
X97765000Y-119130000D01*
X92265000Y-119630000D02*
X97765000Y-119630000D01*
X97765000Y-121630000D02*
X92265000Y-121630000D01*
X92265000Y-121630000D02*
X92265000Y-122130000D01*
X97765000Y-122130000D02*
X97765000Y-121630000D01*
X92265000Y-122130000D02*
X97765000Y-122130000D01*
X91655000Y-123130000D02*
X91655000Y-114320000D01*
X91655000Y-123130000D02*
X91655000Y-131940000D01*
X97765000Y-124130000D02*
X92265000Y-124130000D01*
X92265000Y-124130000D02*
X92265000Y-124630000D01*
X97765000Y-124630000D02*
X97765000Y-124130000D01*
X92265000Y-124630000D02*
X97765000Y-124630000D01*
X97765000Y-126630000D02*
X92265000Y-126630000D01*
X92265000Y-126630000D02*
X92265000Y-127130000D01*
X97765000Y-127130000D02*
X97765000Y-126630000D01*
X92265000Y-127130000D02*
X97765000Y-127130000D01*
X97765000Y-129130000D02*
X92265000Y-129130000D01*
X92265000Y-129130000D02*
X92265000Y-129630000D01*
X97765000Y-129630000D02*
X97765000Y-129130000D01*
X92265000Y-129630000D02*
X97765000Y-129630000D01*
X103375000Y-130520000D02*
X98875000Y-130520000D01*
X98875000Y-130520000D02*
X98875000Y-123130000D01*
X103375000Y-131940000D02*
X103375000Y-130520000D01*
X91655000Y-131940000D02*
X103375000Y-131940000D01*
%TO.C,R6*%
X164720000Y-106512379D02*
X164720000Y-106847621D01*
X165480000Y-106512379D02*
X165480000Y-106847621D01*
%TO.C,R7*%
X164720000Y-103464379D02*
X164720000Y-103799621D01*
X165480000Y-103464379D02*
X165480000Y-103799621D01*
%TO.C,D2*%
X166584000Y-100369000D02*
X166584000Y-95728000D01*
X169853000Y-100369000D02*
X169853000Y-98859000D01*
X173554000Y-100369000D02*
X173554000Y-98859000D01*
X176824000Y-95728000D02*
X166584000Y-95728000D01*
X176824000Y-98859000D02*
X166584000Y-98859000D01*
X176824000Y-100369000D02*
X166584000Y-100369000D01*
X176824000Y-100369000D02*
X176824000Y-95728000D01*
%TO.C,J3*%
X137160000Y-141750000D02*
X137160000Y-130030000D01*
X137160000Y-130030000D02*
X135740000Y-130030000D01*
X135740000Y-134530000D02*
X133350000Y-134530000D01*
X135740000Y-130030000D02*
X135740000Y-134530000D01*
X134850000Y-141140000D02*
X134850000Y-135640000D01*
X134850000Y-135640000D02*
X134350000Y-135640000D01*
X134350000Y-141140000D02*
X134850000Y-141140000D01*
X134350000Y-135640000D02*
X134350000Y-141140000D01*
X133350000Y-141750000D02*
X137160000Y-141750000D01*
X133350000Y-141750000D02*
X129540000Y-141750000D01*
X132400000Y-130340000D02*
X132100000Y-130940000D01*
X132350000Y-141140000D02*
X132350000Y-135640000D01*
X132350000Y-135640000D02*
X131850000Y-135640000D01*
X132100000Y-130940000D02*
X131800000Y-130340000D01*
X131850000Y-141140000D02*
X132350000Y-141140000D01*
X131850000Y-135640000D02*
X131850000Y-141140000D01*
X131800000Y-130340000D02*
X132400000Y-130340000D01*
X130960000Y-134530000D02*
X133350000Y-134530000D01*
X130960000Y-130030000D02*
X130960000Y-134530000D01*
X129540000Y-141750000D02*
X129540000Y-130030000D01*
X129540000Y-130030000D02*
X130960000Y-130030000D01*
%TO.C,J2*%
X116586000Y-141750000D02*
X116586000Y-130030000D01*
X116586000Y-130030000D02*
X115166000Y-130030000D01*
X115166000Y-134530000D02*
X112776000Y-134530000D01*
X115166000Y-130030000D02*
X115166000Y-134530000D01*
X114276000Y-141140000D02*
X114276000Y-135640000D01*
X114276000Y-135640000D02*
X113776000Y-135640000D01*
X113776000Y-141140000D02*
X114276000Y-141140000D01*
X113776000Y-135640000D02*
X113776000Y-141140000D01*
X112776000Y-141750000D02*
X116586000Y-141750000D01*
X112776000Y-141750000D02*
X108966000Y-141750000D01*
X111826000Y-130340000D02*
X111526000Y-130940000D01*
X111776000Y-141140000D02*
X111776000Y-135640000D01*
X111776000Y-135640000D02*
X111276000Y-135640000D01*
X111526000Y-130940000D02*
X111226000Y-130340000D01*
X111276000Y-141140000D02*
X111776000Y-141140000D01*
X111276000Y-135640000D02*
X111276000Y-141140000D01*
X111226000Y-130340000D02*
X111826000Y-130340000D01*
X110386000Y-134530000D02*
X112776000Y-134530000D01*
X110386000Y-130030000D02*
X110386000Y-134530000D01*
X108966000Y-141750000D02*
X108966000Y-130030000D01*
X108966000Y-130030000D02*
X110386000Y-130030000D01*
%TO.C,J4*%
X157480000Y-141750000D02*
X157480000Y-130030000D01*
X157480000Y-130030000D02*
X156060000Y-130030000D01*
X156060000Y-134530000D02*
X153670000Y-134530000D01*
X156060000Y-130030000D02*
X156060000Y-134530000D01*
X155170000Y-141140000D02*
X155170000Y-135640000D01*
X155170000Y-135640000D02*
X154670000Y-135640000D01*
X154670000Y-141140000D02*
X155170000Y-141140000D01*
X154670000Y-135640000D02*
X154670000Y-141140000D01*
X153670000Y-141750000D02*
X157480000Y-141750000D01*
X153670000Y-141750000D02*
X149860000Y-141750000D01*
X152720000Y-130340000D02*
X152420000Y-130940000D01*
X152670000Y-141140000D02*
X152670000Y-135640000D01*
X152670000Y-135640000D02*
X152170000Y-135640000D01*
X152420000Y-130940000D02*
X152120000Y-130340000D01*
X152170000Y-141140000D02*
X152670000Y-141140000D01*
X152170000Y-135640000D02*
X152170000Y-141140000D01*
X152120000Y-130340000D02*
X152720000Y-130340000D01*
X151280000Y-134530000D02*
X153670000Y-134530000D01*
X151280000Y-130030000D02*
X151280000Y-134530000D01*
X149860000Y-141750000D02*
X149860000Y-130030000D01*
X149860000Y-130030000D02*
X151280000Y-130030000D01*
%TO.C,D1*%
X177293000Y-114346000D02*
X177293000Y-119856000D01*
X180593000Y-114346000D02*
X180593000Y-119856000D01*
X180593000Y-114346000D02*
X177293000Y-114346000D01*
D10*
%TO.C,U1*%
X168580500Y-122660000D02*
X172730500Y-122660000D01*
X168580500Y-127810000D02*
X172730500Y-127810000D01*
D13*
X168155500Y-122735000D02*
X167915500Y-122405000D01*
X168395500Y-122405000D01*
X168155500Y-122735000D01*
G36*
X168155500Y-122735000D02*
G01*
X167915500Y-122405000D01*
X168395500Y-122405000D01*
X168155500Y-122735000D01*
G37*
%TO.C,R5*%
X175304500Y-130635742D02*
X175304500Y-131110258D01*
X174259500Y-130635742D02*
X174259500Y-131110258D01*
%TO.C,R3*%
X177814500Y-130635742D02*
X177814500Y-131110258D01*
X176769500Y-130635742D02*
X176769500Y-131110258D01*
%TO.C,R2*%
X167746000Y-90704564D02*
X167746000Y-89250436D01*
X169566000Y-90704564D02*
X169566000Y-89250436D01*
%TO.C,R1*%
X164456000Y-90704564D02*
X164456000Y-89250436D01*
X166276000Y-90704564D02*
X166276000Y-89250436D01*
%TO.C,Q1*%
X167600000Y-107403000D02*
X167600000Y-112044000D01*
X167600000Y-107403000D02*
X177840000Y-107403000D01*
X167600000Y-108913000D02*
X177840000Y-108913000D01*
X167600000Y-112044000D02*
X177840000Y-112044000D01*
X170870000Y-107403000D02*
X170870000Y-108913000D01*
X174571000Y-107403000D02*
X174571000Y-108913000D01*
X177840000Y-107403000D02*
X177840000Y-112044000D01*
D14*
%TO.C,L1*%
X166788000Y-120340000D02*
X174588000Y-120340000D01*
X174588000Y-113340000D02*
X166788000Y-113340000D01*
D15*
%TO.C,J5*%
X186436000Y-111252000D02*
X179136000Y-111252000D01*
X179136000Y-103752000D02*
X186436000Y-103752000D01*
X179136000Y-103752000D02*
X179136000Y-111252000D01*
X186436000Y-103752000D02*
X186436000Y-111252000D01*
D14*
X182936000Y-111902000D02*
G75*
G02*
X182736000Y-111902000I-100000J0D01*
G01*
X182736000Y-111902000D02*
G75*
G02*
X182936000Y-111902000I100000J0D01*
G01*
D15*
%TO.C,J1*%
X186530000Y-102014500D02*
X179230000Y-102014500D01*
X179230000Y-94514500D02*
X186530000Y-94514500D01*
X179230000Y-94514500D02*
X179230000Y-102014500D01*
X186530000Y-94514500D02*
X186530000Y-102014500D01*
D14*
X183030000Y-102664500D02*
G75*
G02*
X182830000Y-102664500I-100000J0D01*
G01*
X182830000Y-102664500D02*
G75*
G02*
X183030000Y-102664500I100000J0D01*
G01*
D13*
%TO.C,F1*%
X175366000Y-104234064D02*
X175366000Y-103029936D01*
X177186000Y-104234064D02*
X177186000Y-103029936D01*
%TO.C,C5*%
X170407000Y-130294748D02*
X170407000Y-130817252D01*
X168937000Y-130294748D02*
X168937000Y-130817252D01*
%TO.C,C4*%
X185068000Y-120840302D02*
X185068000Y-121640302D01*
X185468000Y-121240302D02*
X184668000Y-121240302D01*
X186833000Y-125250000D02*
X178673000Y-125250000D01*
X186833000Y-125290000D02*
X178673000Y-125290000D01*
X186833000Y-125330000D02*
X178673000Y-125330000D01*
X186832000Y-125370000D02*
X178674000Y-125370000D01*
X186830000Y-125410000D02*
X178676000Y-125410000D01*
X186829000Y-125450000D02*
X178677000Y-125450000D01*
X186827000Y-125490000D02*
X178679000Y-125490000D01*
X186824000Y-125530000D02*
X178682000Y-125530000D01*
X186821000Y-125570000D02*
X178685000Y-125570000D01*
X186818000Y-125610000D02*
X178688000Y-125610000D01*
X186814000Y-125650000D02*
X178692000Y-125650000D01*
X186810000Y-125690000D02*
X178696000Y-125690000D01*
X186805000Y-125730000D02*
X178701000Y-125730000D01*
X186801000Y-125770000D02*
X178705000Y-125770000D01*
X186795000Y-125810000D02*
X178711000Y-125810000D01*
X186790000Y-125850000D02*
X178716000Y-125850000D01*
X186783000Y-125890000D02*
X178723000Y-125890000D01*
X186777000Y-125930000D02*
X178729000Y-125930000D01*
X186770000Y-125971000D02*
X183793000Y-125971000D01*
X181713000Y-125971000D02*
X178736000Y-125971000D01*
X186763000Y-126011000D02*
X183793000Y-126011000D01*
X181713000Y-126011000D02*
X178743000Y-126011000D01*
X186755000Y-126051000D02*
X183793000Y-126051000D01*
X181713000Y-126051000D02*
X178751000Y-126051000D01*
X186747000Y-126091000D02*
X183793000Y-126091000D01*
X181713000Y-126091000D02*
X178759000Y-126091000D01*
X186738000Y-126131000D02*
X183793000Y-126131000D01*
X181713000Y-126131000D02*
X178768000Y-126131000D01*
X186729000Y-126171000D02*
X183793000Y-126171000D01*
X181713000Y-126171000D02*
X178777000Y-126171000D01*
X186720000Y-126211000D02*
X183793000Y-126211000D01*
X181713000Y-126211000D02*
X178786000Y-126211000D01*
X186710000Y-126251000D02*
X183793000Y-126251000D01*
X181713000Y-126251000D02*
X178796000Y-126251000D01*
X186700000Y-126291000D02*
X183793000Y-126291000D01*
X181713000Y-126291000D02*
X178806000Y-126291000D01*
X186689000Y-126331000D02*
X183793000Y-126331000D01*
X181713000Y-126331000D02*
X178817000Y-126331000D01*
X186678000Y-126371000D02*
X183793000Y-126371000D01*
X181713000Y-126371000D02*
X178828000Y-126371000D01*
X186667000Y-126411000D02*
X183793000Y-126411000D01*
X181713000Y-126411000D02*
X178839000Y-126411000D01*
X186655000Y-126451000D02*
X183793000Y-126451000D01*
X181713000Y-126451000D02*
X178851000Y-126451000D01*
X186642000Y-126491000D02*
X183793000Y-126491000D01*
X181713000Y-126491000D02*
X178864000Y-126491000D01*
X186630000Y-126531000D02*
X183793000Y-126531000D01*
X181713000Y-126531000D02*
X178876000Y-126531000D01*
X186616000Y-126571000D02*
X183793000Y-126571000D01*
X181713000Y-126571000D02*
X178890000Y-126571000D01*
X186603000Y-126611000D02*
X183793000Y-126611000D01*
X181713000Y-126611000D02*
X178903000Y-126611000D01*
X186588000Y-126651000D02*
X183793000Y-126651000D01*
X181713000Y-126651000D02*
X178918000Y-126651000D01*
X186574000Y-126691000D02*
X183793000Y-126691000D01*
X181713000Y-126691000D02*
X178932000Y-126691000D01*
X186558000Y-126731000D02*
X183793000Y-126731000D01*
X181713000Y-126731000D02*
X178948000Y-126731000D01*
X186543000Y-126771000D02*
X183793000Y-126771000D01*
X181713000Y-126771000D02*
X178963000Y-126771000D01*
X186527000Y-126811000D02*
X183793000Y-126811000D01*
X181713000Y-126811000D02*
X178979000Y-126811000D01*
X186510000Y-126851000D02*
X183793000Y-126851000D01*
X181713000Y-126851000D02*
X178996000Y-126851000D01*
X186493000Y-126891000D02*
X183793000Y-126891000D01*
X181713000Y-126891000D02*
X179013000Y-126891000D01*
X186475000Y-126931000D02*
X183793000Y-126931000D01*
X181713000Y-126931000D02*
X179031000Y-126931000D01*
X186457000Y-126971000D02*
X183793000Y-126971000D01*
X181713000Y-126971000D02*
X179049000Y-126971000D01*
X186439000Y-127011000D02*
X183793000Y-127011000D01*
X181713000Y-127011000D02*
X179067000Y-127011000D01*
X186419000Y-127051000D02*
X183793000Y-127051000D01*
X181713000Y-127051000D02*
X179087000Y-127051000D01*
X186400000Y-127091000D02*
X183793000Y-127091000D01*
X181713000Y-127091000D02*
X179106000Y-127091000D01*
X186380000Y-127131000D02*
X183793000Y-127131000D01*
X181713000Y-127131000D02*
X179126000Y-127131000D01*
X186359000Y-127171000D02*
X183793000Y-127171000D01*
X181713000Y-127171000D02*
X179147000Y-127171000D01*
X186337000Y-127211000D02*
X183793000Y-127211000D01*
X181713000Y-127211000D02*
X179169000Y-127211000D01*
X186315000Y-127251000D02*
X183793000Y-127251000D01*
X181713000Y-127251000D02*
X179191000Y-127251000D01*
X186293000Y-127291000D02*
X183793000Y-127291000D01*
X181713000Y-127291000D02*
X179213000Y-127291000D01*
X186270000Y-127331000D02*
X183793000Y-127331000D01*
X181713000Y-127331000D02*
X179236000Y-127331000D01*
X186246000Y-127371000D02*
X183793000Y-127371000D01*
X181713000Y-127371000D02*
X179260000Y-127371000D01*
X186222000Y-127411000D02*
X183793000Y-127411000D01*
X181713000Y-127411000D02*
X179284000Y-127411000D01*
X186197000Y-127451000D02*
X183793000Y-127451000D01*
X181713000Y-127451000D02*
X179309000Y-127451000D01*
X186171000Y-127491000D02*
X183793000Y-127491000D01*
X181713000Y-127491000D02*
X179335000Y-127491000D01*
X186145000Y-127531000D02*
X183793000Y-127531000D01*
X181713000Y-127531000D02*
X179361000Y-127531000D01*
X186118000Y-127571000D02*
X183793000Y-127571000D01*
X181713000Y-127571000D02*
X179388000Y-127571000D01*
X186091000Y-127611000D02*
X183793000Y-127611000D01*
X181713000Y-127611000D02*
X179415000Y-127611000D01*
X186062000Y-127651000D02*
X183793000Y-127651000D01*
X181713000Y-127651000D02*
X179444000Y-127651000D01*
X186033000Y-127691000D02*
X183793000Y-127691000D01*
X181713000Y-127691000D02*
X179473000Y-127691000D01*
X186003000Y-127731000D02*
X183793000Y-127731000D01*
X181713000Y-127731000D02*
X179503000Y-127731000D01*
X185973000Y-127771000D02*
X183793000Y-127771000D01*
X181713000Y-127771000D02*
X179533000Y-127771000D01*
X185942000Y-127811000D02*
X183793000Y-127811000D01*
X181713000Y-127811000D02*
X179564000Y-127811000D01*
X185909000Y-127851000D02*
X183793000Y-127851000D01*
X181713000Y-127851000D02*
X179597000Y-127851000D01*
X185877000Y-127891000D02*
X183793000Y-127891000D01*
X181713000Y-127891000D02*
X179629000Y-127891000D01*
X185843000Y-127931000D02*
X183793000Y-127931000D01*
X181713000Y-127931000D02*
X179663000Y-127931000D01*
X185808000Y-127971000D02*
X183793000Y-127971000D01*
X181713000Y-127971000D02*
X179698000Y-127971000D01*
X185772000Y-128011000D02*
X183793000Y-128011000D01*
X181713000Y-128011000D02*
X179734000Y-128011000D01*
X185736000Y-128051000D02*
X179770000Y-128051000D01*
X185698000Y-128091000D02*
X179808000Y-128091000D01*
X185660000Y-128131000D02*
X179846000Y-128131000D01*
X185620000Y-128171000D02*
X179886000Y-128171000D01*
X185579000Y-128211000D02*
X179927000Y-128211000D01*
X185537000Y-128251000D02*
X179969000Y-128251000D01*
X185494000Y-128291000D02*
X180012000Y-128291000D01*
X185450000Y-128331000D02*
X180056000Y-128331000D01*
X185404000Y-128371000D02*
X180102000Y-128371000D01*
X185357000Y-128411000D02*
X180149000Y-128411000D01*
X185309000Y-128451000D02*
X180197000Y-128451000D01*
X185258000Y-128491000D02*
X180248000Y-128491000D01*
X185207000Y-128531000D02*
X180299000Y-128531000D01*
X185153000Y-128571000D02*
X180353000Y-128571000D01*
X185098000Y-128611000D02*
X180408000Y-128611000D01*
X185040000Y-128651000D02*
X180466000Y-128651000D01*
X184981000Y-128691000D02*
X180525000Y-128691000D01*
X184919000Y-128731000D02*
X180587000Y-128731000D01*
X184855000Y-128771000D02*
X180651000Y-128771000D01*
X184787000Y-128811000D02*
X180719000Y-128811000D01*
X184717000Y-128851000D02*
X180789000Y-128851000D01*
X184643000Y-128891000D02*
X180863000Y-128891000D01*
X184566000Y-128931000D02*
X180940000Y-128931000D01*
X184484000Y-128971000D02*
X181022000Y-128971000D01*
X184398000Y-129011000D02*
X181108000Y-129011000D01*
X184305000Y-129051000D02*
X181201000Y-129051000D01*
X184206000Y-129091000D02*
X181300000Y-129091000D01*
X184099000Y-129131000D02*
X181407000Y-129131000D01*
X183982000Y-129171000D02*
X181524000Y-129171000D01*
X183851000Y-129211000D02*
X181655000Y-129211000D01*
X183701000Y-129251000D02*
X181805000Y-129251000D01*
X183521000Y-129291000D02*
X181985000Y-129291000D01*
X183286000Y-129331000D02*
X182220000Y-129331000D01*
X186873000Y-125250000D02*
G75*
G02*
X178633000Y-125250000I-4120000J0D01*
G01*
X178633000Y-125250000D02*
G75*
G02*
X186873000Y-125250000I4120000J0D01*
G01*
%TO.C,C3*%
X177138000Y-125236248D02*
X177138000Y-125758752D01*
X175668000Y-125236248D02*
X175668000Y-125758752D01*
%TO.C,C2*%
X165051000Y-126243225D02*
X165051000Y-126743225D01*
X165301000Y-126493225D02*
X164801000Y-126493225D01*
X166156000Y-129048000D02*
X164616000Y-129048000D01*
X162536000Y-129048000D02*
X160996000Y-129048000D01*
X166156000Y-129088000D02*
X164616000Y-129088000D01*
X162536000Y-129088000D02*
X160996000Y-129088000D01*
X166155000Y-129128000D02*
X164616000Y-129128000D01*
X162536000Y-129128000D02*
X160997000Y-129128000D01*
X166154000Y-129168000D02*
X164616000Y-129168000D01*
X162536000Y-129168000D02*
X160998000Y-129168000D01*
X166152000Y-129208000D02*
X164616000Y-129208000D01*
X162536000Y-129208000D02*
X161000000Y-129208000D01*
X166149000Y-129248000D02*
X164616000Y-129248000D01*
X162536000Y-129248000D02*
X161003000Y-129248000D01*
X166145000Y-129288000D02*
X164616000Y-129288000D01*
X162536000Y-129288000D02*
X161007000Y-129288000D01*
X166141000Y-129328000D02*
X164616000Y-129328000D01*
X162536000Y-129328000D02*
X161011000Y-129328000D01*
X166137000Y-129368000D02*
X164616000Y-129368000D01*
X162536000Y-129368000D02*
X161015000Y-129368000D01*
X166132000Y-129408000D02*
X164616000Y-129408000D01*
X162536000Y-129408000D02*
X161020000Y-129408000D01*
X166126000Y-129448000D02*
X164616000Y-129448000D01*
X162536000Y-129448000D02*
X161026000Y-129448000D01*
X166119000Y-129488000D02*
X164616000Y-129488000D01*
X162536000Y-129488000D02*
X161033000Y-129488000D01*
X166112000Y-129528000D02*
X164616000Y-129528000D01*
X162536000Y-129528000D02*
X161040000Y-129528000D01*
X166104000Y-129568000D02*
X164616000Y-129568000D01*
X162536000Y-129568000D02*
X161048000Y-129568000D01*
X166096000Y-129608000D02*
X164616000Y-129608000D01*
X162536000Y-129608000D02*
X161056000Y-129608000D01*
X166087000Y-129648000D02*
X164616000Y-129648000D01*
X162536000Y-129648000D02*
X161065000Y-129648000D01*
X166077000Y-129688000D02*
X164616000Y-129688000D01*
X162536000Y-129688000D02*
X161075000Y-129688000D01*
X166067000Y-129728000D02*
X164616000Y-129728000D01*
X162536000Y-129728000D02*
X161085000Y-129728000D01*
X166056000Y-129769000D02*
X164616000Y-129769000D01*
X162536000Y-129769000D02*
X161096000Y-129769000D01*
X166044000Y-129809000D02*
X164616000Y-129809000D01*
X162536000Y-129809000D02*
X161108000Y-129809000D01*
X166031000Y-129849000D02*
X164616000Y-129849000D01*
X162536000Y-129849000D02*
X161121000Y-129849000D01*
X166018000Y-129889000D02*
X164616000Y-129889000D01*
X162536000Y-129889000D02*
X161134000Y-129889000D01*
X166004000Y-129929000D02*
X164616000Y-129929000D01*
X162536000Y-129929000D02*
X161148000Y-129929000D01*
X165990000Y-129969000D02*
X164616000Y-129969000D01*
X162536000Y-129969000D02*
X161162000Y-129969000D01*
X165974000Y-130009000D02*
X164616000Y-130009000D01*
X162536000Y-130009000D02*
X161178000Y-130009000D01*
X165958000Y-130049000D02*
X164616000Y-130049000D01*
X162536000Y-130049000D02*
X161194000Y-130049000D01*
X165941000Y-130089000D02*
X164616000Y-130089000D01*
X162536000Y-130089000D02*
X161211000Y-130089000D01*
X165924000Y-130129000D02*
X164616000Y-130129000D01*
X162536000Y-130129000D02*
X161228000Y-130129000D01*
X165905000Y-130169000D02*
X164616000Y-130169000D01*
X162536000Y-130169000D02*
X161247000Y-130169000D01*
X165886000Y-130209000D02*
X164616000Y-130209000D01*
X162536000Y-130209000D02*
X161266000Y-130209000D01*
X165866000Y-130249000D02*
X164616000Y-130249000D01*
X162536000Y-130249000D02*
X161286000Y-130249000D01*
X165844000Y-130289000D02*
X164616000Y-130289000D01*
X162536000Y-130289000D02*
X161308000Y-130289000D01*
X165823000Y-130329000D02*
X164616000Y-130329000D01*
X162536000Y-130329000D02*
X161329000Y-130329000D01*
X165800000Y-130369000D02*
X164616000Y-130369000D01*
X162536000Y-130369000D02*
X161352000Y-130369000D01*
X165776000Y-130409000D02*
X164616000Y-130409000D01*
X162536000Y-130409000D02*
X161376000Y-130409000D01*
X165751000Y-130449000D02*
X164616000Y-130449000D01*
X162536000Y-130449000D02*
X161401000Y-130449000D01*
X165725000Y-130489000D02*
X164616000Y-130489000D01*
X162536000Y-130489000D02*
X161427000Y-130489000D01*
X165698000Y-130529000D02*
X164616000Y-130529000D01*
X162536000Y-130529000D02*
X161454000Y-130529000D01*
X165671000Y-130569000D02*
X164616000Y-130569000D01*
X162536000Y-130569000D02*
X161481000Y-130569000D01*
X165641000Y-130609000D02*
X164616000Y-130609000D01*
X162536000Y-130609000D02*
X161511000Y-130609000D01*
X165611000Y-130649000D02*
X164616000Y-130649000D01*
X162536000Y-130649000D02*
X161541000Y-130649000D01*
X165580000Y-130689000D02*
X164616000Y-130689000D01*
X162536000Y-130689000D02*
X161572000Y-130689000D01*
X165547000Y-130729000D02*
X164616000Y-130729000D01*
X162536000Y-130729000D02*
X161605000Y-130729000D01*
X165513000Y-130769000D02*
X164616000Y-130769000D01*
X162536000Y-130769000D02*
X161639000Y-130769000D01*
X165477000Y-130809000D02*
X164616000Y-130809000D01*
X162536000Y-130809000D02*
X161675000Y-130809000D01*
X165440000Y-130849000D02*
X164616000Y-130849000D01*
X162536000Y-130849000D02*
X161712000Y-130849000D01*
X165402000Y-130889000D02*
X164616000Y-130889000D01*
X162536000Y-130889000D02*
X161750000Y-130889000D01*
X165361000Y-130929000D02*
X164616000Y-130929000D01*
X162536000Y-130929000D02*
X161791000Y-130929000D01*
X165319000Y-130969000D02*
X164616000Y-130969000D01*
X162536000Y-130969000D02*
X161833000Y-130969000D01*
X165275000Y-131009000D02*
X164616000Y-131009000D01*
X162536000Y-131009000D02*
X161877000Y-131009000D01*
X165229000Y-131049000D02*
X164616000Y-131049000D01*
X162536000Y-131049000D02*
X161923000Y-131049000D01*
X165181000Y-131089000D02*
X161971000Y-131089000D01*
X165130000Y-131129000D02*
X162022000Y-131129000D01*
X165076000Y-131169000D02*
X162076000Y-131169000D01*
X165019000Y-131209000D02*
X162133000Y-131209000D01*
X164959000Y-131249000D02*
X162193000Y-131249000D01*
X164895000Y-131289000D02*
X162257000Y-131289000D01*
X164827000Y-131329000D02*
X162325000Y-131329000D01*
X164754000Y-131369000D02*
X162398000Y-131369000D01*
X164674000Y-131409000D02*
X162478000Y-131409000D01*
X164587000Y-131449000D02*
X162565000Y-131449000D01*
X164491000Y-131489000D02*
X162661000Y-131489000D01*
X164381000Y-131529000D02*
X162771000Y-131529000D01*
X164253000Y-131569000D02*
X162899000Y-131569000D01*
X164094000Y-131609000D02*
X163058000Y-131609000D01*
X163860000Y-131649000D02*
X163292000Y-131649000D01*
X166196000Y-129048000D02*
G75*
G02*
X160956000Y-129048000I-2620000J0D01*
G01*
X160956000Y-129048000D02*
G75*
G02*
X166196000Y-129048000I2620000J0D01*
G01*
%TO.C,C1*%
X170803835Y-121772000D02*
X170572165Y-121772000D01*
X170803835Y-121052000D02*
X170572165Y-121052000D01*
D14*
%TO.C,IC1*%
X105256000Y-110104000D02*
G75*
G02*
X105156000Y-110104000I-50000J0D01*
G01*
X105156000Y-110104000D02*
X105156000Y-110104000D01*
X105156000Y-110104000D02*
G75*
G02*
X105256000Y-110104000I50000J0D01*
G01*
X105256000Y-110104000D02*
X105256000Y-110104000D01*
X105256000Y-110104000D02*
G75*
G02*
X105156000Y-110104000I-50000J0D01*
G01*
X105156000Y-110104000D02*
X105156000Y-110104000D01*
X98806000Y-91694000D02*
X98806000Y-109474000D01*
X159766000Y-91694000D02*
X98806000Y-91694000D01*
X159766000Y-109474000D02*
X159766000Y-91694000D01*
X98806000Y-109474000D02*
X159766000Y-109474000D01*
%TD*%
M02*
