%TF.GenerationSoftware,KiCad,Pcbnew,9.0.0*%
%TF.CreationDate,2026-02-26T13:37:48-05:00*%
%TF.ProjectId,CapstoneMk2,43617073-746f-46e6-954d-6b322e6b6963,rev?*%
%TF.SameCoordinates,Original*%
%TF.FileFunction,Soldermask,Bot*%
%TF.FilePolarity,Negative*%
%FSLAX46Y46*%
G04 Gerber Fmt 4.6, Leading zero omitted, Abs format (unit mm)*
G04 Created by KiCad (PCBNEW 9.0.0) date 2026-02-26 13:37:48*
%MOMM*%
%LPD*%
G01*
G04 APERTURE LIST*
G04 Aperture macros list*
%AMRoundRect*
0 Rectangle with rounded corners*
0 $1 Rounding radius*
0 $2 $3 $4 $5 $6 $7 $8 $9 X,Y pos of 4 corners*
0 Add a 4 corners polygon primitive as box body*
4,1,4,$2,$3,$4,$5,$6,$7,$8,$9,$2,$3,0*
0 Add four circle primitives for the rounded corners*
1,1,$1+$1,$2,$3*
1,1,$1+$1,$4,$5*
1,1,$1+$1,$6,$7*
1,1,$1+$1,$8,$9*
0 Add four rect primitives between the rounded corners*
20,1,$1+$1,$2,$3,$4,$5,0*
20,1,$1+$1,$4,$5,$6,$7,0*
20,1,$1+$1,$6,$7,$8,$9,0*
20,1,$1+$1,$8,$9,$2,$3,0*%
G04 Aperture macros list end*
%ADD10RoundRect,0.250000X-0.725000X0.600000X-0.725000X-0.600000X0.725000X-0.600000X0.725000X0.600000X0*%
%ADD11O,1.950000X1.700000*%
%ADD12C,2.000000*%
%ADD13R,2.000000X2.000000*%
%ADD14O,1.700000X2.000000*%
%ADD15RoundRect,0.250000X-0.600000X-0.750000X0.600000X-0.750000X0.600000X0.750000X-0.600000X0.750000X0*%
%ADD16R,1.905000X2.000000*%
%ADD17O,1.905000X2.000000*%
%ADD18R,1.650000X1.650000*%
%ADD19C,1.650000*%
%ADD20C,0.800000*%
%ADD21C,6.400000*%
%ADD22C,1.800000*%
%ADD23C,4.050000*%
%ADD24R,1.600000X1.600000*%
%ADD25C,1.600000*%
%ADD26C,1.665000*%
G04 APERTURE END LIST*
D10*
%TO.C,JP1*%
X100965000Y-116880000D03*
D11*
X100965000Y-119380000D03*
X100965000Y-121880000D03*
X100965000Y-124380000D03*
X100965000Y-126880000D03*
X100965000Y-129380000D03*
%TD*%
D12*
%TO.C,D2*%
X169164000Y-97099000D03*
D13*
X174244000Y-97099000D03*
%TD*%
D14*
%TO.C,J3*%
X134600000Y-132440000D03*
D15*
X132100000Y-132440000D03*
%TD*%
D14*
%TO.C,J2*%
X114026000Y-132440000D03*
D15*
X111526000Y-132440000D03*
%TD*%
D14*
%TO.C,J4*%
X154920000Y-132440000D03*
D15*
X152420000Y-132440000D03*
%TD*%
D16*
%TO.C,Q1*%
X170180000Y-110673000D03*
D17*
X172720000Y-110673000D03*
X175260000Y-110673000D03*
%TD*%
D18*
%TO.C,J5*%
X182836000Y-109252000D03*
D19*
X182836000Y-105752000D03*
%TD*%
D18*
%TO.C,J1*%
X182930000Y-100014500D03*
D19*
X182930000Y-96514500D03*
%TD*%
D20*
%TO.C,H4*%
X181890000Y-137160000D03*
X182592944Y-135462944D03*
X182592944Y-138857056D03*
X184290000Y-134760000D03*
D21*
X184290000Y-137160000D03*
D20*
X184290000Y-139560000D03*
X185987056Y-135462944D03*
X185987056Y-138857056D03*
X186690000Y-137160000D03*
%TD*%
%TO.C,H3*%
X181750000Y-45720000D03*
X182452944Y-44022944D03*
X182452944Y-47417056D03*
X184150000Y-43320000D03*
D21*
X184150000Y-45720000D03*
D20*
X184150000Y-48120000D03*
X185847056Y-44022944D03*
X185847056Y-47417056D03*
X186550000Y-45720000D03*
%TD*%
%TO.C,H2*%
X94120000Y-137160000D03*
X94822944Y-135462944D03*
X94822944Y-138857056D03*
X96520000Y-134760000D03*
D21*
X96520000Y-137160000D03*
D20*
X96520000Y-139560000D03*
X98217056Y-135462944D03*
X98217056Y-138857056D03*
X98920000Y-137160000D03*
%TD*%
%TO.C,H1*%
X94120000Y-45720000D03*
X94822944Y-44022944D03*
X94822944Y-47417056D03*
X96520000Y-43320000D03*
D21*
X96520000Y-45720000D03*
D20*
X96520000Y-48120000D03*
X98217056Y-44022944D03*
X98217056Y-47417056D03*
X98920000Y-45720000D03*
%TD*%
D22*
%TO.C,DS1*%
X173939200Y-50802000D03*
X171399200Y-50802000D03*
X168859200Y-50802000D03*
X166319200Y-50802000D03*
X163779200Y-50802000D03*
X161239200Y-50802000D03*
X158699200Y-50802000D03*
X156159200Y-50802000D03*
X153619200Y-50802000D03*
X151079200Y-50802000D03*
X148539200Y-50802000D03*
X145999200Y-50802000D03*
X143459200Y-50802000D03*
X140919200Y-50802000D03*
X138379200Y-50802000D03*
X135839200Y-50802000D03*
X173939200Y-82802000D03*
X171399200Y-82802000D03*
X168859200Y-82802000D03*
X166319200Y-82802000D03*
X163779200Y-82802000D03*
X161239200Y-82802000D03*
X158699200Y-82802000D03*
X156159200Y-82802000D03*
X153619200Y-82802000D03*
X151079200Y-82802000D03*
X148539200Y-82802000D03*
X145999200Y-82802000D03*
X143459200Y-82802000D03*
X140919200Y-82802000D03*
X138379200Y-82802000D03*
X135839200Y-82802000D03*
D23*
X179439200Y-82302000D03*
X104439200Y-82302000D03*
X179439200Y-51302000D03*
X104439200Y-51302000D03*
%TD*%
D24*
%TO.C,C4*%
X182753000Y-123500000D03*
D25*
X182753000Y-127000000D03*
%TD*%
D24*
%TO.C,C2*%
X163576000Y-128048000D03*
D25*
X163576000Y-130048000D03*
%TD*%
D26*
%TO.C,IC1*%
X100076000Y-108204000D03*
X102616000Y-92964000D03*
X135636000Y-92964000D03*
X102616000Y-95504000D03*
X102616000Y-108204000D03*
X100076000Y-92964000D03*
X105156000Y-92964000D03*
X106426000Y-105154000D03*
X108966000Y-105154000D03*
X111506000Y-105154000D03*
X114046000Y-105154000D03*
X116586000Y-105154000D03*
X145796000Y-95504000D03*
X145796000Y-98044000D03*
X145796000Y-100584000D03*
X145796000Y-103124000D03*
X145796000Y-105664000D03*
X135636000Y-108204000D03*
X138176000Y-92964000D03*
X140716000Y-92964000D03*
X143256000Y-92964000D03*
X145796000Y-92964000D03*
X148336000Y-92964000D03*
X150876000Y-92964000D03*
X153416000Y-92964000D03*
X155956000Y-92964000D03*
X158496000Y-92964000D03*
X158496000Y-108204000D03*
X155956000Y-108204000D03*
X153416000Y-108204000D03*
X150876000Y-108204000D03*
X148336000Y-108204000D03*
X145796000Y-108204000D03*
X143256000Y-108204000D03*
X140716000Y-108204000D03*
X138176000Y-108204000D03*
X107696000Y-92964000D03*
X110236000Y-92964000D03*
X112776000Y-92964000D03*
X115316000Y-92964000D03*
X117856000Y-92964000D03*
X120396000Y-92964000D03*
X122936000Y-92964000D03*
X125476000Y-92964000D03*
X128016000Y-92964000D03*
X130556000Y-92964000D03*
X133096000Y-92964000D03*
X133096000Y-108204000D03*
X130556000Y-108204000D03*
X128016000Y-108204000D03*
X125476000Y-108204000D03*
X122936000Y-108204000D03*
X120396000Y-108204000D03*
X117856000Y-108204000D03*
X115316000Y-108204000D03*
X112776000Y-108204000D03*
X110236000Y-108204000D03*
X107696000Y-108204000D03*
X105156000Y-108204000D03*
%TD*%
M02*
