%TF.GenerationSoftware,KiCad,Pcbnew,9.0.0*%
%TF.CreationDate,2026-02-26T13:37:48-05:00*%
%TF.ProjectId,CapstoneMk2,43617073-746f-46e6-954d-6b322e6b6963,rev?*%
%TF.SameCoordinates,Original*%
%TF.FileFunction,Copper,L1,Top*%
%TF.FilePolarity,Positive*%
%FSLAX46Y46*%
G04 Gerber Fmt 4.6, Leading zero omitted, Abs format (unit mm)*
G04 Created by KiCad (PCBNEW 9.0.0) date 2026-02-26 13:37:48*
%MOMM*%
%LPD*%
G01*
G04 APERTURE LIST*
G04 Aperture macros list*
%AMRoundRect*
0 Rectangle with rounded corners*
0 $1 Rounding radius*
0 $2 $3 $4 $5 $6 $7 $8 $9 X,Y pos of 4 corners*
0 Add a 4 corners polygon primitive as box body*
4,1,4,$2,$3,$4,$5,$6,$7,$8,$9,$2,$3,0*
0 Add four circle primitives for the rounded corners*
1,1,$1+$1,$2,$3*
1,1,$1+$1,$4,$5*
1,1,$1+$1,$6,$7*
1,1,$1+$1,$8,$9*
0 Add four rect primitives between the rounded corners*
20,1,$1+$1,$2,$3,$4,$5,0*
20,1,$1+$1,$4,$5,$6,$7,0*
20,1,$1+$1,$6,$7,$8,$9,0*
20,1,$1+$1,$8,$9,$2,$3,0*%
G04 Aperture macros list end*
%TA.AperFunction,ComponentPad*%
%ADD10RoundRect,0.250000X-0.725000X0.600000X-0.725000X-0.600000X0.725000X-0.600000X0.725000X0.600000X0*%
%TD*%
%TA.AperFunction,ComponentPad*%
%ADD11O,1.950000X1.700000*%
%TD*%
%TA.AperFunction,SMDPad,CuDef*%
%ADD12RoundRect,0.160000X-0.160000X0.197500X-0.160000X-0.197500X0.160000X-0.197500X0.160000X0.197500X0*%
%TD*%
%TA.AperFunction,ComponentPad*%
%ADD13C,2.000000*%
%TD*%
%TA.AperFunction,ComponentPad*%
%ADD14R,2.000000X2.000000*%
%TD*%
%TA.AperFunction,ComponentPad*%
%ADD15O,1.700000X2.000000*%
%TD*%
%TA.AperFunction,ComponentPad*%
%ADD16RoundRect,0.250000X-0.600000X-0.750000X0.600000X-0.750000X0.600000X0.750000X-0.600000X0.750000X0*%
%TD*%
%TA.AperFunction,SMDPad,CuDef*%
%ADD17RoundRect,0.250000X-0.650000X1.000000X-0.650000X-1.000000X0.650000X-1.000000X0.650000X1.000000X0*%
%TD*%
%TA.AperFunction,SMDPad,CuDef*%
%ADD18R,1.910000X0.610000*%
%TD*%
%TA.AperFunction,SMDPad,CuDef*%
%ADD19R,1.205000X1.550000*%
%TD*%
%TA.AperFunction,SMDPad,CuDef*%
%ADD20RoundRect,0.200000X-0.275000X0.200000X-0.275000X-0.200000X0.275000X-0.200000X0.275000X0.200000X0*%
%TD*%
%TA.AperFunction,SMDPad,CuDef*%
%ADD21RoundRect,0.250000X0.625000X-0.312500X0.625000X0.312500X-0.625000X0.312500X-0.625000X-0.312500X0*%
%TD*%
%TA.AperFunction,ComponentPad*%
%ADD22R,1.905000X2.000000*%
%TD*%
%TA.AperFunction,ComponentPad*%
%ADD23O,1.905000X2.000000*%
%TD*%
%TA.AperFunction,SMDPad,CuDef*%
%ADD24R,2.700000X2.500000*%
%TD*%
%TA.AperFunction,ComponentPad*%
%ADD25R,1.650000X1.650000*%
%TD*%
%TA.AperFunction,ComponentPad*%
%ADD26C,1.650000*%
%TD*%
%TA.AperFunction,ComponentPad*%
%ADD27C,0.800000*%
%TD*%
%TA.AperFunction,ComponentPad*%
%ADD28C,6.400000*%
%TD*%
%TA.AperFunction,SMDPad,CuDef*%
%ADD29RoundRect,0.250000X0.625000X-0.375000X0.625000X0.375000X-0.625000X0.375000X-0.625000X-0.375000X0*%
%TD*%
%TA.AperFunction,ComponentPad*%
%ADD30C,1.800000*%
%TD*%
%TA.AperFunction,ComponentPad*%
%ADD31C,4.050000*%
%TD*%
%TA.AperFunction,SMDPad,CuDef*%
%ADD32RoundRect,0.250000X-0.475000X0.337500X-0.475000X-0.337500X0.475000X-0.337500X0.475000X0.337500X0*%
%TD*%
%TA.AperFunction,ComponentPad*%
%ADD33R,1.600000X1.600000*%
%TD*%
%TA.AperFunction,ComponentPad*%
%ADD34C,1.600000*%
%TD*%
%TA.AperFunction,SMDPad,CuDef*%
%ADD35RoundRect,0.155000X0.212500X0.155000X-0.212500X0.155000X-0.212500X-0.155000X0.212500X-0.155000X0*%
%TD*%
%TA.AperFunction,ComponentPad*%
%ADD36C,1.665000*%
%TD*%
%TA.AperFunction,ViaPad*%
%ADD37C,0.600000*%
%TD*%
%TA.AperFunction,Conductor*%
%ADD38C,0.330000*%
%TD*%
%TA.AperFunction,Conductor*%
%ADD39C,0.500000*%
%TD*%
%TA.AperFunction,Conductor*%
%ADD40C,2.000000*%
%TD*%
G04 APERTURE END LIST*
D10*
%TO.P,JP1,1,Vin*%
%TO.N,/3.3V*%
X100965000Y-116880000D03*
D11*
%TO.P,JP1,2,GND*%
%TO.N,GND*%
X100965000Y-119380000D03*
%TO.P,JP1,3,SCL*%
%TO.N,/SCL*%
X100965000Y-121880000D03*
%TO.P,JP1,4,SDA*%
%TO.N,/SDA*%
X100965000Y-124380000D03*
%TO.P,JP1,5,GPIO*%
%TO.N,/GPIO*%
X100965000Y-126880000D03*
%TO.P,JP1,6,XSHUT*%
%TO.N,/XSHUT*%
X100965000Y-129380000D03*
%TD*%
D12*
%TO.P,R6,2*%
%TO.N,GND*%
X165100000Y-107277500D03*
%TO.P,R6,1*%
%TO.N,Net-(Q1-G)*%
X165100000Y-106082500D03*
%TD*%
%TO.P,R7,2*%
%TO.N,Net-(Q1-G)*%
X165100000Y-104229500D03*
%TO.P,R7,1*%
%TO.N,Solenoid Switch*%
X165100000Y-103034500D03*
%TD*%
D13*
%TO.P,D2,2,A*%
%TO.N,Net-(D2-A)*%
X169164000Y-97099000D03*
D14*
%TO.P,D2,1,K*%
%TO.N,18V*%
X174244000Y-97099000D03*
%TD*%
D15*
%TO.P,J3,2,Pin_2*%
%TO.N,Net-(IC1-A11)*%
X134600000Y-132440000D03*
D16*
%TO.P,J3,1,Pin_1*%
%TO.N,GND*%
X132100000Y-132440000D03*
%TD*%
D15*
%TO.P,J2,2,Pin_2*%
%TO.N,Net-(IC1-A10)*%
X114026000Y-132440000D03*
D16*
%TO.P,J2,1,Pin_1*%
%TO.N,GND*%
X111526000Y-132440000D03*
%TD*%
D15*
%TO.P,J4,2,Pin_2*%
%TO.N,Net-(IC1-A12)*%
X154920000Y-132440000D03*
D16*
%TO.P,J4,1,Pin_1*%
%TO.N,GND*%
X152420000Y-132440000D03*
%TD*%
D17*
%TO.P,D1,2,A*%
%TO.N,GND*%
X178943000Y-119856000D03*
%TO.P,D1,1,K*%
%TO.N,Net-(D1-K)*%
X178943000Y-115856000D03*
%TD*%
D18*
%TO.P,U1,1,BOOT*%
%TO.N,Net-(U1-BOOT)*%
X167875500Y-123330000D03*
%TO.P,U1,2,NC*%
%TO.N,unconnected-(U1-NC-Pad2)*%
X167875500Y-124600000D03*
%TO.P,U1,3,NC*%
%TO.N,unconnected-(U1-NC-Pad3)*%
X167875500Y-125870000D03*
%TO.P,U1,4,FB*%
%TO.N,5V*%
X167875500Y-127140000D03*
%TO.P,U1,5,EN*%
%TO.N,Net-(U1-EN)*%
X173435500Y-127140000D03*
%TO.P,U1,6,GND*%
%TO.N,GND*%
X173435500Y-125870000D03*
%TO.P,U1,7,VIN*%
%TO.N,18V*%
X173435500Y-124600000D03*
%TO.P,U1,8,SW*%
%TO.N,Net-(D1-K)*%
X173435500Y-123330000D03*
D19*
%TO.P,U1,9,EP*%
%TO.N,GND*%
X170053000Y-124460000D03*
X170053000Y-126010000D03*
X171258000Y-124460000D03*
X171258000Y-126010000D03*
%TD*%
D20*
%TO.P,R5,1*%
%TO.N,Net-(U1-EN)*%
X174782000Y-130048000D03*
%TO.P,R5,2*%
%TO.N,GND*%
X174782000Y-131698000D03*
%TD*%
%TO.P,R3,1*%
%TO.N,18V*%
X177292000Y-130048000D03*
%TO.P,R3,2*%
%TO.N,Net-(U1-EN)*%
X177292000Y-131698000D03*
%TD*%
D21*
%TO.P,R2,1*%
%TO.N,V0*%
X168656000Y-91440000D03*
%TO.P,R2,2*%
%TO.N,GND*%
X168656000Y-88515000D03*
%TD*%
%TO.P,R1,1*%
%TO.N,5V*%
X165366000Y-91440000D03*
%TO.P,R1,2*%
%TO.N,V0*%
X165366000Y-88515000D03*
%TD*%
D22*
%TO.P,Q1,1,G*%
%TO.N,Net-(Q1-G)*%
X170180000Y-110673000D03*
D23*
%TO.P,Q1,2,D*%
%TO.N,Net-(D2-A)*%
X172720000Y-110673000D03*
%TO.P,Q1,3,S*%
%TO.N,GND*%
X175260000Y-110673000D03*
%TD*%
D24*
%TO.P,L1,1,1*%
%TO.N,Net-(D1-K)*%
X173838000Y-116840000D03*
%TO.P,L1,2,2*%
%TO.N,5V*%
X167538000Y-116840000D03*
%TD*%
D25*
%TO.P,J5,01,01*%
%TO.N,GND*%
X182836000Y-109252000D03*
D26*
%TO.P,J5,02,02*%
%TO.N,Net-(F1-Pad1)*%
X182836000Y-105752000D03*
%TD*%
D25*
%TO.P,J1,01,01*%
%TO.N,18V*%
X182930000Y-100014500D03*
D26*
%TO.P,J1,02,02*%
%TO.N,Net-(D2-A)*%
X182930000Y-96514500D03*
%TD*%
D27*
%TO.P,H4,1,1*%
%TO.N,GND*%
X181890000Y-137160000D03*
X182592944Y-135462944D03*
X182592944Y-138857056D03*
X184290000Y-134760000D03*
D28*
X184290000Y-137160000D03*
D27*
X184290000Y-139560000D03*
X185987056Y-135462944D03*
X185987056Y-138857056D03*
X186690000Y-137160000D03*
%TD*%
%TO.P,H3,1,1*%
%TO.N,GND*%
X181750000Y-45720000D03*
X182452944Y-44022944D03*
X182452944Y-47417056D03*
X184150000Y-43320000D03*
D28*
X184150000Y-45720000D03*
D27*
X184150000Y-48120000D03*
X185847056Y-44022944D03*
X185847056Y-47417056D03*
X186550000Y-45720000D03*
%TD*%
%TO.P,H2,1,1*%
%TO.N,GND*%
X94120000Y-137160000D03*
X94822944Y-135462944D03*
X94822944Y-138857056D03*
X96520000Y-134760000D03*
D28*
X96520000Y-137160000D03*
D27*
X96520000Y-139560000D03*
X98217056Y-135462944D03*
X98217056Y-138857056D03*
X98920000Y-137160000D03*
%TD*%
%TO.P,H1,1,1*%
%TO.N,GND*%
X94120000Y-45720000D03*
X94822944Y-44022944D03*
X94822944Y-47417056D03*
X96520000Y-43320000D03*
D28*
X96520000Y-45720000D03*
D27*
X96520000Y-48120000D03*
X98217056Y-44022944D03*
X98217056Y-47417056D03*
X98920000Y-45720000D03*
%TD*%
D29*
%TO.P,F1,1*%
%TO.N,Net-(F1-Pad1)*%
X176276000Y-105032000D03*
%TO.P,F1,2*%
%TO.N,18V*%
X176276000Y-102232000D03*
%TD*%
D30*
%TO.P,DS1,1_1,VSS*%
%TO.N,GND*%
X173939200Y-50802000D03*
%TO.P,DS1,2_1,VDD*%
%TO.N,VDD*%
X171399200Y-50802000D03*
%TO.P,DS1,3_1,V0*%
%TO.N,V0*%
X168859200Y-50802000D03*
%TO.P,DS1,4_1,RS*%
%TO.N,Net-(IC1-CS_1)*%
X166319200Y-50802000D03*
%TO.P,DS1,5_1,R/W*%
%TO.N,GND*%
X163779200Y-50802000D03*
%TO.P,DS1,6_1,E*%
%TO.N,Net-(IC1-TX2)*%
X161239200Y-50802000D03*
%TO.P,DS1,7_1,DB0*%
%TO.N,Net-(IC1-RX2)*%
X158699200Y-50802000D03*
%TO.P,DS1,8_1,DB1*%
%TO.N,Net-(IC1-OUT1D)*%
X156159200Y-50802000D03*
%TO.P,DS1,9_1,DB2*%
%TO.N,Net-(IC1-IN2)*%
X153619200Y-50802000D03*
%TO.P,DS1,10_1,DB3*%
%TO.N,Net-(IC1-BCLK2)*%
X151079200Y-50802000D03*
%TO.P,DS1,11_1,DB4*%
%TO.N,Net-(IC1-LRCLK2)*%
X148539200Y-50802000D03*
%TO.P,DS1,12_1,DB5*%
%TO.N,Net-(IC1-OUT2)*%
X145999200Y-50802000D03*
%TO.P,DS1,13_1,DB6*%
%TO.N,Net-(IC1-A8)*%
X143459200Y-50802000D03*
%TO.P,DS1,14_1,DB7*%
%TO.N,Net-(IC1-A9)*%
X140919200Y-50802000D03*
%TO.P,DS1,15_1*%
%TO.N,GND*%
X138379200Y-50802000D03*
%TO.P,DS1,16_1*%
X135839200Y-50802000D03*
%TO.P,DS1,1_2,VSS*%
X173939200Y-82802000D03*
%TO.P,DS1,2_2,VDD*%
%TO.N,VDD*%
X171399200Y-82802000D03*
%TO.P,DS1,3_2,V0*%
%TO.N,V0*%
X168859200Y-82802000D03*
%TO.P,DS1,4_2,RS*%
%TO.N,Net-(IC1-CS_1)*%
X166319200Y-82802000D03*
%TO.P,DS1,5_2,R/W*%
%TO.N,GND*%
X163779200Y-82802000D03*
%TO.P,DS1,6_2,E*%
%TO.N,Net-(IC1-TX2)*%
X161239200Y-82802000D03*
%TO.P,DS1,7_2,DB0*%
%TO.N,Net-(IC1-RX2)*%
X158699200Y-82802000D03*
%TO.P,DS1,8_2,DB1*%
%TO.N,Net-(IC1-OUT1D)*%
X156159200Y-82802000D03*
%TO.P,DS1,9_2,DB2*%
%TO.N,Net-(IC1-IN2)*%
X153619200Y-82802000D03*
%TO.P,DS1,10_2,DB3*%
%TO.N,Net-(IC1-BCLK2)*%
X151079200Y-82802000D03*
%TO.P,DS1,11_2,DB4*%
%TO.N,Net-(IC1-LRCLK2)*%
X148539200Y-82802000D03*
%TO.P,DS1,12_2,DB5*%
%TO.N,Net-(IC1-OUT2)*%
X145999200Y-82802000D03*
%TO.P,DS1,13_2,DB6*%
%TO.N,Net-(IC1-A8)*%
X143459200Y-82802000D03*
%TO.P,DS1,14_2,DB7*%
%TO.N,Net-(IC1-A9)*%
X140919200Y-82802000D03*
%TO.P,DS1,15_2*%
%TO.N,GND*%
X138379200Y-82802000D03*
%TO.P,DS1,16_2*%
X135839200Y-82802000D03*
D31*
%TO.P,DS1,S1,SHIELD*%
%TO.N,Net-(DS1-SHIELD-PadS1)*%
X179439200Y-82302000D03*
%TO.P,DS1,S2,SHIELD*%
X104439200Y-82302000D03*
%TO.P,DS1,S3,SHIELD*%
X179439200Y-51302000D03*
%TO.P,DS1,S4,SHIELD*%
X104439200Y-51302000D03*
%TD*%
D32*
%TO.P,C5,1*%
%TO.N,5V*%
X169672000Y-129518500D03*
%TO.P,C5,2*%
%TO.N,GND*%
X169672000Y-131593500D03*
%TD*%
D33*
%TO.P,C4,1*%
%TO.N,18V*%
X182753000Y-123500000D03*
D34*
%TO.P,C4,2*%
%TO.N,GND*%
X182753000Y-127000000D03*
%TD*%
D32*
%TO.P,C3,1*%
%TO.N,18V*%
X176403000Y-124460000D03*
%TO.P,C3,2*%
%TO.N,GND*%
X176403000Y-126535000D03*
%TD*%
D33*
%TO.P,C2,1*%
%TO.N,5V*%
X163576000Y-128048000D03*
D34*
%TO.P,C2,2*%
%TO.N,GND*%
X163576000Y-130048000D03*
%TD*%
D35*
%TO.P,C1,1*%
%TO.N,Net-(D1-K)*%
X171255500Y-121412000D03*
%TO.P,C1,2*%
%TO.N,Net-(U1-BOOT)*%
X170120500Y-121412000D03*
%TD*%
D36*
%TO.P,IC1,71,GND_6*%
%TO.N,GND*%
X100076000Y-108204000D03*
%TO.P,IC1,70,GND_5*%
X102616000Y-92964000D03*
%TO.P,IC1,69,GND_4*%
X135636000Y-92964000D03*
%TO.P,IC1,68,VUSB*%
%TO.N,unconnected-(IC1-VUSB-Pad68)*%
X102616000Y-95504000D03*
%TO.P,IC1,57,RX1*%
%TO.N,unconnected-(IC1-RX1-Pad57)*%
X102616000Y-108204000D03*
%TO.P,IC1,55,VIN_(3.6_TO_5.5_VOLTS)*%
%TO.N,5V*%
X100076000Y-92964000D03*
%TO.P,IC1,53,3.3V_(250_M_A_MAX)*%
%TO.N,unconnected-(IC1-3.3V_(250_M_A_MAX)-Pad53)*%
X105156000Y-92964000D03*
%TO.P,IC1,52,+5V*%
%TO.N,unconnected-(IC1-+5V-Pad52)*%
X106426000Y-105154000D03*
%TO.P,IC1,51,D-*%
%TO.N,unconnected-(IC1-D--Pad51)*%
X108966000Y-105154000D03*
%TO.P,IC1,50,D+*%
%TO.N,unconnected-(IC1-D+-Pad50)*%
X111506000Y-105154000D03*
%TO.P,IC1,49,GND_3*%
%TO.N,unconnected-(IC1-GND_3-Pad49)*%
X114046000Y-105154000D03*
%TO.P,IC1,48,GND_2*%
%TO.N,unconnected-(IC1-GND_2-Pad48)*%
X116586000Y-105154000D03*
%TO.P,IC1,47,ON/OFF*%
%TO.N,unconnected-(IC1-ON{slash}OFF-Pad47)*%
X145796000Y-95504000D03*
%TO.P,IC1,46,PROGRAM*%
%TO.N,unconnected-(IC1-PROGRAM-Pad46)*%
X145796000Y-98044000D03*
%TO.P,IC1,45,GND_1*%
%TO.N,GND*%
X145796000Y-100584000D03*
%TO.P,IC1,44,3.3V_2*%
%TO.N,unconnected-(IC1-3.3V_2-Pad44)*%
X145796000Y-103124000D03*
%TO.P,IC1,43,VBAT*%
%TO.N,unconnected-(IC1-VBAT-Pad43)*%
X145796000Y-105664000D03*
%TO.P,IC1,42,3.3V_1*%
%TO.N,/3.3V*%
X135636000Y-108204000D03*
%TO.P,IC1,41,A17*%
%TO.N,unconnected-(IC1-A17-Pad41)*%
X138176000Y-92964000D03*
%TO.P,IC1,40,A16*%
%TO.N,unconnected-(IC1-A16-Pad40)*%
X140716000Y-92964000D03*
%TO.P,IC1,39,A15*%
%TO.N,unconnected-(IC1-A15-Pad39)*%
X143256000Y-92964000D03*
%TO.P,IC1,38,A14*%
%TO.N,unconnected-(IC1-A14-Pad38)*%
X145796000Y-92964000D03*
%TO.P,IC1,37,CS_3*%
%TO.N,unconnected-(IC1-CS_3-Pad37)*%
X148336000Y-92964000D03*
%TO.P,IC1,36,CS_2*%
%TO.N,unconnected-(IC1-CS_2-Pad36)*%
X150876000Y-92964000D03*
%TO.P,IC1,35,TX8*%
%TO.N,unconnected-(IC1-TX8-Pad35)*%
X153416000Y-92964000D03*
%TO.P,IC1,34,RX8*%
%TO.N,unconnected-(IC1-RX8-Pad34)*%
X155956000Y-92964000D03*
%TO.P,IC1,33,MCLK2*%
%TO.N,Solenoid Switch*%
X158496000Y-92964000D03*
%TO.P,IC1,32,OUT1B*%
%TO.N,unconnected-(IC1-OUT1B-Pad32)*%
X158496000Y-108204000D03*
%TO.P,IC1,31,CTX3*%
%TO.N,unconnected-(IC1-CTX3-Pad31)*%
X155956000Y-108204000D03*
%TO.P,IC1,30,CRX3*%
%TO.N,unconnected-(IC1-CRX3-Pad30)*%
X153416000Y-108204000D03*
%TO.P,IC1,29,TX7*%
%TO.N,unconnected-(IC1-TX7-Pad29)*%
X150876000Y-108204000D03*
%TO.P,IC1,28,RX7*%
%TO.N,unconnected-(IC1-RX7-Pad28)*%
X148336000Y-108204000D03*
%TO.P,IC1,27,A13*%
%TO.N,unconnected-(IC1-A13-Pad27)*%
X145796000Y-108204000D03*
%TO.P,IC1,26,A12*%
%TO.N,Net-(IC1-A12)*%
X143256000Y-108204000D03*
%TO.P,IC1,25,A11*%
%TO.N,Net-(IC1-A11)*%
X140716000Y-108204000D03*
%TO.P,IC1,24,A10*%
%TO.N,Net-(IC1-A10)*%
X138176000Y-108204000D03*
%TO.P,IC1,23,A9*%
%TO.N,Net-(IC1-A9)*%
X107696000Y-92964000D03*
%TO.P,IC1,22,A8*%
%TO.N,Net-(IC1-A8)*%
X110236000Y-92964000D03*
%TO.P,IC1,21,A7*%
%TO.N,unconnected-(IC1-A7-Pad21)*%
X112776000Y-92964000D03*
%TO.P,IC1,20,A6*%
%TO.N,unconnected-(IC1-A6-Pad20)*%
X115316000Y-92964000D03*
%TO.P,IC1,19,A5*%
%TO.N,/SCL*%
X117856000Y-92964000D03*
%TO.P,IC1,18,A4*%
%TO.N,/SDA*%
X120396000Y-92964000D03*
%TO.P,IC1,17,A3*%
%TO.N,unconnected-(IC1-A3-Pad17)*%
X122936000Y-92964000D03*
%TO.P,IC1,16,A2*%
%TO.N,unconnected-(IC1-A2-Pad16)*%
X125476000Y-92964000D03*
%TO.P,IC1,15,A1*%
%TO.N,unconnected-(IC1-A1-Pad15)*%
X128016000Y-92964000D03*
%TO.P,IC1,14,A0*%
%TO.N,unconnected-(IC1-A0-Pad14)*%
X130556000Y-92964000D03*
%TO.P,IC1,13,SCK*%
%TO.N,unconnected-(IC1-SCK-Pad13)*%
X133096000Y-92964000D03*
%TO.P,IC1,12,MISO*%
%TO.N,/XSHUT*%
X133096000Y-108204000D03*
%TO.P,IC1,11,MOSI*%
%TO.N,/GPIO*%
X130556000Y-108204000D03*
%TO.P,IC1,10,CS_1*%
%TO.N,Net-(IC1-CS_1)*%
X128016000Y-108204000D03*
%TO.P,IC1,9,OUT1C*%
%TO.N,unconnected-(IC1-OUT1C-Pad9)*%
X125476000Y-108204000D03*
%TO.P,IC1,8,TX2*%
%TO.N,Net-(IC1-TX2)*%
X122936000Y-108204000D03*
%TO.P,IC1,7,RX2*%
%TO.N,Net-(IC1-RX2)*%
X120396000Y-108204000D03*
%TO.P,IC1,6,OUT1D*%
%TO.N,Net-(IC1-OUT1D)*%
X117856000Y-108204000D03*
%TO.P,IC1,5,IN2*%
%TO.N,Net-(IC1-IN2)*%
X115316000Y-108204000D03*
%TO.P,IC1,4,BCLK2*%
%TO.N,Net-(IC1-BCLK2)*%
X112776000Y-108204000D03*
%TO.P,IC1,3,LRCLK2*%
%TO.N,Net-(IC1-LRCLK2)*%
X110236000Y-108204000D03*
%TO.P,IC1,2,OUT2*%
%TO.N,Net-(IC1-OUT2)*%
X107696000Y-108204000D03*
%TO.P,IC1,1,TX1*%
%TO.N,unconnected-(IC1-TX1-Pad1)*%
X105156000Y-108204000D03*
%TD*%
D37*
%TO.N,GND*%
X168656000Y-88515000D03*
%TO.N,Net-(IC1-A9)*%
X140983600Y-77679200D03*
%TO.N,Net-(IC1-A8)*%
X143422000Y-78034800D03*
%TO.N,Net-(IC1-OUT2)*%
X146012800Y-77882400D03*
%TO.N,Net-(IC1-LRCLK2)*%
X148552800Y-77984000D03*
%TO.N,Net-(IC1-BCLK2)*%
X151042000Y-77882400D03*
%TO.N,Net-(IC1-IN2)*%
X153632800Y-78441200D03*
%TO.N,5V*%
X155143200Y-99466400D03*
X124206000Y-100177600D03*
X118110000Y-100177600D03*
X107492800Y-100177600D03*
X143154400Y-100076000D03*
X129844800Y-100076000D03*
%TO.N,Net-(D2-A)*%
X169621200Y-97891600D03*
X169621200Y-98450400D03*
X169621200Y-99212400D03*
X169621200Y-99923600D03*
X169621200Y-100685600D03*
X169672000Y-101498400D03*
X170129200Y-102057200D03*
X170738800Y-102717600D03*
X171399200Y-103327200D03*
X171958000Y-103886000D03*
X172516800Y-104343200D03*
X173024800Y-104851200D03*
X173177200Y-105511600D03*
X173177200Y-106324400D03*
X173177200Y-107137200D03*
X173177200Y-108000800D03*
X173177200Y-108864400D03*
X173177200Y-109677200D03*
X172313600Y-109626400D03*
X172262800Y-108864400D03*
X172262800Y-108000800D03*
X172262800Y-107137200D03*
X172262800Y-106324400D03*
X172262800Y-105562400D03*
X171907200Y-104952800D03*
X171348400Y-104444800D03*
X170840400Y-103936800D03*
X170281600Y-103428800D03*
X169824400Y-102870000D03*
X169265600Y-102362000D03*
X168808400Y-101803200D03*
X168656000Y-101193600D03*
X168656000Y-100584000D03*
X168656000Y-99974400D03*
X168656000Y-99314000D03*
X168656000Y-98704400D03*
X168656000Y-97993200D03*
X181457600Y-95605600D03*
X180898800Y-94996000D03*
X180340000Y-94437200D03*
X179679600Y-93929200D03*
X178866800Y-93878400D03*
X178104800Y-93878400D03*
X177190400Y-93878400D03*
X176276000Y-93878400D03*
X175412400Y-93878400D03*
X174498000Y-93878400D03*
X173634400Y-93878400D03*
X172923200Y-93980000D03*
X172364400Y-94386400D03*
X171856400Y-94894400D03*
X171348400Y-95402400D03*
X170840400Y-95961200D03*
X170383200Y-96520000D03*
X169621200Y-95859600D03*
X170129200Y-95300800D03*
X170637200Y-94792800D03*
X171145200Y-94335600D03*
X171602400Y-93878400D03*
X172110400Y-93421200D03*
X172669200Y-93014800D03*
X173380400Y-93014800D03*
X174040800Y-93014800D03*
X174701200Y-93014800D03*
X175514000Y-93014800D03*
X176326800Y-93014800D03*
X177139600Y-93014800D03*
X177850800Y-93014800D03*
X178612800Y-93014800D03*
X179425600Y-93065600D03*
X180238400Y-93268800D03*
X180848000Y-93776800D03*
X181457600Y-94335600D03*
X182118000Y-94945200D03*
X181914800Y-96367600D03*
X182270400Y-95808800D03*
X182778400Y-95453200D03*
%TO.N,18V*%
X181813200Y-99618800D03*
X181000400Y-99618800D03*
X180289200Y-99923600D03*
X179730400Y-100431600D03*
X179171600Y-101041200D03*
X178765200Y-101650800D03*
X178054000Y-101904800D03*
X177241200Y-101955600D03*
X176682400Y-101650800D03*
X176682400Y-101092000D03*
X176682400Y-100482400D03*
X176682400Y-99872800D03*
X176682400Y-99314000D03*
X176580800Y-98755200D03*
X176174400Y-98348800D03*
X175768000Y-97942400D03*
X175260000Y-97536000D03*
X174498000Y-98094800D03*
X174802800Y-98450400D03*
X175158400Y-98806000D03*
X175615600Y-99212400D03*
X175615600Y-99771200D03*
X175615600Y-100380800D03*
X175615600Y-101092000D03*
X175615600Y-101955600D03*
X176022000Y-102616000D03*
X176682400Y-102717600D03*
X177241200Y-102717600D03*
X178003200Y-102717600D03*
X178816000Y-102616000D03*
X179374800Y-102260400D03*
X179882800Y-101803200D03*
X180340000Y-101346000D03*
X180797200Y-100838000D03*
X181305200Y-100533200D03*
X182016400Y-100533200D03*
%TO.N,Net-(F1-Pad1)*%
X182270400Y-106426000D03*
X175920400Y-105308400D03*
X176580800Y-104800400D03*
X177038000Y-105257600D03*
X176580800Y-105968800D03*
X177342800Y-106172000D03*
X178206400Y-106172000D03*
X179070000Y-106172000D03*
X179882800Y-106172000D03*
X180746400Y-106172000D03*
X177749200Y-105308400D03*
X178663600Y-105308400D03*
X179527200Y-105308400D03*
X180340000Y-105308400D03*
X181152800Y-105308400D03*
X181711600Y-106172000D03*
X181965600Y-105308400D03*
%TO.N,Net-(IC1-OUT1D)*%
X105664000Y-112268000D03*
X100752500Y-112268000D03*
%TO.N,Net-(IC1-IN2)*%
X105664000Y-111252000D03*
X99568000Y-111252000D03*
%TO.N,Solenoid Switch*%
X165100000Y-97028000D03*
X162560000Y-94488000D03*
%TO.N,/SDA*%
X116840000Y-96520000D03*
X112268000Y-96520000D03*
%TO.N,/3.3V*%
X132080000Y-110744000D03*
X125984000Y-110744000D03*
%TO.N,GND*%
X174782000Y-131698000D03*
X169672000Y-131593500D03*
X176318000Y-126450000D03*
X173435500Y-125870000D03*
X171258000Y-124460000D03*
X170053000Y-124460000D03*
X170053000Y-126010000D03*
X171258000Y-126010000D03*
X178943000Y-119856000D03*
X165100000Y-108204000D03*
%TD*%
D38*
%TO.N,Net-(IC1-OUT1D)*%
X102864000Y-78746000D02*
X152103200Y-78746000D01*
X97343000Y-84267000D02*
X102864000Y-78746000D01*
X152103200Y-78746000D02*
X156159200Y-82802000D01*
X97343000Y-110333500D02*
X97343000Y-84267000D01*
X99277500Y-112268000D02*
X97343000Y-110333500D01*
X100752500Y-112268000D02*
X99277500Y-112268000D01*
%TO.N,/SDA*%
X101417500Y-107370500D02*
X112268000Y-96520000D01*
X101417500Y-113212500D02*
X101417500Y-107370500D01*
X100965000Y-113665000D02*
X101417500Y-113212500D01*
X97790000Y-113665000D02*
X100965000Y-113665000D01*
X96520000Y-114935000D02*
X97790000Y-113665000D01*
X96520000Y-119935000D02*
X96520000Y-114935000D01*
X100965000Y-124380000D02*
X96520000Y-119935000D01*
%TO.N,/3.3V*%
X119848000Y-116880000D02*
X125984000Y-110744000D01*
X100965000Y-116880000D02*
X119848000Y-116880000D01*
%TO.N,/GPIO*%
X111880000Y-126880000D02*
X130556000Y-108204000D01*
X100965000Y-126880000D02*
X111880000Y-126880000D01*
%TO.N,/XSHUT*%
X100965000Y-129380000D02*
X111920000Y-129380000D01*
X111920000Y-129380000D02*
X133096000Y-108204000D01*
%TO.N,/SCL*%
X100965000Y-121880000D02*
X97790000Y-118705000D01*
X97790000Y-118705000D02*
X97790000Y-115570000D01*
%TO.N,Net-(IC1-OUT2)*%
X138219935Y-94615000D02*
X139374500Y-93460435D01*
X120350065Y-94615000D02*
X138219935Y-94615000D01*
X139374500Y-89426700D02*
X145999200Y-82802000D01*
X110307500Y-104657565D02*
X120350065Y-94615000D01*
X110307500Y-105592500D02*
X110307500Y-104657565D01*
X107696000Y-108204000D02*
X110307500Y-105592500D01*
X139374500Y-93460435D02*
X139374500Y-89426700D01*
%TO.N,/SCL*%
X103814500Y-106070564D02*
X103990032Y-105895032D01*
X103814500Y-114625500D02*
X103814500Y-106070564D01*
X103505000Y-114935000D02*
X103814500Y-114625500D01*
X103814500Y-106070565D02*
X103990032Y-105895032D01*
X98425000Y-114935000D02*
X103505000Y-114935000D01*
X97790000Y-115570000D02*
X98425000Y-114935000D01*
%TO.N,Net-(IC1-A10)*%
X114026000Y-132354000D02*
X138176000Y-108204000D01*
X114026000Y-132440000D02*
X114026000Y-132354000D01*
%TO.N,Net-(IC1-A12)*%
X154920000Y-119868000D02*
X143256000Y-108204000D01*
X154920000Y-132440000D02*
X154920000Y-119868000D01*
%TO.N,Net-(IC1-A11)*%
X134600000Y-114320000D02*
X140716000Y-108204000D01*
X134600000Y-132440000D02*
X134600000Y-114320000D01*
%TO.N,Net-(IC1-A8)*%
X135837200Y-90424000D02*
X112776000Y-90424000D01*
X112776000Y-90424000D02*
X110236000Y-92964000D01*
X143459200Y-82802000D02*
X135837200Y-90424000D01*
%TO.N,Net-(IC1-LRCLK2)*%
X142057500Y-89283700D02*
X142057500Y-93460435D01*
X148539200Y-82802000D02*
X142057500Y-89283700D01*
%TO.N,Net-(IC1-BCLK2)*%
X144597500Y-89283700D02*
X144597500Y-93317435D01*
X151079200Y-82802000D02*
X144597500Y-89283700D01*
%TO.N,Net-(IC1-RX2)*%
X158699200Y-82802000D02*
X149534500Y-91966700D01*
X149534500Y-91966700D02*
X149534500Y-96845500D01*
%TO.N,Net-(IC1-TX2)*%
X152217500Y-91823700D02*
X152217500Y-98226500D01*
X161239200Y-82802000D02*
X152217500Y-91823700D01*
%TO.N,Net-(IC1-CS_1)*%
X162912395Y-84068000D02*
X154757500Y-92222895D01*
X165053200Y-84068000D02*
X162912395Y-84068000D01*
X166319200Y-82802000D02*
X165053200Y-84068000D01*
D39*
%TO.N,V0*%
X168859200Y-85021800D02*
X168859200Y-82802000D01*
X165366000Y-88515000D02*
X168859200Y-85021800D01*
D38*
%TO.N,Net-(IC1-A9)*%
X119882000Y-80778000D02*
X107696000Y-92964000D01*
X140919200Y-82802000D02*
X138895200Y-80778000D01*
X138895200Y-80778000D02*
X119882000Y-80778000D01*
%TO.N,/SCL*%
X106864500Y-103955500D02*
X117856000Y-92964000D01*
X103990032Y-105895032D02*
X105929565Y-103955500D01*
X105929565Y-103955500D02*
X106864500Y-103955500D01*
%TO.N,Net-(IC1-A9)*%
X140919200Y-77614800D02*
X140983600Y-77679200D01*
X140919200Y-50802000D02*
X140919200Y-77614800D01*
%TO.N,Net-(IC1-A8)*%
X143459200Y-77997600D02*
X143422000Y-78034800D01*
X143459200Y-50802000D02*
X143459200Y-77997600D01*
%TO.N,Net-(IC1-OUT2)*%
X145999200Y-77868800D02*
X146012800Y-77882400D01*
X145999200Y-50802000D02*
X145999200Y-77868800D01*
%TO.N,Net-(IC1-LRCLK2)*%
X148539200Y-77970400D02*
X148552800Y-77984000D01*
X148539200Y-50802000D02*
X148539200Y-77970400D01*
%TO.N,Net-(IC1-BCLK2)*%
X151079200Y-77845200D02*
X151042000Y-77882400D01*
X151079200Y-50802000D02*
X151079200Y-77845200D01*
%TO.N,Net-(IC1-IN2)*%
X153619200Y-78427600D02*
X153632800Y-78441200D01*
X153619200Y-50802000D02*
X153619200Y-78427600D01*
%TO.N,Net-(IC1-OUT1D)*%
X156159200Y-50802000D02*
X156159200Y-82802000D01*
%TO.N,Net-(IC1-RX2)*%
X158699200Y-50802000D02*
X158699200Y-82802000D01*
%TO.N,Net-(IC1-TX2)*%
X161239200Y-50802000D02*
X161239200Y-82802000D01*
%TO.N,Net-(IC1-CS_1)*%
X166319200Y-50802000D02*
X166319200Y-82802000D01*
%TO.N,V0*%
X168859200Y-50802000D02*
X168859200Y-82802000D01*
%TO.N,VDD*%
X171399200Y-50802000D02*
X171399200Y-82802000D01*
%TO.N,5V*%
X155143200Y-99466400D02*
X163474400Y-99466400D01*
D39*
X163576000Y-110236000D02*
X163576000Y-99364800D01*
D38*
X129844800Y-100076000D02*
X143154400Y-100076000D01*
X118110000Y-100177600D02*
X124206000Y-100177600D01*
X163474400Y-99466400D02*
X163576000Y-99364800D01*
X107442000Y-100126800D02*
X107492800Y-100177600D01*
X103987600Y-100126800D02*
X107442000Y-100126800D01*
X100076000Y-96215200D02*
X103987600Y-100126800D01*
X100076000Y-92964000D02*
X100076000Y-96215200D01*
D40*
%TO.N,Net-(D2-A)*%
X169164000Y-101600000D02*
X172720000Y-105156000D01*
X169164000Y-97099000D02*
X169164000Y-101600000D01*
X172720000Y-105156000D02*
X172720000Y-110673000D01*
X172059600Y-94183200D02*
X172059600Y-94203400D01*
X182930000Y-96514500D02*
X179887500Y-93472000D01*
X179887500Y-93472000D02*
X172770800Y-93472000D01*
X172770800Y-93472000D02*
X172059600Y-94183200D01*
X172059600Y-94203400D02*
X169164000Y-97099000D01*
%TO.N,Net-(F1-Pad1)*%
X176996000Y-105752000D02*
X176276000Y-105032000D01*
X182836000Y-105752000D02*
X176996000Y-105752000D01*
%TO.N,18V*%
X182930000Y-100014500D02*
X180786500Y-100014500D01*
X180786500Y-100014500D02*
X178569000Y-102232000D01*
X176276000Y-102232000D02*
X176276000Y-99131000D01*
X176276000Y-99131000D02*
X174244000Y-97099000D01*
D38*
%TO.N,Net-(IC1-OUT1D)*%
X113792000Y-112268000D02*
X117856000Y-108204000D01*
X105664000Y-112268000D02*
X113792000Y-112268000D01*
%TO.N,Net-(IC1-IN2)*%
X105664000Y-111252000D02*
X112268000Y-111252000D01*
X112268000Y-111252000D02*
X115316000Y-108204000D01*
D39*
%TO.N,V0*%
X168275200Y-83386000D02*
X168859200Y-82802000D01*
X168291000Y-91440000D02*
X165366000Y-88515000D01*
X168656000Y-91440000D02*
X168291000Y-91440000D01*
%TO.N,Solenoid Switch*%
X160020000Y-94488000D02*
X158496000Y-92964000D01*
X162560000Y-94488000D02*
X160020000Y-94488000D01*
X165100000Y-103034500D02*
X165100000Y-97028000D01*
%TO.N,Net-(Q1-G)*%
X165589500Y-106082500D02*
X165100000Y-106082500D01*
X170180000Y-110673000D02*
X165589500Y-106082500D01*
%TO.N,5V*%
X163576000Y-93230000D02*
X165366000Y-91440000D01*
X163576000Y-99364800D02*
X163576000Y-93230000D01*
X167538000Y-114198000D02*
X163576000Y-110236000D01*
X167538000Y-116840000D02*
X167538000Y-114198000D01*
%TO.N,18V*%
X186337000Y-103421500D02*
X182930000Y-100014500D01*
X186337000Y-119916000D02*
X186337000Y-103421500D01*
X182753000Y-123500000D02*
X186337000Y-119916000D01*
D38*
%TO.N,Net-(IC1-RX2)*%
X129357500Y-99242500D02*
X147137500Y-99242500D01*
X147137500Y-99242500D02*
X149534500Y-96845500D01*
X120396000Y-108204000D02*
X129357500Y-99242500D01*
%TO.N,Net-(IC1-TX2)*%
X148518500Y-101925500D02*
X152217500Y-98226500D01*
X129214500Y-101925500D02*
X148518500Y-101925500D01*
X122936000Y-108204000D02*
X129214500Y-101925500D01*
%TO.N,Net-(IC1-CS_1)*%
X154757500Y-98226500D02*
X154757500Y-92222895D01*
X148661500Y-104322500D02*
X154757500Y-98226500D01*
X131897500Y-104322500D02*
X148661500Y-104322500D01*
X128016000Y-108204000D02*
X131897500Y-104322500D01*
%TO.N,/SDA*%
X116840000Y-96520000D02*
X120396000Y-92964000D01*
%TO.N,/3.3V*%
X133096000Y-110744000D02*
X135636000Y-108204000D01*
X132080000Y-110744000D02*
X133096000Y-110744000D01*
%TO.N,Net-(IC1-BCLK2)*%
X140886935Y-97028000D02*
X144597500Y-93317435D01*
X119707500Y-106352500D02*
X129032000Y-97028000D01*
X129032000Y-97028000D02*
X140886935Y-97028000D01*
X114627500Y-106352500D02*
X119707500Y-106352500D01*
X112776000Y-108204000D02*
X114627500Y-106352500D01*
%TO.N,Net-(IC1-LRCLK2)*%
X140013935Y-95504000D02*
X142057500Y-93460435D01*
X121412000Y-95504000D02*
X140013935Y-95504000D01*
X112704500Y-104211500D02*
X121412000Y-95504000D01*
X112704500Y-105735500D02*
X112704500Y-104211500D01*
X110236000Y-108204000D02*
X112704500Y-105735500D01*
D39*
%TO.N,5V*%
X166116000Y-118262000D02*
X166116000Y-127140000D01*
X167538000Y-116840000D02*
X166116000Y-118262000D01*
X166116000Y-127140000D02*
X164484000Y-127140000D01*
%TO.N,18V*%
X184304000Y-125051000D02*
X182753000Y-123500000D01*
X184304000Y-127642446D02*
X184304000Y-125051000D01*
X181898446Y-130048000D02*
X184304000Y-127642446D01*
X177292000Y-130048000D02*
X181898446Y-130048000D01*
%TO.N,Net-(U1-EN)*%
X175260000Y-130048000D02*
X174782000Y-130048000D01*
X177292000Y-131698000D02*
X176910000Y-131698000D01*
X176910000Y-131698000D02*
X175260000Y-130048000D01*
X174782000Y-128486500D02*
X173435500Y-127140000D01*
X174782000Y-130048000D02*
X174782000Y-128486500D01*
%TO.N,5V*%
X164484000Y-127140000D02*
X163576000Y-128048000D01*
X167875500Y-127140000D02*
X166116000Y-127140000D01*
X169672000Y-128936500D02*
X167875500Y-127140000D01*
X169672000Y-129518500D02*
X169672000Y-128936500D01*
%TO.N,GND*%
X176318000Y-126450000D02*
X176403000Y-126535000D01*
X176868000Y-127000000D02*
X176403000Y-126535000D01*
X182753000Y-127000000D02*
X176868000Y-127000000D01*
%TO.N,18V*%
X178252000Y-123500000D02*
X182753000Y-123500000D01*
X177292000Y-124460000D02*
X178252000Y-123500000D01*
X176403000Y-124460000D02*
X177292000Y-124460000D01*
X176403000Y-124460000D02*
X173575500Y-124460000D01*
X173575500Y-124460000D02*
X173435500Y-124600000D01*
%TO.N,GND*%
X175738000Y-125870000D02*
X176318000Y-126450000D01*
X173435500Y-125870000D02*
X175738000Y-125870000D01*
%TO.N,Net-(D1-K)*%
X173838000Y-116840000D02*
X177959000Y-116840000D01*
X177959000Y-116840000D02*
X178943000Y-115856000D01*
X171255500Y-119422500D02*
X173838000Y-116840000D01*
X171255500Y-121412000D02*
X171255500Y-119422500D01*
X171255500Y-121412000D02*
X171517500Y-121412000D01*
X171517500Y-121412000D02*
X173435500Y-123330000D01*
D38*
%TO.N,Net-(U1-BOOT)*%
X168202500Y-123330000D02*
X170120500Y-121412000D01*
X167875500Y-123330000D02*
X168202500Y-123330000D01*
%TO.N,Net-(Q1-G)*%
X165100000Y-106082500D02*
X165100000Y-104229500D01*
%TO.N,GND*%
X165100000Y-107277500D02*
X165100000Y-108204000D01*
D40*
%TO.N,18V*%
X178569000Y-102232000D02*
X176276000Y-102232000D01*
D38*
%TO.N,Net-(IC1-IN2)*%
X150643200Y-79826000D02*
X153619200Y-82802000D01*
X111309000Y-79826000D02*
X150643200Y-79826000D01*
X98044000Y-93091000D02*
X111309000Y-79826000D01*
X99568000Y-111252000D02*
X98044000Y-109728000D01*
X98044000Y-109728000D02*
X98044000Y-93091000D01*
%TD*%
M02*
